<svg width="41" height="40" viewBox="0 0 41 40" fill="none" xmlns="http://www.w3.org/2000/svg">
<circle cx="20.3784" cy="19.818" r="19.6836" fill="#345C66"/>
<path d="M32.3261 22.724C32.182 23.3638 31.9778 23.9886 31.7162 24.5899C30.4616 27.497 28.4085 29.6392 25.5436 30.9909C24.33 31.567 23.0253 31.927 21.6881 32.0547C17.8982 32.4146 14.6009 31.2921 11.8387 28.6793C9.90864 26.854 8.7022 24.6033 8.26988 21.9823C7.56772 17.7264 8.78112 14.0607 11.8021 10.9893C11.8387 10.9516 11.8811 10.9185 11.9182 10.8837C12.0499 10.8199 12.1364 10.7003 12.2414 10.6063C12.6417 10.2511 13.0655 9.92345 13.51 9.62543C15.0541 8.58844 16.8135 7.9157 18.6555 7.65795C19.0973 7.59798 19.5402 7.55522 19.9843 7.52968C20.047 7.51924 20.1126 7.54419 20.1747 7.51575H20.6174C20.6755 7.54245 20.7335 7.52156 20.7915 7.52794C20.8641 7.52098 20.9378 7.54245 21.0091 7.51575H21.0585C21.1211 7.54942 21.1925 7.50821 21.2552 7.53955C21.9331 7.59536 22.606 7.70148 23.2682 7.85702C24.8431 8.23936 26.3273 8.92801 27.6361 9.8837C27.7093 9.93709 27.7168 9.96205 27.6361 10.0183C27.3379 10.2277 27.0427 10.442 26.7506 10.6614C26.7287 10.6841 26.6987 10.6973 26.6671 10.6982C26.6356 10.6991 26.6049 10.6875 26.5817 10.6661C25.2935 9.78115 23.8299 9.18378 22.2904 8.91447C20.5652 8.61035 18.8568 8.69334 17.1838 9.21046C14.1883 10.1391 11.9611 12.0021 10.4942 14.7705C9.8363 16.0092 9.43691 17.3687 9.32022 18.7664C9.04399 21.9916 9.97073 24.8319 12.1231 27.2463C13.7752 29.0989 15.8422 30.2614 18.2841 30.7251C20.3943 31.1295 22.5767 30.9102 24.5643 30.0941C26.552 29.278 28.2588 27.9004 29.4763 26.1297C29.5923 25.9555 29.7084 25.7814 29.8244 25.6073C29.9925 25.361 30.1411 25.1019 30.2689 24.8325C30.6143 24.1579 30.8867 23.4483 31.0814 22.7159C31.366 21.6636 31.4929 20.575 31.458 19.4855C31.4371 18.766 31.3447 18.0504 31.1823 17.3491C31.037 16.7146 30.8357 16.0942 30.5806 15.4954C30.4064 15.0847 30.2066 14.6854 29.9823 14.2998C29.9313 14.202 29.8749 14.107 29.8134 14.0154C29.8031 14.0039 29.7952 13.9904 29.7903 13.9757C29.7854 13.9611 29.7835 13.9455 29.7849 13.9301C29.7863 13.9147 29.7908 13.8998 29.7982 13.8862C29.8056 13.8726 29.8157 13.8607 29.8279 13.8512C30.0711 13.6016 30.3189 13.3573 30.5643 13.11C30.6084 13.0653 30.6392 13.0613 30.6804 13.1228C30.9927 13.6129 31.2735 14.1223 31.5212 14.648C31.8524 15.3614 32.114 16.105 32.3023 16.8686C32.4585 17.5037 32.5646 18.1501 32.6197 18.8018C32.6437 19.0091 32.6567 19.2176 32.6586 19.4263L32.6673 19.464C32.676 19.525 32.6528 19.5882 32.6807 19.648V19.8941C32.6528 19.9736 32.6754 20.056 32.6679 20.1367C32.6696 20.1646 32.6679 20.1927 32.6627 20.2202C32.6627 20.5969 32.6046 20.9695 32.5658 21.3427C32.5321 21.6532 32.4723 21.9614 32.412 22.2684C32.3795 22.4205 32.3267 22.5679 32.3261 22.724Z" fill="white"/>
<path d="M29.0493 12.8775C28.5451 13.3888 28.0721 13.9285 27.6096 14.4764C25.466 17.0179 23.6694 19.7869 22.0921 22.7056C21.4956 23.8083 20.9379 24.9319 20.4017 26.066C20.1354 26.6295 19.4292 26.7526 19.009 26.3144C18.9476 26.2483 18.8958 26.1739 18.8553 26.0933C17.361 23.2239 15.3909 20.7178 13.0592 18.4868C12.8817 18.3168 12.7111 18.1386 12.5434 17.9593C12.4062 17.822 12.311 17.6484 12.2689 17.459C12.2542 17.4072 12.2583 17.352 12.2806 17.303C12.3028 17.254 12.3416 17.2145 12.3902 17.1914C12.6762 17.0272 12.9809 17.0394 13.2873 17.1003C13.9221 17.2268 14.499 17.5066 15.056 17.82C16.5364 18.6545 17.9107 19.6647 19.1489 20.8287C19.1663 20.8449 19.1854 20.86 19.2069 20.8774C19.504 20.4497 19.7948 20.0237 20.093 19.6006C21.4857 17.6354 22.9916 15.7701 24.7046 14.0713C26.0219 12.766 27.4384 11.5809 29.0029 10.5809C29.7115 10.1282 30.4386 9.70571 31.2342 9.42016C31.45 9.34239 31.6717 9.27506 31.9061 9.30408C32.1591 9.33833 32.245 9.484 32.1522 9.7208C32.0833 9.87407 31.9847 10.0122 31.862 10.1271C31.4204 10.5914 30.9336 11.0046 30.4693 11.4492C30.4403 11.4776 30.4113 11.5072 30.3852 11.5374C30.2239 11.6981 30.0689 11.8653 29.8948 12.0127C29.8407 12.0893 29.7735 12.1557 29.6964 12.2089C29.6674 12.2615 29.6236 12.3045 29.5704 12.3325L29.477 12.4329C29.462 12.466 29.436 12.4929 29.4033 12.5089C29.2939 12.6398 29.1757 12.7629 29.0493 12.8775Z" fill="white"/>
</svg>
