<svg width="41" height="41" viewBox="0 0 41 41" fill="none" xmlns="http://www.w3.org/2000/svg">
<g id="Asset 1 1" clip-path="url(#clip0_0_248)">
<g id="Layer 2">
<g id="Layer 1">
<path id="Vector" d="M-3.55486e-06 24.0828C-3.55486e-06 20.7798 -0.00987202 17.4768 0.0131544 14.1727C0.0220965 13.7777 0.130725 13.3914 0.328945 13.0497C2.52194 9.35632 4.73796 5.67389 6.9463 1.98487C7.74016 0.657969 8.90683 0 10.4474 0H27.4705C28.9924 0 30.1613 0.642616 30.9475 1.95307C33.1756 5.66329 35.3982 9.37606 37.6153 13.0914C37.79 13.3973 37.8843 13.7425 37.8894 14.0948C37.9124 16.5896 37.8982 19.0844 37.9102 21.5792C37.9133 21.7922 37.9805 21.9994 38.1032 22.1736C43.3302 29.1107 39.2743 39.045 30.6854 40.3017C27.5791 40.7557 24.7644 39.9859 22.2325 38.1501C22.0275 38.0038 21.7837 37.9213 21.5319 37.9133C15.6656 37.9001 9.79938 37.8961 3.93313 37.9012C2.0318 37.9012 0.53399 36.7487 0.117322 34.9689C0.0379465 34.594 0.0011634 34.2115 0.00767192 33.8284C0.00255494 30.5766 -3.55486e-06 27.328 -3.55486e-06 24.0828ZM19.5286 35.3713C16.8137 30.4793 16.8356 25.7003 20.6251 21.5342C24.8378 16.9087 29.9453 16.6203 35.3379 19.4814V15.1903H2.53729V15.6575C2.53729 21.7152 2.53729 27.7729 2.53729 33.8306C2.53729 34.9195 2.99014 35.3713 4.08554 35.3713H19.5308H19.5286ZM37.8993 29.0724C37.9019 27.3231 37.3856 25.6123 36.4158 24.1565C35.4459 22.7008 34.0661 21.5654 32.4509 20.8941C30.8357 20.2229 29.0577 20.0458 27.3419 20.3854C25.6261 20.725 24.0495 21.566 22.8117 22.8019C21.5739 24.0379 20.7305 25.6132 20.3882 27.3287C20.0459 29.0442 20.22 30.8226 20.8886 32.4391C21.5572 34.0555 22.6902 35.4373 24.1443 36.4096C25.5983 37.3819 27.308 37.901 29.0571 37.9012C31.3992 37.8989 33.645 36.9685 35.3027 35.3137C36.9603 33.659 37.8948 31.4147 37.9015 29.0724H37.8993ZM20.2282 12.6231H34.373C34.3105 12.5036 34.271 12.4203 34.2238 12.3413C32.4088 9.30441 30.5937 6.273 28.7786 3.24708C28.4837 2.7525 28.0703 2.52221 27.4891 2.52879C25.1733 2.53647 22.8576 2.52879 20.5428 2.52879C20.4382 2.53402 20.3339 2.54463 20.2303 2.5606L20.2282 12.6231ZM3.51975 12.6231H17.6536V2.53428C15.2632 2.53428 12.909 2.54744 10.5538 2.5266C9.85969 2.52002 9.40245 2.78869 9.05047 3.38196C7.36077 6.23316 5.65134 9.06572 3.94629 11.9049C3.81142 12.1242 3.68093 12.3468 3.52194 12.6166L3.51975 12.6231Z" fill="#E7272D"/>
<path id="Vector_2" d="M10.0878 21.4717C9.28074 21.4717 8.47372 21.4717 7.6656 21.4717C6.88051 21.4651 6.32678 20.9475 6.3213 20.2271C6.31582 19.5066 6.87393 18.9714 7.65244 18.9714C9.29426 18.9648 10.9365 18.9648 12.579 18.9714C13.3608 18.9714 13.8948 19.5033 13.8948 20.2347C13.8948 20.9486 13.3553 21.4673 12.5954 21.475C11.761 21.4794 10.9266 21.4717 10.0878 21.4717Z" fill="#E7272D"/>
<path id="Vector_3" d="M27.8762 31.077C28.0056 30.9191 28.1218 30.748 28.2655 30.6032C29.8696 28.9923 31.4705 27.3792 33.09 25.7869C33.3223 25.5614 33.6079 25.3985 33.9201 25.3132C34.4398 25.1805 34.9464 25.4546 35.2052 25.9086C35.3283 26.1315 35.3827 26.3858 35.3614 26.6396C35.3402 26.8933 35.2442 27.135 35.0857 27.3342C35.015 27.4175 34.94 27.4969 34.8609 27.5722L28.8488 33.5849C28.1383 34.2945 27.4552 34.2956 26.7501 33.5915C25.5586 32.4021 24.3674 31.2115 23.1766 30.0198C22.7939 29.6371 22.6547 29.1886 22.8159 28.6699C22.9683 28.1797 23.3247 27.9023 23.8236 27.8168C24.2775 27.7411 24.6525 27.9165 24.9705 28.2357C25.8016 29.0691 26.6383 29.8981 27.465 30.737C27.5577 30.8583 27.635 30.9905 27.6953 31.1307L27.8762 31.077Z" fill="#E7272D"/>
</g>
</g>
</g>
<defs>
<clipPath id="clip0_0_248">
<rect width="40.43" height="40.43" fill="white"/>
</clipPath>
</defs>
</svg>
