<svg width="41" height="41" viewBox="0 0 41 41" fill="none" xmlns="http://www.w3.org/2000/svg">
<g id="Asset 2 2" clip-path="url(#clip0_0_242)">
<g id="Layer 2">
<g id="Layer 1">
<path id="Vector" d="M37.3322 40.43H9.83621C9.55201 40.3816 9.2678 40.33 8.9836 40.2847C4.3856 39.5477 0.807158 35.9058 0.108795 31.2585C-0.563154 26.7649 1.86051 22.2165 5.99046 20.2034C7.10124 19.668 8.2926 19.3176 9.51714 19.1663V18.6778C9.51714 13.6788 9.51714 8.68052 9.51714 3.68292C9.51714 2.37632 10.0232 1.31713 11.1241 0.608556C11.5657 0.324282 12.1109 0.197939 12.6032 0H31.6207C31.9376 0.252688 32.2715 0.480106 32.5557 0.761221C34.9984 3.18281 37.4273 5.61598 39.8711 8.03441C40.0545 8.20449 40.1993 8.41171 40.2957 8.64216C40.3921 8.87261 40.4379 9.12095 40.43 9.37049C40.418 14.7619 40.4155 20.1539 40.4226 25.5467C40.4226 29.2949 40.431 33.0431 40.4226 36.7913C40.4162 38.3643 39.6724 39.494 38.2345 40.1499C37.9401 40.2625 37.6387 40.3561 37.3322 40.43ZM30.1215 2.36895H13.2805C12.356 2.36895 11.8964 2.82799 11.8964 3.75136V19.1716C13.7976 19.3941 15.6068 20.11 17.1431 21.2479C17.3411 21.3868 17.5761 21.4638 17.8182 21.469C22.9952 21.4816 28.1722 21.4848 33.3491 21.4784C33.4812 21.4784 33.6133 21.4732 33.7453 21.4784C34.0387 21.4927 34.3163 21.6148 34.5244 21.8212C34.7326 22.0277 34.8566 22.3037 34.8723 22.5959C34.8881 22.8881 34.7946 23.1758 34.6098 23.4033C34.4251 23.6307 34.1622 23.7819 33.8721 23.8274C33.7147 23.8453 33.556 23.8506 33.3977 23.8432H19.5995C20.5431 25.2655 21.1397 26.888 21.3418 28.5811H22.0031C25.8461 28.5811 29.6883 28.5811 33.5298 28.5811C34.1014 28.5811 34.5409 28.7811 34.7755 29.3096C35.1368 30.1235 34.5261 30.9511 33.5689 30.9521C29.6471 30.9521 25.7256 30.9521 21.8045 30.9521H21.3418C20.9699 33.8275 19.6714 36.1564 17.4421 38.0589H36.6032C37.6069 38.0589 38.0454 37.6189 38.0454 36.6134V10.2654H37.5752C35.5425 10.2654 33.509 10.2654 31.4749 10.2654C30.599 10.2654 30.1246 9.7969 30.1215 8.9325C30.1215 7.99756 30.1215 7.06367 30.1215 6.12978V2.36895ZM19.028 29.7645C19.0269 28.1243 18.5377 26.5212 17.6222 25.1581C16.7068 23.795 15.4062 22.7331 13.885 22.1068C12.3638 21.4804 10.6903 21.3178 9.07637 21.6394C7.4624 21.961 5.98042 22.7525 4.8179 23.9136C3.65539 25.0748 2.86459 26.5534 2.54553 28.1625C2.22648 29.7716 2.39351 31.4389 3.02551 32.9534C3.6575 34.4679 4.72605 35.7616 6.09598 36.6707C7.46591 37.5799 9.07565 38.0638 10.7216 38.0611C12.9256 38.0538 15.0371 37.1768 16.5938 35.6219C18.1505 34.067 19.0257 31.9609 19.028 29.7645ZM36.1437 7.87859L32.5282 4.26937V7.87859H36.1437Z" fill="#E7272D"/>
<path id="Vector_2" d="M24.9667 14.3716C27.844 14.3716 30.7205 14.3716 33.5964 14.3716C34.5251 14.3716 35.1231 15.196 34.7807 15.9993C34.6954 16.2232 34.5417 16.4147 34.3414 16.5469C34.141 16.6791 33.9041 16.7453 33.664 16.7363C32.8853 16.7448 32.1067 16.7363 31.328 16.7363H16.523C16.3519 16.7446 16.1805 16.7347 16.0116 16.7068C15.7191 16.6484 15.4595 16.482 15.2847 16.241C15.1099 16.0001 15.0329 15.7022 15.0689 15.4071C15.105 15.112 15.2514 14.8412 15.4791 14.6491C15.7068 14.4569 15.9988 14.3574 16.2969 14.3705C18.9734 14.3649 21.652 14.3649 24.3328 14.3705L24.9667 14.3716Z" fill="#E7272D"/>
<path id="Vector_3" d="M11.8964 28.5853C12.5515 28.5853 13.1569 28.5853 13.7623 28.5853C14.5293 28.5853 15.066 29.0801 15.0639 29.7708C15.0618 30.4615 14.5282 30.9542 13.758 30.9542C12.7811 30.9585 11.8042 30.9585 10.8272 30.9542C10.0063 30.9542 9.52244 30.471 9.52032 29.655C9.52032 28.155 9.52032 26.6554 9.52032 25.1561C9.52032 24.3875 10.0095 23.8537 10.7015 23.8495C11.3935 23.8453 11.8922 24.3759 11.8954 25.1424C11.8996 26.2711 11.8964 27.4008 11.8964 28.5853Z" fill="#E7272D"/>
</g>
</g>
</g>
<defs>
<clipPath id="clip0_0_242">
<rect width="40.43" height="40.43" fill="white"/>
</clipPath>
</defs>
</svg>
