<svg width="41" height="41" viewBox="0 0 41 41" fill="none" xmlns="http://www.w3.org/2000/svg">
<g id="Group 37656">
<g id="Layer 2">
<g id="Layer 2_2">
<path id="Vector" d="M0 17.7896C0.258215 17.1819 0.659357 16.9914 1.20027 17.0023C2.66033 17.0373 4.12196 17.0133 5.58124 17.0143C6.45459 17.0143 6.69938 17.3256 6.70569 18.4361C6.70569 18.5997 6.71675 18.7634 6.72386 18.9689L11.7934 18.2984C11.7997 18.1567 11.8202 17.9163 11.8202 17.6768C11.8202 12.3083 11.8202 6.93881 11.8202 1.5683C11.8141 1.31928 11.8239 1.07003 11.8495 0.822991C11.8672 0.621394 11.9392 0.433589 12.0533 0.290884C12.1674 0.148179 12.3167 0.0591951 12.4764 0.0387672C12.6596 0.00730963 12.8445 -0.00503756 13.0292 0.00185078H35.8374C36.0083 -0.00318612 36.1793 0.00681546 36.3491 0.031783C36.527 0.0567506 36.6922 0.160722 36.8151 0.325172C36.938 0.489623 37.0107 0.703872 37.0203 0.929749C37.0337 1.1293 37.0274 1.32885 37.0274 1.52839C37.0274 8.24651 37.025 14.9623 37.0203 21.6758C37.0203 22.1577 37.0898 22.3662 37.5186 22.4081C38.8507 22.5378 40.0352 23.9466 40.3321 25.6428C40.3574 25.7865 40.3968 25.9261 40.43 26.0668V27.0646C40.4007 27.1191 40.3776 27.1785 40.3613 27.2412C40.1481 28.7697 39.4461 29.8034 38.3595 30.4808C37.273 31.1583 36.1864 31.8936 35.0975 32.592C31.6538 34.802 28.2276 37.0499 24.7594 39.2011C21.9886 40.9192 19.1679 40.7565 16.3789 39.2061C14.7925 38.3231 13.225 37.3872 11.6465 36.4802C10.2725 35.694 8.92303 34.831 7.32636 35.0215C6.61567 35.1073 6.71122 34.9736 6.70569 35.8536C6.69938 36.8374 6.44669 37.1677 5.66494 37.1707C4.15197 37.1757 2.63901 37.1547 1.12604 37.1806C0.593026 37.1906 0.206888 36.9871 0 36.3445L0 17.7896ZM20.2332 2.08413C20.0397 2.07216 19.8841 2.0562 19.7294 2.0562C17.8084 2.0562 15.8869 2.0562 13.9649 2.0562C13.4469 2.0562 13.4453 2.0562 13.4453 2.70573C13.4453 6.54636 13.4453 10.3863 13.4453 14.2256C13.4453 15.5885 13.454 16.9515 13.4406 18.3164C13.4406 18.6596 13.533 18.7993 13.7896 18.905C14.3904 19.1408 14.9802 19.4192 15.5561 19.7391C17.3459 20.7721 19.1313 21.8244 20.9123 22.896C22.1431 23.6403 23.3628 24.4149 24.5715 25.2197C25.3935 25.7665 25.8262 26.7034 26.0094 27.8298C26.0616 28.1491 26.075 28.4784 26.1097 28.8475C26.2392 28.7827 26.3364 28.7477 26.4256 28.6869C29.3041 26.8311 32.1832 24.9766 35.0628 23.1235C35.3312 22.9519 35.3976 22.7453 35.3976 22.3891C35.3897 15.8041 35.3878 9.22163 35.392 2.64187V2.0542H34.833C32.9781 2.0542 31.1216 2.0542 29.2683 2.0542C28.5434 2.0542 28.6161 1.9235 28.6129 2.92224C28.6082 4.46674 28.6129 6.01523 28.5703 7.55574C28.5545 8.20826 28.0886 8.56346 27.5864 8.38187C27.4229 8.3198 27.2644 8.23898 27.1126 8.14042C26.3229 7.64155 25.5333 7.15764 24.7547 6.64381C24.6555 6.56728 24.5416 6.5268 24.4254 6.5268C24.3092 6.5268 24.1953 6.56728 24.0961 6.64381C23.2449 7.20154 22.3857 7.74132 21.5234 8.26813C20.8286 8.69516 20.2379 8.22722 20.2332 7.24844C20.2261 5.7189 20.2332 4.19036 20.2332 2.65883V2.08413ZM6.70491 32.9762C7.04919 32.9762 7.33662 32.9941 7.62169 32.9762C8.79274 32.8884 9.88798 33.2296 10.9453 33.8422C12.951 35.0049 14.9599 36.159 16.9719 37.3044C19.3985 38.6882 21.829 38.7571 24.2367 37.2415C27.006 35.4905 29.7697 33.7125 32.5335 31.9375C34.2797 30.8174 36.0211 29.6866 37.7578 28.5452C38.5056 28.0563 38.8926 27.1244 38.7488 26.2165C38.5119 24.7119 37.3275 23.9766 36.2314 24.675C34.6932 25.6508 33.1652 26.6515 31.6333 27.6432C29.2604 29.1808 26.8749 30.6903 24.5202 32.2718C23.4265 33.0061 22.3652 33.1378 21.2439 32.4663C19.962 31.7001 18.6786 30.9371 17.3936 30.1775C16.5131 29.6557 15.6303 29.1429 14.7546 28.6091C14.3053 28.3347 14.1434 27.767 14.3337 27.2322C14.5161 26.7193 14.9804 26.5138 15.4392 26.7463C15.5371 26.7962 15.6311 26.856 15.7258 26.9129C17.801 28.1631 19.8723 29.4232 21.953 30.6594C22.8627 31.2002 23.8379 30.7592 24.2619 29.6617C24.686 28.5642 24.378 27.295 23.5063 26.7682C20.5551 24.9869 17.5965 23.2266 14.6306 21.4872C13.3901 20.7618 12.08 20.3168 10.6934 20.4894C9.50421 20.6401 8.32447 20.8706 7.13131 21.0133C6.75149 21.0582 6.6978 21.2587 6.69859 21.6698C6.70885 25.2447 6.70412 28.8186 6.70412 32.3925L6.70491 32.9762ZM5.05375 19.0806C3.97035 19.0806 2.93354 19.0806 1.89516 19.0806C1.63062 19.0806 1.64958 19.3021 1.64958 19.5226C1.64958 24.5745 1.64773 29.6258 1.64405 34.6763C1.64405 35.0365 1.74986 35.1333 2.01202 35.1273C2.63032 35.1123 3.24861 35.1273 3.86612 35.1273H5.05375V19.0806ZM21.8985 2.09611V5.68797C22.0478 5.60516 22.1544 5.55328 22.2562 5.48842C22.6653 5.22402 23.0854 4.98157 23.477 4.68125C24.1167 4.19036 24.7318 4.20034 25.3722 4.67527C25.7907 4.98556 26.2298 5.24996 26.6625 5.52933C26.7668 5.58489 26.8739 5.63189 26.9831 5.67001C26.9831 4.60343 26.9681 3.60768 26.9894 2.61393C26.9989 2.1879 26.9065 2.03624 26.5504 2.04323C25.129 2.06717 23.7076 2.05221 22.2918 2.0542C22.1639 2.0572 22.0359 2.08014 21.8985 2.09611Z" fill="#E7272D"/>
<path id="Vector_2" d="M31.1357 21.2098C30.6232 21.2098 30.1092 21.2198 29.5975 21.2098C29.0147 21.1958 28.6799 20.8197 28.6744 20.2011C28.6689 19.5825 28.9973 19.1744 29.5738 19.1664C30.6393 19.1511 31.7045 19.1511 32.7695 19.1664C33.3223 19.1744 33.6444 19.5655 33.65 20.1712C33.6555 20.8027 33.3341 21.1909 32.7529 21.2078C32.2175 21.2218 31.675 21.2088 31.1357 21.2098Z" fill="#E7272D"/>
</g>
</g>
</g>
</svg>
