<?xml version="1.0" encoding="UTF-8"?>
<svg id="Layer_1" data-name="Layer 1" xmlns="http://www.w3.org/2000/svg" xmlns:xlink="http://www.w3.org/1999/xlink" viewBox="0 0 77.11 78">
  <defs>
    <style>
      .cls-1 {
        fill: #f05e22;
      }

      .cls-2 {
        fill: #b32425;
      }

      .cls-3 {
        fill: #ee4623;
      }

      .cls-4 {
        fill: #f05623;
      }

      .cls-5 {
        fill: #ed3424;
      }

      .cls-6 {
        fill: #c22425;
      }

      .cls-7 {
        fill: #fff;
      }

      .cls-8 {
        fill: #b62425;
      }

      .cls-9 {
        fill: #f05c22;
      }

      .cls-10 {
        fill: #f05922;
      }

      .cls-11 {
        fill: #f16222;
      }

      .cls-12 {
        fill: #ed3724;
      }

      .cls-13 {
        fill: #ef4a23;
      }

      .cls-14 {
        fill: #f16522;
      }

      .cls-15 {
        fill: #a82424;
      }

      .cls-16 {
        fill: #b52525;
      }

      .cls-17 {
        fill: #ee4323;
      }

      .cls-18 {
        fill: #ef4e23;
      }

      .cls-19 {
        fill: #b42525;
      }

      .cls-20 {
        fill: #ee3c23;
      }

      .cls-21 {
        fill: #ee3b24;
      }

      .cls-22 {
        fill: #ed2724;
      }

      .cls-23 {
        fill: #f16623;
      }

      .cls-24 {
        fill: #a92524;
      }

      .cls-25 {
        fill: #de1f26;
      }

      .cls-26 {
        fill: #b02524;
      }

      .cls-27 {
        fill: #ed2c24;
      }

      .cls-28 {
        fill: #ee4023;
      }

      .cls-29 {
        fill: #ef4c23;
      }

      .cls-30 {
        fill: #d32225;
      }

      .cls-31 {
        fill: #af2524;
      }

      .cls-32 {
        fill: #ed3024;
      }

      .cls-33 {
        fill: #a32424;
      }

      .cls-34 {
        fill: #f16422;
      }

      .cls-35 {
        clip-path: url(#clippath-2);
      }

      .cls-36 {
        fill: #ab2524;
      }

      .cls-37 {
        fill: #d52025;
      }

      .cls-38 {
        fill: #f05722;
      }

      .cls-39 {
        fill: #c22325;
      }

      .cls-40 {
        fill: #da1f24;
      }

      .cls-41 {
        fill: #a6a8ab;
      }

      .cls-42 {
        fill: #d72125;
      }

      .cls-43 {
        fill: #dc1f24;
      }

      .cls-44 {
        fill: #9f2423;
      }

      .cls-45 {
        fill: #bb2425;
      }

      .cls-46 {
        fill: #cc2225;
      }

      .cls-47 {
        fill: #b92425;
      }

      .cls-48 {
        fill: #ce2125;
      }

      .cls-49 {
        fill: #bf2425;
      }

      .cls-50 {
        fill: #a72424;
      }

      .cls-51 {
        fill: #be2425;
      }

      .cls-52 {
        fill: #ed2424;
      }

      .cls-53 {
        fill: #f05b22;
      }

      .cls-54 {
        fill: #f05822;
      }

      .cls-55 {
        fill: #ec2224;
      }

      .cls-56 {
        fill: #ee3a24;
      }

      .cls-57 {
        fill: #c82325;
      }

      .cls-58 {
        fill: #ed2924;
      }

      .cls-59 {
        fill: #d02125;
      }

      .cls-60 {
        fill: #ec1e27;
      }

      .cls-61 {
        fill: #f16122;
      }

      .cls-62 {
        clip-path: url(#clippath-1);
      }

      .cls-63 {
        fill: #ef5223;
      }

      .cls-64 {
        fill: #ef5323;
      }

      .cls-65 {
        fill: #e21e24;
      }

      .cls-66 {
        fill: #da1f25;
      }

      .cls-67 {
        fill: #d72124;
      }

      .cls-68 {
        fill: #ee3e23;
      }

      .cls-69 {
        fill: #c42325;
      }

      .cls-70 {
        fill: #d81f25;
      }

      .cls-71 {
        fill: #ee3d23;
      }

      .cls-72 {
        fill: #ac2424;
      }

      .cls-73 {
        fill: #ec1c24;
      }

      .cls-74 {
        fill: #e51c24;
      }

      .cls-75 {
        fill: #9e2423;
      }

      .cls-76 {
        fill: #e71c24;
      }

      .cls-77 {
        fill: #a62524;
      }

      .cls-78 {
        fill: #ed3324;
      }

      .cls-79 {
        fill: #de1f24;
      }

      .cls-80 {
        fill: #d12225;
      }

      .cls-81 {
        fill: #ee4523;
      }

      .cls-82 {
        fill: #f06022;
      }

      .cls-83 {
        fill: #c62325;
      }

      .cls-84 {
        fill: #e01e24;
      }

      .cls-85 {
        fill: #e41e24;
      }

      .cls-86 {
        fill: #ed2f24;
      }

      .cls-87 {
        fill: #ad2424;
      }

      .cls-88 {
        fill: #ee4823;
      }

      .cls-89 {
        fill: #ca2225;
      }

      .cls-90 {
        fill: #f05f22;
      }

      .cls-91 {
        fill: #ed3224;
      }

      .cls-92 {
        clip-path: url(#clippath);
      }

      .cls-93 {
        fill: #bd2425;
      }

      .cls-94 {
        fill: #f16322;
      }

      .cls-95 {
        fill: #aa2524;
      }

      .cls-96 {
        fill: #a12524;
      }

      .cls-97 {
        fill: #ae2424;
      }

      .cls-98 {
        fill: #c02325;
      }

      .cls-99 {
        fill: none;
      }

      .cls-100 {
        fill: #ef5423;
      }

      .cls-101 {
        clip-path: url(#clippath-3);
      }

      .cls-102 {
        fill: #c42425;
      }

      .cls-103 {
        fill: #ee4423;
      }

      .cls-104 {
        fill: #ef4b23;
      }

      .cls-105 {
        fill: #df1e24;
      }

      .cls-106 {
        fill: #ed2a24;
      }

      .cls-107 {
        fill: #ef5123;
      }

      .cls-108 {
        fill: #ef4d23;
      }

      .cls-109 {
        fill: #cd2325;
      }

      .cls-110 {
        fill: #b72425;
      }

      .cls-111 {
        fill: #b12424;
      }

      .cls-112 {
        fill: #ee4223;
      }

      .cls-113 {
        fill: #b82425;
      }

      .cls-114 {
        fill: #ee3824;
      }

      .cls-115 {
        fill: #a52524;
      }

      .cls-116 {
        fill: #f05523;
      }

      .cls-117 {
        fill: #f05a22;
      }

      .cls-118 {
        fill: #eb1c24;
      }

      .cls-119 {
        fill: #bc2425;
      }

      .cls-120 {
        fill: #a02523;
      }

      .cls-121 {
        fill: #cf2125;
      }

      .cls-122 {
        fill: #ec1e24;
      }

      .cls-123 {
        fill: #b12425;
      }

      .cls-124 {
        fill: #e11e24;
      }

      .cls-125 {
        fill: #d32025;
      }

      .cls-126 {
        fill: #231f20;
      }

      .cls-127 {
        fill: #ec2024;
      }

      .cls-128 {
        fill: #ef5023;
      }

      .cls-129 {
        fill: #ba2525;
      }

      .cls-130 {
        fill: #ee4723;
      }

      .cls-131 {
        fill: #ef4f23;
      }

      .cls-132 {
        fill: #e81c24;
      }

      .cls-133 {
        fill: #f6921e;
      }

      .cls-134 {
        fill: #f05d22;
      }
    </style>
    <clipPath id="clippath">
      <path class="cls-99" d="m8.78,31.19c-.05.3-.09.59-.06.87.1.83.3,1.65.52,2.46.58,2.06.39,4.04-.57,5.94-.34.68-.85,1.29-1.22,1.96.5-1.46.77-2.91.19-4.28-.03-.06-.11-.06-.14,0-.36.61-.7,1.22-1.08,1.82-.2.31-.44.59-.68.88-1.45,1.74-2.02,3.76-1.87,6,.2,3.12,2.37,5.45,5.38,5.78.07,0,.11-.08.07-.13-.85-1.1-1.64-2.22-1.9-3.62-.02-.08.08-.14.14-.07.47.56,1.01,1.02,1.63,1.3.05.02.11-.01.11-.07.07-.94.09-1.89.24-2.81.14-.9.55-1.7,1.21-2.46.05-.06.14-.01.14.07-.1,1.09-.04,2.06.37,2.99.53,1.23,1.79,1.41,2.65.38.22-.26.38-.56.56-.88.04-.07.14-.04.15.04.09,1.85-.48,3.38-1.83,4.58-.07.06,0,.18.08.14.77-.31,1.48-.73,2.13-1.26,1.36-1.11,1.86-2.56,1.56-4.27-.16-.92-.45-1.83-.67-2.74-.21-.86-.38-1.72-.22-2.62.11-.65.36-1.21.83-1.76.05-.06,0-.16-.08-.13-1.17.35-2.1.88-2.61,1.94-.04.08-.15.05-.15-.03-.02-.65-.02-1.29-.02-1.93,0-2.21.36-3.86-2.46-5.53-1.86-1.1-2.17-1.92-2.22-2.51,0-.05-.04-.07-.08-.07-.04,0-.07.02-.08.07"/>
    </clipPath>
    <clipPath id="clippath-1">
      <rect class="cls-99" x="3.73" y="31.12" width="13.11" height="21.49"/>
    </clipPath>
    <clipPath id="clippath-2">
      <path class="cls-99" d="m68.17,31.19c-.05.59-.36,1.41-2.22,2.51-2.82,1.67-2.46,3.31-2.46,5.53,0,.64,0,1.28-.02,1.93,0,.09-.11.11-.15.03-.52-1.06-1.45-1.58-2.61-1.94-.08-.02-.13.07-.08.13.47.55.72,1.11.83,1.76.15.9-.01,1.76-.22,2.62-.23.91-.51,1.81-.67,2.74-.29,1.71.21,3.16,1.56,4.27.65.53,1.35.95,2.13,1.26.08.03.15-.08.08-.14-1.35-1.2-1.92-2.73-1.83-4.58,0-.08.11-.11.15-.04.19.32.35.62.56.88.86,1.03,2.12.85,2.65-.38.4-.93.46-1.9.37-2.99,0-.08.09-.12.14-.07.66.76,1.07,1.56,1.21,2.46.15.92.17,1.87.24,2.81,0,.06.06.09.11.07.62-.28,1.16-.73,1.63-1.3.05-.06.15-.01.14.07-.26,1.39-1.05,2.51-1.9,3.62-.04.06,0,.14.07.13,3.01-.33,5.18-2.66,5.38-5.78.14-2.24-.42-4.26-1.87-6-.24-.28-.48-.56-.68-.88-.38-.6-.72-1.21-1.08-1.82-.03-.06-.12-.05-.14,0-.59,1.36-.31,2.82.19,4.28-.37-.67-.87-1.27-1.22-1.96-.96-1.9-1.14-3.88-.57-5.94.23-.81.42-1.63.52-2.46.03-.28,0-.56-.06-.87,0-.05-.04-.07-.08-.07s-.07.02-.08.07"/>
    </clipPath>
    <clipPath id="clippath-3">
      <rect class="cls-99" x="60.27" y="31.12" width="13.11" height="21.49"/>
    </clipPath>
  </defs>
  <path class="cls-41" d="m48.1,16.36c.36.14.71.3,1.05.48v-3.38c-.35-.12-.7-.23-1.05-.33v3.24Z"/>
  <path class="cls-41" d="m48.1,64.3c.36-.09.71-.19,1.05-.3v-18.76c-.34.19-.7.36-1.05.51v18.54Z"/>
  <path class="cls-41" d="m50.46,17.6c.36.24.71.5,1.05.77v-4c-.35-.15-.7-.3-1.05-.44v3.66Z"/>
  <path class="cls-41" d="m50.46,63.59c.36-.12.71-.25,1.05-.38v-19.57c-.34.28-.69.55-1.05.8v19.14Z"/>
  <path class="cls-41" d="m52.99,19.75c.37.4.72.81,1.05,1.25v-5.38c-.34-.19-.69-.38-1.05-.56v4.69Z"/>
  <path class="cls-41" d="m52.99,62.61c.36-.15.71-.31,1.05-.47v-21.2c-.33.45-.68.88-1.05,1.28v20.39Z"/>
  <path class="cls-41" d="m55.44,61.44c.36-.19.71-.38,1.05-.58v-24.83c-.28.91-.63,1.79-1.05,2.62v22.79Z"/>
  <path class="cls-41" d="m55.44,23.24c.42.82.77,1.68,1.05,2.59v-8.7c-.34-.23-.69-.46-1.05-.69v6.8Z"/>
  <path class="cls-41" d="m57.72,18.01v42.12c.36-.23.71-.46,1.05-.7V18.84c-.34-.28-.69-.55-1.05-.83"/>
  <path class="cls-25" d="m5.06,36.97c.06.27.15.53.18.79.08.62-.08,1.15-.38,1.6-.26.39-.55.76-.84,1.12-.48.59-.74.94-1.01,2.1-.58,2.65,1.08,5.13.27,5.08-2.32-3.68-2.76-4.61-3.14-6.1-.27-1.03-.15-1.99.17-2.89.24-.66.53-1.3.79-1.95.09-.22.18-.43.25-.66.24-.76.31-1.55-.09-2.39.46.2.86.92.88,1.57,0,.28-.03.56-.03.85,0,.46.14.76.44.9.3.14.66,0,.79-.39.08-.25.12-.57.08-.85-.19-1.36-.25-2.68.12-3.94.43-1.47,1.33-2.38,2.6-2.99-.14.31-.26.55-.37.8-.42.98-.46,2.05-.21,3.18.07.31.21.63.38.89-.08,1.01-2.62-3.31-.9,3.26"/>
  <g class="cls-92">
    <g class="cls-62">
      <rect class="cls-75" x="3.73" y="51.12" width="13.11" height="1.48"/>
      <rect class="cls-75" x="3.73" y="51.03" width="13.11" height=".09"/>
      <rect class="cls-44" x="3.73" y="50.94" width="13.11" height=".09"/>
      <rect class="cls-120" x="3.73" y="50.84" width="13.11" height=".09"/>
      <rect class="cls-96" x="3.73" y="50.75" width="13.11" height=".09"/>
      <rect class="cls-96" x="3.73" y="50.66" width="13.11" height=".09"/>
      <rect class="cls-33" x="3.73" y="50.57" width="13.11" height=".09"/>
      <rect class="cls-33" x="3.73" y="50.48" width="13.11" height=".09"/>
      <rect class="cls-115" x="3.73" y="50.38" width="13.11" height=".09"/>
      <rect class="cls-115" x="3.73" y="50.29" width="13.11" height=".09"/>
      <rect class="cls-77" x="3.73" y="50.2" width="13.11" height=".09"/>
      <rect class="cls-50" x="3.73" y="50.11" width="13.11" height=".09"/>
      <rect class="cls-15" x="3.73" y="50.02" width="13.11" height=".09"/>
      <rect class="cls-24" x="3.73" y="49.93" width="13.11" height=".09"/>
      <rect class="cls-95" x="3.73" y="49.83" width="13.11" height=".09"/>
      <rect class="cls-36" x="3.73" y="49.74" width="13.11" height=".09"/>
      <rect class="cls-72" x="3.73" y="49.65" width="13.11" height=".09"/>
      <rect class="cls-87" x="3.73" y="49.56" width="13.11" height=".09"/>
      <rect class="cls-97" x="3.73" y="49.47" width="13.11" height=".09"/>
      <rect class="cls-31" x="3.73" y="49.37" width="13.11" height=".09"/>
      <rect class="cls-26" x="3.73" y="49.28" width="13.11" height=".09"/>
      <rect class="cls-123" x="3.73" y="49.19" width="13.11" height=".09"/>
      <rect class="cls-111" x="3.73" y="49.1" width="13.11" height=".09"/>
      <rect class="cls-2" x="3.73" y="49.01" width="13.11" height=".09"/>
      <rect class="cls-19" x="3.73" y="48.92" width="13.11" height=".09"/>
      <rect class="cls-16" x="3.73" y="48.82" width="13.11" height=".09"/>
      <rect class="cls-8" x="3.73" y="48.73" width="13.11" height=".09"/>
      <rect class="cls-110" x="3.73" y="48.64" width="13.11" height=".09"/>
      <rect class="cls-113" x="3.73" y="48.55" width="13.11" height=".09"/>
      <rect class="cls-47" x="3.73" y="48.46" width="13.11" height=".09"/>
      <rect class="cls-129" x="3.73" y="48.36" width="13.11" height=".09"/>
      <rect class="cls-45" x="3.73" y="48.27" width="13.11" height=".09"/>
      <rect class="cls-119" x="3.73" y="48.18" width="13.11" height=".09"/>
      <rect class="cls-93" x="3.73" y="48.09" width="13.11" height=".09"/>
      <rect class="cls-51" x="3.73" y="48" width="13.11" height=".09"/>
      <rect class="cls-49" x="3.73" y="47.9" width="13.11" height=".09"/>
      <rect class="cls-98" x="3.73" y="47.81" width="13.11" height=".09"/>
      <rect class="cls-98" x="3.73" y="47.72" width="13.11" height=".09"/>
      <rect class="cls-39" x="3.73" y="47.63" width="13.11" height=".09"/>
      <rect class="cls-6" x="3.73" y="47.54" width="13.11" height=".09"/>
      <rect class="cls-102" x="3.73" y="47.45" width="13.11" height=".09"/>
      <rect class="cls-69" x="3.73" y="47.35" width="13.11" height=".09"/>
      <rect class="cls-83" x="3.73" y="47.26" width="13.11" height=".09"/>
      <rect class="cls-83" x="3.73" y="47.17" width="13.11" height=".09"/>
      <rect class="cls-57" x="3.73" y="47.08" width="13.11" height=".09"/>
      <rect class="cls-57" x="3.73" y="46.99" width="13.11" height=".09"/>
      <rect class="cls-89" x="3.73" y="46.89" width="13.11" height=".09"/>
      <rect class="cls-89" x="3.73" y="46.8" width="13.11" height=".09"/>
      <rect class="cls-46" x="3.73" y="46.71" width="13.11" height=".09"/>
      <rect class="cls-46" x="3.73" y="46.62" width="13.11" height=".09"/>
      <rect class="cls-109" x="3.73" y="46.53" width="13.11" height=".09"/>
      <rect class="cls-48" x="3.73" y="46.44" width="13.11" height=".09"/>
      <rect class="cls-121" x="3.73" y="46.34" width="13.11" height=".09"/>
      <rect class="cls-59" x="3.73" y="46.25" width="13.11" height=".09"/>
      <rect class="cls-80" x="3.73" y="46.16" width="13.11" height=".09"/>
      <rect class="cls-30" x="3.73" y="46.07" width="13.11" height=".09"/>
      <rect class="cls-125" x="3.73" y="45.98" width="13.11" height=".09"/>
      <rect class="cls-37" x="3.73" y="45.88" width="13.11" height=".09"/>
      <rect class="cls-37" x="3.73" y="45.79" width="13.11" height=".09"/>
      <rect class="cls-67" x="3.73" y="45.7" width="13.11" height=".09"/>
      <rect class="cls-42" x="3.73" y="45.61" width="13.11" height=".09"/>
      <rect class="cls-70" x="3.73" y="45.52" width="13.11" height=".09"/>
      <rect class="cls-40" x="3.73" y="45.43" width="13.11" height=".09"/>
      <rect class="cls-66" x="3.73" y="45.33" width="13.11" height=".09"/>
      <rect class="cls-43" x="3.73" y="45.24" width="13.11" height=".09"/>
      <rect class="cls-43" x="3.73" y="45.15" width="13.11" height=".09"/>
      <rect class="cls-79" x="3.73" y="45.06" width="13.11" height=".09"/>
      <rect class="cls-105" x="3.73" y="44.97" width="13.11" height=".09"/>
      <rect class="cls-84" x="3.73" y="44.87" width="13.11" height=".09"/>
      <rect class="cls-124" x="3.73" y="44.78" width="13.11" height=".09"/>
      <rect class="cls-65" x="3.73" y="44.69" width="13.11" height=".09"/>
      <rect class="cls-85" x="3.73" y="44.6" width="13.11" height=".09"/>
      <rect class="cls-74" x="3.73" y="44.51" width="13.11" height=".09"/>
      <rect class="cls-76" x="3.73" y="44.41" width="13.11" height=".09"/>
      <rect class="cls-132" x="3.73" y="44.32" width="13.11" height=".09"/>
      <rect class="cls-118" x="3.73" y="44.23" width="13.11" height=".09"/>
      <rect class="cls-73" x="3.73" y="44.14" width="13.11" height=".09"/>
      <rect class="cls-73" x="3.73" y="44.05" width="13.11" height=".09"/>
      <rect class="cls-73" x="3.73" y="43.96" width="13.11" height=".09"/>
      <rect class="cls-122" x="3.73" y="43.87" width="13.11" height=".09"/>
      <rect class="cls-127" x="3.73" y="43.79" width="13.11" height=".09"/>
      <rect class="cls-55" x="3.73" y="43.7" width="13.11" height=".09"/>
      <rect class="cls-52" x="3.73" y="43.61" width="13.11" height=".09"/>
      <rect class="cls-22" x="3.73" y="43.53" width="13.11" height=".09"/>
      <rect class="cls-58" x="3.73" y="43.44" width="13.11" height=".09"/>
      <rect class="cls-106" x="3.73" y="43.35" width="13.11" height=".09"/>
      <rect class="cls-27" x="3.73" y="43.27" width="13.11" height=".09"/>
      <rect class="cls-86" x="3.73" y="43.18" width="13.11" height=".09"/>
      <rect class="cls-32" x="3.73" y="43.09" width="13.11" height=".09"/>
      <rect class="cls-91" x="3.73" y="43" width="13.11" height=".09"/>
      <rect class="cls-78" x="3.73" y="42.92" width="13.11" height=".09"/>
      <rect class="cls-5" x="3.73" y="42.83" width="13.11" height=".09"/>
      <rect class="cls-12" x="3.73" y="42.74" width="13.11" height=".09"/>
      <rect class="cls-114" x="3.73" y="42.66" width="13.11" height=".09"/>
      <rect class="cls-56" x="3.73" y="42.57" width="13.11" height=".09"/>
      <rect class="cls-21" x="3.73" y="42.48" width="13.11" height=".09"/>
      <rect class="cls-20" x="3.73" y="42.4" width="13.11" height=".09"/>
      <rect class="cls-71" x="3.73" y="42.31" width="13.11" height=".09"/>
      <rect class="cls-68" x="3.73" y="42.22" width="13.11" height=".09"/>
      <rect class="cls-28" x="3.73" y="42.14" width="13.11" height=".09"/>
      <rect class="cls-112" x="3.73" y="42.05" width="13.11" height=".09"/>
      <rect class="cls-17" x="3.73" y="41.96" width="13.11" height=".09"/>
      <rect class="cls-103" x="3.73" y="41.88" width="13.11" height=".09"/>
      <rect class="cls-81" x="3.73" y="41.79" width="13.11" height=".09"/>
      <rect class="cls-3" x="3.73" y="41.7" width="13.11" height=".09"/>
      <rect class="cls-130" x="3.73" y="41.61" width="13.11" height=".09"/>
      <rect class="cls-88" x="3.73" y="41.53" width="13.11" height=".09"/>
      <rect class="cls-13" x="3.73" y="41.44" width="13.11" height=".09"/>
      <rect class="cls-104" x="3.73" y="41.35" width="13.11" height=".09"/>
      <rect class="cls-29" x="3.73" y="41.27" width="13.11" height=".09"/>
      <rect class="cls-108" x="3.73" y="41.18" width="13.11" height=".09"/>
      <rect class="cls-18" x="3.73" y="41.09" width="13.11" height=".09"/>
      <rect class="cls-131" x="3.73" y="41.01" width="13.11" height=".09"/>
      <rect class="cls-128" x="3.73" y="40.92" width="13.11" height=".09"/>
      <rect class="cls-107" x="3.73" y="40.83" width="13.11" height=".09"/>
      <rect class="cls-63" x="3.73" y="40.75" width="13.11" height=".09"/>
      <rect class="cls-64" x="3.73" y="40.66" width="13.11" height=".09"/>
      <rect class="cls-100" x="3.73" y="40.57" width="13.11" height=".09"/>
      <rect class="cls-116" x="3.73" y="40.49" width="13.11" height=".09"/>
      <rect class="cls-4" x="3.73" y="40.4" width="13.11" height=".09"/>
      <rect class="cls-38" x="3.73" y="40.31" width="13.11" height=".09"/>
      <rect class="cls-54" x="3.73" y="40.22" width="13.11" height=".09"/>
      <rect class="cls-54" x="3.73" y="40.14" width="13.11" height=".09"/>
      <rect class="cls-10" x="3.73" y="40.05" width="13.11" height=".09"/>
      <rect class="cls-117" x="3.73" y="39.96" width="13.11" height=".09"/>
      <rect class="cls-53" x="3.73" y="39.88" width="13.11" height=".09"/>
      <rect class="cls-9" x="3.73" y="39.79" width="13.11" height=".09"/>
      <rect class="cls-9" x="3.73" y="39.7" width="13.11" height=".09"/>
      <rect class="cls-134" x="3.73" y="39.62" width="13.11" height=".09"/>
      <rect class="cls-1" x="3.73" y="39.53" width="13.11" height=".09"/>
      <rect class="cls-90" x="3.73" y="39.44" width="13.11" height=".09"/>
      <rect class="cls-82" x="3.73" y="39.36" width="13.11" height=".09"/>
      <rect class="cls-82" x="3.73" y="39.27" width="13.11" height=".09"/>
      <rect class="cls-82" x="3.73" y="39.18" width="13.11" height=".09"/>
      <rect class="cls-61" x="3.73" y="39.1" width="13.11" height=".09"/>
      <rect class="cls-11" x="3.73" y="39.01" width="13.11" height=".09"/>
      <rect class="cls-94" x="3.73" y="38.92" width="13.11" height=".09"/>
      <rect class="cls-94" x="3.73" y="38.83" width="13.11" height=".09"/>
      <rect class="cls-34" x="3.73" y="38.75" width="13.11" height=".09"/>
      <rect class="cls-14" x="3.73" y="38.66" width="13.11" height=".09"/>
      <rect class="cls-14" x="3.73" y="38.57" width="13.11" height=".09"/>
      <rect class="cls-14" x="3.73" y="38.49" width="13.11" height=".09"/>
      <rect class="cls-14" x="3.73" y="31.12" width="13.11" height="7.37"/>
    </g>
  </g>
  <path class="cls-133" d="m8.29,33.48c-.46-1.54-1.55-2.83-.34-4.86,1.34-2.25-.58.06-.58.06,0,0-1.03,1.34-.49,3.96.49,2.07.17,2.79,0,3.22,0,0-.61,1.49-.21.99.23-.29.9-.63,1.35-1.21.12.15.19.43.06.98-.34,1.39,1.04-.75.21-3.13"/>
  <path class="cls-73" d="m16.28,30.08s-2.12,1.42-1.27,3.84c.85,2.42.7,3.33-.2,5.05,0,0,.46-2.1-.44-3.9-.89-1.81-.21-4.08,1.91-4.99"/>
  <path class="cls-25" d="m72.05,36.97c-.06.27-.15.53-.18.79-.08.62.08,1.15.38,1.6.26.39.55.76.84,1.12.48.59.74.94,1.01,2.1.58,2.65-1.08,5.13-.27,5.08,2.32-3.68,2.76-4.61,3.14-6.1.27-1.03.15-1.99-.17-2.89-.24-.66-.53-1.3-.79-1.95-.09-.22-.18-.43-.25-.66-.24-.76-.31-1.55.09-2.39-.46.2-.86.92-.88,1.57,0,.28.03.56.03.85,0,.46-.14.76-.44.9-.3.14-.66,0-.79-.39-.08-.25-.12-.57-.08-.85.19-1.36.25-2.68-.12-3.94-.43-1.47-1.33-2.38-2.6-2.99.14.31.26.55.37.8.42.98.46,2.05.21,3.18-.07.31-.21.63-.38.89.08,1.01,2.62-3.31.9,3.26"/>
  <g class="cls-35">
    <g class="cls-101">
      <rect class="cls-75" x="60.27" y="51.12" width="13.11" height="1.48"/>
      <rect class="cls-75" x="60.27" y="51.03" width="13.11" height=".09"/>
      <rect class="cls-44" x="60.27" y="50.94" width="13.11" height=".09"/>
      <rect class="cls-120" x="60.27" y="50.84" width="13.11" height=".09"/>
      <rect class="cls-96" x="60.27" y="50.75" width="13.11" height=".09"/>
      <rect class="cls-96" x="60.27" y="50.66" width="13.11" height=".09"/>
      <rect class="cls-33" x="60.27" y="50.57" width="13.11" height=".09"/>
      <rect class="cls-33" x="60.27" y="50.48" width="13.11" height=".09"/>
      <rect class="cls-115" x="60.27" y="50.38" width="13.11" height=".09"/>
      <rect class="cls-115" x="60.27" y="50.29" width="13.11" height=".09"/>
      <rect class="cls-77" x="60.27" y="50.2" width="13.11" height=".09"/>
      <rect class="cls-50" x="60.27" y="50.11" width="13.11" height=".09"/>
      <rect class="cls-15" x="60.27" y="50.02" width="13.11" height=".09"/>
      <rect class="cls-24" x="60.27" y="49.93" width="13.11" height=".09"/>
      <rect class="cls-95" x="60.27" y="49.83" width="13.11" height=".09"/>
      <rect class="cls-36" x="60.27" y="49.74" width="13.11" height=".09"/>
      <rect class="cls-72" x="60.27" y="49.65" width="13.11" height=".09"/>
      <rect class="cls-87" x="60.27" y="49.56" width="13.11" height=".09"/>
      <rect class="cls-97" x="60.27" y="49.47" width="13.11" height=".09"/>
      <rect class="cls-31" x="60.27" y="49.37" width="13.11" height=".09"/>
      <rect class="cls-26" x="60.27" y="49.28" width="13.11" height=".09"/>
      <rect class="cls-123" x="60.27" y="49.19" width="13.11" height=".09"/>
      <rect class="cls-111" x="60.27" y="49.1" width="13.11" height=".09"/>
      <rect class="cls-2" x="60.27" y="49.01" width="13.11" height=".09"/>
      <rect class="cls-19" x="60.27" y="48.92" width="13.11" height=".09"/>
      <rect class="cls-16" x="60.27" y="48.82" width="13.11" height=".09"/>
      <rect class="cls-8" x="60.27" y="48.73" width="13.11" height=".09"/>
      <rect class="cls-110" x="60.27" y="48.64" width="13.11" height=".09"/>
      <rect class="cls-113" x="60.27" y="48.55" width="13.11" height=".09"/>
      <rect class="cls-47" x="60.27" y="48.46" width="13.11" height=".09"/>
      <rect class="cls-129" x="60.27" y="48.36" width="13.11" height=".09"/>
      <rect class="cls-45" x="60.27" y="48.27" width="13.11" height=".09"/>
      <rect class="cls-119" x="60.27" y="48.18" width="13.11" height=".09"/>
      <rect class="cls-93" x="60.27" y="48.09" width="13.11" height=".09"/>
      <rect class="cls-51" x="60.27" y="48" width="13.11" height=".09"/>
      <rect class="cls-49" x="60.27" y="47.9" width="13.11" height=".09"/>
      <rect class="cls-98" x="60.27" y="47.81" width="13.11" height=".09"/>
      <rect class="cls-98" x="60.27" y="47.72" width="13.11" height=".09"/>
      <rect class="cls-39" x="60.27" y="47.63" width="13.11" height=".09"/>
      <rect class="cls-6" x="60.27" y="47.54" width="13.11" height=".09"/>
      <rect class="cls-102" x="60.27" y="47.45" width="13.11" height=".09"/>
      <rect class="cls-69" x="60.27" y="47.35" width="13.11" height=".09"/>
      <rect class="cls-83" x="60.27" y="47.26" width="13.11" height=".09"/>
      <rect class="cls-83" x="60.27" y="47.17" width="13.11" height=".09"/>
      <rect class="cls-57" x="60.27" y="47.08" width="13.11" height=".09"/>
      <rect class="cls-57" x="60.27" y="46.99" width="13.11" height=".09"/>
      <rect class="cls-89" x="60.27" y="46.89" width="13.11" height=".09"/>
      <rect class="cls-89" x="60.27" y="46.8" width="13.11" height=".09"/>
      <rect class="cls-46" x="60.27" y="46.71" width="13.11" height=".09"/>
      <rect class="cls-46" x="60.27" y="46.62" width="13.11" height=".09"/>
      <rect class="cls-109" x="60.27" y="46.53" width="13.11" height=".09"/>
      <rect class="cls-48" x="60.27" y="46.44" width="13.11" height=".09"/>
      <rect class="cls-121" x="60.27" y="46.34" width="13.11" height=".09"/>
      <rect class="cls-59" x="60.27" y="46.25" width="13.11" height=".09"/>
      <rect class="cls-80" x="60.27" y="46.16" width="13.11" height=".09"/>
      <rect class="cls-30" x="60.27" y="46.07" width="13.11" height=".09"/>
      <rect class="cls-125" x="60.27" y="45.98" width="13.11" height=".09"/>
      <rect class="cls-37" x="60.27" y="45.88" width="13.11" height=".09"/>
      <rect class="cls-37" x="60.27" y="45.79" width="13.11" height=".09"/>
      <rect class="cls-67" x="60.27" y="45.7" width="13.11" height=".09"/>
      <rect class="cls-42" x="60.27" y="45.61" width="13.11" height=".09"/>
      <rect class="cls-70" x="60.27" y="45.52" width="13.11" height=".09"/>
      <rect class="cls-40" x="60.27" y="45.43" width="13.11" height=".09"/>
      <rect class="cls-66" x="60.27" y="45.33" width="13.11" height=".09"/>
      <rect class="cls-43" x="60.27" y="45.24" width="13.11" height=".09"/>
      <rect class="cls-43" x="60.27" y="45.15" width="13.11" height=".09"/>
      <rect class="cls-79" x="60.27" y="45.06" width="13.11" height=".09"/>
      <rect class="cls-105" x="60.27" y="44.97" width="13.11" height=".09"/>
      <rect class="cls-84" x="60.27" y="44.87" width="13.11" height=".09"/>
      <rect class="cls-124" x="60.27" y="44.78" width="13.11" height=".09"/>
      <rect class="cls-65" x="60.27" y="44.69" width="13.11" height=".09"/>
      <rect class="cls-85" x="60.27" y="44.6" width="13.11" height=".09"/>
      <rect class="cls-74" x="60.27" y="44.51" width="13.11" height=".09"/>
      <rect class="cls-76" x="60.27" y="44.41" width="13.11" height=".09"/>
      <rect class="cls-132" x="60.27" y="44.32" width="13.11" height=".09"/>
      <rect class="cls-118" x="60.27" y="44.23" width="13.11" height=".09"/>
      <rect class="cls-73" x="60.27" y="44.14" width="13.11" height=".09"/>
      <rect class="cls-73" x="60.27" y="44.05" width="13.11" height=".09"/>
      <rect class="cls-73" x="60.27" y="43.96" width="13.11" height=".09"/>
      <rect class="cls-122" x="60.27" y="43.87" width="13.11" height=".09"/>
      <rect class="cls-127" x="60.27" y="43.79" width="13.11" height=".09"/>
      <rect class="cls-55" x="60.27" y="43.7" width="13.11" height=".09"/>
      <rect class="cls-52" x="60.27" y="43.61" width="13.11" height=".09"/>
      <rect class="cls-22" x="60.27" y="43.53" width="13.11" height=".09"/>
      <rect class="cls-58" x="60.27" y="43.44" width="13.11" height=".09"/>
      <rect class="cls-106" x="60.27" y="43.35" width="13.11" height=".09"/>
      <rect class="cls-27" x="60.27" y="43.27" width="13.11" height=".09"/>
      <rect class="cls-86" x="60.27" y="43.18" width="13.11" height=".09"/>
      <rect class="cls-32" x="60.27" y="43.09" width="13.11" height=".09"/>
      <rect class="cls-91" x="60.27" y="43" width="13.11" height=".09"/>
      <rect class="cls-78" x="60.27" y="42.92" width="13.11" height=".09"/>
      <rect class="cls-5" x="60.27" y="42.83" width="13.11" height=".09"/>
      <rect class="cls-12" x="60.27" y="42.74" width="13.11" height=".09"/>
      <rect class="cls-114" x="60.27" y="42.66" width="13.11" height=".09"/>
      <rect class="cls-56" x="60.27" y="42.57" width="13.11" height=".09"/>
      <rect class="cls-21" x="60.27" y="42.48" width="13.11" height=".09"/>
      <rect class="cls-20" x="60.27" y="42.4" width="13.11" height=".09"/>
      <rect class="cls-71" x="60.27" y="42.31" width="13.11" height=".09"/>
      <rect class="cls-68" x="60.27" y="42.22" width="13.11" height=".09"/>
      <rect class="cls-28" x="60.27" y="42.14" width="13.11" height=".09"/>
      <rect class="cls-112" x="60.27" y="42.05" width="13.11" height=".09"/>
      <rect class="cls-17" x="60.27" y="41.96" width="13.11" height=".09"/>
      <rect class="cls-103" x="60.27" y="41.88" width="13.11" height=".09"/>
      <rect class="cls-81" x="60.27" y="41.79" width="13.11" height=".09"/>
      <rect class="cls-3" x="60.27" y="41.7" width="13.11" height=".09"/>
      <rect class="cls-130" x="60.27" y="41.61" width="13.11" height=".09"/>
      <rect class="cls-88" x="60.27" y="41.53" width="13.11" height=".09"/>
      <rect class="cls-13" x="60.27" y="41.44" width="13.11" height=".09"/>
      <rect class="cls-104" x="60.27" y="41.35" width="13.11" height=".09"/>
      <rect class="cls-29" x="60.27" y="41.27" width="13.11" height=".09"/>
      <rect class="cls-108" x="60.27" y="41.18" width="13.11" height=".09"/>
      <rect class="cls-18" x="60.27" y="41.09" width="13.11" height=".09"/>
      <rect class="cls-131" x="60.27" y="41.01" width="13.11" height=".09"/>
      <rect class="cls-128" x="60.27" y="40.92" width="13.11" height=".09"/>
      <rect class="cls-107" x="60.27" y="40.83" width="13.11" height=".09"/>
      <rect class="cls-63" x="60.27" y="40.75" width="13.11" height=".09"/>
      <rect class="cls-64" x="60.27" y="40.66" width="13.11" height=".09"/>
      <rect class="cls-100" x="60.27" y="40.57" width="13.11" height=".09"/>
      <rect class="cls-116" x="60.27" y="40.49" width="13.11" height=".09"/>
      <rect class="cls-4" x="60.27" y="40.4" width="13.11" height=".09"/>
      <rect class="cls-38" x="60.27" y="40.31" width="13.11" height=".09"/>
      <rect class="cls-54" x="60.27" y="40.22" width="13.11" height=".09"/>
      <rect class="cls-54" x="60.27" y="40.14" width="13.11" height=".09"/>
      <rect class="cls-10" x="60.27" y="40.05" width="13.11" height=".09"/>
      <rect class="cls-117" x="60.27" y="39.96" width="13.11" height=".09"/>
      <rect class="cls-53" x="60.27" y="39.88" width="13.11" height=".09"/>
      <rect class="cls-9" x="60.27" y="39.79" width="13.11" height=".09"/>
      <rect class="cls-9" x="60.27" y="39.7" width="13.11" height=".09"/>
      <rect class="cls-134" x="60.27" y="39.62" width="13.11" height=".09"/>
      <rect class="cls-1" x="60.27" y="39.53" width="13.11" height=".09"/>
      <rect class="cls-90" x="60.27" y="39.44" width="13.11" height=".09"/>
      <rect class="cls-82" x="60.27" y="39.36" width="13.11" height=".09"/>
      <rect class="cls-82" x="60.27" y="39.27" width="13.11" height=".09"/>
      <rect class="cls-82" x="60.27" y="39.18" width="13.11" height=".09"/>
      <rect class="cls-61" x="60.27" y="39.1" width="13.11" height=".09"/>
      <rect class="cls-11" x="60.27" y="39.01" width="13.11" height=".09"/>
      <rect class="cls-94" x="60.27" y="38.92" width="13.11" height=".09"/>
      <rect class="cls-94" x="60.27" y="38.83" width="13.11" height=".09"/>
      <rect class="cls-34" x="60.27" y="38.75" width="13.11" height=".09"/>
      <rect class="cls-14" x="60.27" y="38.66" width="13.11" height=".09"/>
      <rect class="cls-14" x="60.27" y="38.57" width="13.11" height=".09"/>
      <rect class="cls-14" x="60.27" y="38.49" width="13.11" height=".09"/>
      <rect class="cls-14" x="60.27" y="31.12" width="13.11" height="7.37"/>
    </g>
  </g>
  <path class="cls-133" d="m68.82,33.48c.46-1.54,1.55-2.83.34-4.86-1.34-2.25.58.06.58.06,0,0,1.03,1.34.49,3.96-.49,2.07-.17,2.79,0,3.22,0,0,.61,1.49.21.99-.23-.29-.9-.63-1.35-1.21-.12.15-.19.43-.06.98.34,1.39-1.04-.75-.21-3.13"/>
  <path class="cls-73" d="m60.83,30.08s2.12,1.42,1.27,3.84c-.85,2.42-.7,3.33.2,5.05,0,0-.46-2.1.44-3.9.89-1.81.21-4.08-1.91-4.99"/>
  <path class="cls-60" d="m46.74,64.58v-19.2c1.44-.81,2.71-1.7,3.83-2.66,1.12-.96,2.04-2.02,2.78-3.19.73-1.17,1.29-2.47,1.68-3.9.38-1.43.58-3.06.58-4.88s-.21-3.67-.63-5.36c-.42-1.69-1.09-3.18-2.03-4.46-.94-1.28-2.17-2.32-3.71-3.1-1.54-.78-3.42-1.2-5.66-1.27v48.55h0v3.85c10.16-1.57,18.64-8.2,22.73-17.19,0,0-5.71,9.92-19.58,12.82m0-44.71c1,.26,1.86.75,2.58,1.46.72.72,1.31,1.59,1.78,2.61.47,1.02.81,2.17,1.03,3.44.22,1.27.33,2.55.33,3.85,0,2.63-.47,4.84-1.4,6.61-.94,1.77-2.37,3.34-4.31,4.71v-22.68Z"/>
  <path class="cls-126" d="m40.57,11.88s.1,0,.15,0c.47.03-14.21-1.22-.15,0"/>
  <path class="cls-41" d="m28.12,13.27c-.21.08-.41.16-.61.24v50.47c.33.1.67.19,1.02.28V13.13c-.14.05-.28.09-.41.14"/>
  <path class="cls-41" d="m25.23,14.53v48.71c.33.12.67.24,1.02.36V14.05c-.2.09-.41.18-.6.27-.14.07-.28.14-.42.21"/>
  <path class="cls-41" d="m22.79,62.22c.33.15.67.3,1.02.45V15.29c-.35.2-.69.4-1.02.6v46.34Z"/>
  <path class="cls-41" d="m20.42,61c.33.19.67.37,1.02.56V16.77c-.35.24-.69.49-1.02.74v43.49Z"/>
  <path class="cls-41" d="m18.22,59.62c.33.23.67.45,1.02.67V18.45c-.35.3-.69.59-1.02.89v40.28Z"/>
  <path class="cls-23" d="m33.79,66.48h.01v-21.11c1.44-.81,2.71-1.7,3.83-2.66,1.12-.96,2.04-2.02,2.78-3.19.73-1.17,1.29-2.47,1.68-3.9.38-1.43.58-3.06.58-4.88s-.21-3.67-.63-5.36c-.42-1.69-1.09-3.18-2.03-4.46-.94-1.28-2.17-2.32-3.71-3.1-1.54-.78-3.42-1.2-5.66-1.27v48.03c-.47-.1-.93-.2-1.37-.32-.34-.09-.68-.18-1.02-.27-.43-.12-.85-.25-1.26-.38-.35-.11-.68-.23-1.02-.35-.49-.18-.97-.37-1.43-.56-.35-.14-.69-.29-1.02-.45-.46-.21-.91-.43-1.35-.66-.35-.18-.69-.36-1.02-.55-.41-.23-.8-.46-1.18-.7-.35-.22-.69-.44-1.02-.66-5.49-3.73-7.91-7.92-7.91-7.92,1.83,4.03,4.55,7.59,7.91,10.43.33.28.67.56,1.02.82.39.3.78.59,1.18.87.33.23.67.46,1.02.68,3.45,2.21,7.38,3.74,11.61,4.39v-2.46Zm.01-46.62c1,.26,1.86.75,2.58,1.46.72.72,1.31,1.59,1.78,2.61.47,1.02.81,2.17,1.03,3.44.22,1.27.33,2.55.33,3.85,0,2.63-.47,4.84-1.4,6.61-.94,1.77-2.37,3.34-4.31,4.71v-22.68Z"/>
  <path class="cls-41" d="m54.04,13.98c-.43-.25-.87-.5-1.32-.73-.44-.23-.88-.44-1.33-.64-.43-.2-.87-.39-1.32-.57-.44-.18-.89-.35-1.34-.5-.37-.13-.75-.25-1.12-.36-2.77-.84-5.7-1.29-8.75-1.29s-6.15.48-8.99,1.36c-.4.13-.8.26-1.2.4-.41.15-.81.3-1.2.46-.45.18-.89.37-1.32.57-.39.18-.77.37-1.15.56-.03.01-.06.03-.08.05-.11.06-.22.12-.33.18-.3.17-.61.33-.9.51-.18.1-.35.21-.52.32-.34.21-.68.43-1.02.65-.46.3-.91.62-1.35.95-.35.26-.68.53-1.02.8-.4.33-.8.67-1.18,1.03-.35.31-.69.64-1.02.97-2.57,2.57-4.68,5.59-6.17,8.94,0,0,1.84-3.87,6.17-7.78.33-.29.66-.59,1.02-.88.38-.31.77-.62,1.18-.93.33-.25.67-.49,1.02-.73.43-.3.88-.59,1.35-.87.33-.2.67-.4,1.02-.59.17-.1.35-.2.52-.29.29-.16.6-.31.9-.46.14-.07.28-.14.42-.2.2-.09.4-.18.6-.27.18-.08.36-.17.55-.25.23-.1.47-.19.71-.28.2-.08.4-.16.61-.24.13-.05.27-.09.41-.14.26-.09.53-.19.8-.27.43-.14.87-.27,1.32-.4.46-.13.92-.24,1.39-.35.43-.1.87-.19,1.32-.28.44-.08.88-.15,1.33-.22.43-.06.87-.12,1.32-.17.44-.05.88-.08,1.33-.12.43-.03.87-.06,1.32-.07.28,0,.56-.02.85-.02.18,0,.36,0,.54,0,.39,0,.78.02,1.17.05-14.06-1.22.62.04.15,0-.05,0-.1,0-.15,0,.5.04,1.03.09,1.6.14,2.12.18,4.1.57,5.92,1.11.36.11.71.22,1.05.33.45.15.88.31,1.31.47.36.14.71.29,1.05.44.51.22,1,.45,1.48.69.36.18.71.37,1.05.56.48.27.94.54,1.39.82.36.23.71.45,1.05.69.42.29.83.58,1.23.88.36.27.72.55,1.05.83,5.14,4.22,7.54,8.79,7.54,8.79-2.55-5.72-6.88-10.49-12.28-13.65"/>
  <path class="cls-7" d="m40.4,68.96c-.08-.05-.17-.12-.25-.21-.09-.09-.19-.19-.3-.31-.68.51-1.47.76-2.39.76-.31,0-.61-.06-.91-.17-.3-.11-.57-.29-.81-.53-.24-.24-.43-.53-.58-.88-.14-.35-.22-.77-.22-1.26,0-.33.03-.62.08-.89.06-.27.15-.54.28-.81.13-.27.29-.55.47-.85.18-.29.41-.63.69-1-.47-1.08-.84-2.21-1.12-3.41-.28-1.19-.42-2.46-.42-3.8,0-1.14.08-2.1.25-2.87s.39-1.38.68-1.85c.28-.47.6-.8.97-.99.36-.2.73-.29,1.1-.29s.7.1,1.03.29c.33.2.62.52.88.97.26.45.46,1.05.6,1.79.14.74.22,1.66.22,2.76,0,.93-.06,1.75-.19,2.46-.13.71-.31,1.36-.56,1.95-.24.59-.53,1.13-.86,1.62-.33.49-.7.98-1.1,1.47.55,1.26,1.25,2.42,2.1,3.48.37-.77.61-1.9.72-3.38h1.28c-.02.88-.12,1.69-.33,2.43-.2.74-.49,1.38-.86,1.94.32.34.66.65,1,.93.35.28.66.5.93.66h-2.39Zm-2.56-1.2c.24,0,.47-.02.68-.06.21-.04.4-.12.58-.23l-.05-.1c-.37-.52-.72-1.07-1.05-1.63-.33-.56-.65-1.13-.95-1.7-.23.38-.39.75-.48,1.13-.1.38-.14.78-.14,1.23,0,.38.12.7.35.97.23.27.59.4,1.07.4m-1.4-12.3c0,2.17.32,4.21.97,6.1.34-.49.62-.95.83-1.37.22-.42.39-.87.52-1.32.13-.46.22-.95.27-1.48.05-.53.07-1.16.07-1.87,0-.8-.03-1.47-.08-2.02-.06-.55-.14-.98-.24-1.31-.1-.33-.23-.56-.37-.71-.14-.15-.31-.22-.48-.22-.19,0-.38.06-.56.17-.18.11-.33.33-.47.64-.14.31-.25.74-.33,1.29-.08.55-.12,1.25-.12,2.12"/>
  <path class="cls-7" d="m10.5,23.1l-.32.5-6.26-3.96c.94-1.4,2.3-1.22,3.53-.44,1.18.75,1.54,1.65,1.5,2.92l1.55.98Zm-3.29-3.35c-.86-.54-1.87-.8-2.43-.27l3.71,2.34c-.06-.89-.42-1.54-1.28-2.08Z"/>
  <path class="cls-7" d="m11.75,18.22l-.66.81,1.23,1.41-.37.45-5.04-5.99,6.85,3.76-.38.47-1.63-.91Zm-.96.47l.56-.69-2.19-1.23-.02.03,1.65,1.89Z"/>
  <path class="cls-7" d="m15.37,17.03l-.43.4-5.06-5.41c1.26-1.12,2.54-.59,3.51.45.84.9,1.04,1.74.85,2.74,1.15.27,2.3.32,2.92.13l-.72.67c-.47.1-1.46-.1-2.3-.37l-.02.03,1.25,1.34Zm-2.34-4.07c-.68-.73-1.61-1.24-2.28-.86l3,3.2c.17-.88-.02-1.59-.72-2.34Z"/>
  <path class="cls-7" d="m18.51,12.08l-.85.6.8,1.69-.48.34-3.26-7.12,5.6,5.46-.49.35-1.33-1.31Zm-1.05.19l.73-.52-1.78-1.77-.03.02,1.08,2.27Z"/>
  <path class="cls-7" d="m21.85,12.16l-3.32-5.88-.68.38-.29-.52,1.86-1.05.29.52-.66.37,3.32,5.88-.52.29Z"/>
  <path class="cls-7" d="m26.13,10.07l-.72-1.69-1.06.45.72,1.69-.55.23-2.87-6.77.55-.23,1.97,4.66,1.06-.45-1.97-4.66.56-.24,2.87,6.77-.56.24Z"/>
  <path class="cls-7" d="m29.69,6.93l-1,.29.2,1.86-.56.16-.72-7.8,3.48,7-.58.17-.82-1.68Zm-1.06-.17l.86-.25-1.09-2.26h-.04s.27,2.51.27,2.51Z"/>
  <path class="cls-7" d="m32.5,7.48c.14.08.27.12.49.08.66-.11.88-.65.75-1.43-.08-.46-.24-.75-.46-1.04-.32-.43-.78-.86-1.05-1.19-.32-.38-.58-.81-.68-1.41-.17-1.01.2-1.78,1-1.91.29-.05.44.02.54.06l.1.6c-.08-.07-.26-.12-.47-.08-.48.08-.7.53-.57,1.27.08.47.25.76.49,1.06.29.37.58.61.94,1.02.36.42.66.83.78,1.54.19,1.12-.23,1.94-1.18,2.1-.29.05-.47.01-.56-.05l-.1-.6Z"/>
  <path class="cls-7" d="m41.22,7.48c-.06-.04-.13-.12-.21-.2-.26.18-.57.28-.94.27-.48-.01-.97-.37-.95-1.12.01-.5.2-.8.63-1.35-.35-.84-.56-1.76-.53-2.79C39.25.52,39.85-.01,40.43,0c.56.01,1.05.57,1.01,2.26-.03,1.42-.48,2.13-1.12,2.86.2.48.46.94.79,1.36.15-.29.25-.71.31-1.3h.5c-.03.68-.21,1.26-.5,1.68.25.27.52.5.74.63l-.93-.02Zm-.49-.59l-.02-.04c-.28-.41-.53-.85-.75-1.3-.19.28-.26.56-.27.9,0,.29.17.53.54.54.19,0,.35-.02.49-.1Zm-.6-2.29c.55-.73.69-1.22.72-2.31.03-1.24-.14-1.65-.42-1.65-.3,0-.58.28-.61,1.61-.02.84.08,1.62.32,2.36Z"/>
  <path class="cls-7" d="m46.77,8.24l-.58-.14,1.7-7.21c1.63.43,1.9,1.78,1.57,3.19-.32,1.36-1.06,2-2.27,2.37l-.42,1.78Zm2.09-4.2c.23-.99.14-2.03-.54-2.39l-1,4.27c.83-.35,1.31-.9,1.54-1.89Z"/>
  <path class="cls-7" d="m50.18,9.19l2.49-6.92.57.2-2.3,6.38.97.35-.19.53-1.54-.55Z"/>
  <path class="cls-7" d="m55.57,9.51l-.93-.47-1.12,1.5-.52-.26,4.78-6.2-2.22,7.5-.54-.27.54-1.79Zm-.66-.84l.8.4.74-2.4-.03-.02-1.5,2.01Z"/>
  <path class="cls-7" d="m57.04,12.49l3.7-5.65-.65-.43.33-.5,1.79,1.17-.33.5-.64-.42-3.7,5.65-.5-.32Z"/>
  <path class="cls-7" d="m59.84,14.52l4.32-5.2-.6-.5.38-.46,1.64,1.36-.38.46-.59-.49-4.32,5.2-.46-.38Z"/>
  <path class="cls-7" d="m62.09,16.54l5.31-5.09,1.05,1.09-.43.41-.63-.66-3.22,3.09.62.64-.33.31-.62-.64-.92.88.69.72-.41.39-1.11-1.15Z"/>
  <path class="cls-7" d="m64.74,19.56l-.35-.48,5.97-4.39c.96,1.38.29,2.59-.86,3.43-1,.73-1.85.82-2.82.52-.4,1.11-.59,2.24-.48,2.89l-.58-.8c-.05-.48.27-1.44.64-2.24l-.03-.02-1.47,1.08Zm4.32-1.85c.81-.59,1.42-1.45,1.13-2.16l-3.53,2.6c.85.27,1.58.17,2.41-.44Z"/>
  <path class="cls-7" d="m67.36,22.28c-.03.16-.02.29.08.49.32.59.9.62,1.6.24.41-.23.63-.47.84-.77.3-.44.56-1.01.78-1.38.25-.43.58-.81,1.12-1.1.9-.49,1.75-.39,2.13.32.14.26.12.43.12.53l-.53.29c.04-.1.03-.28-.08-.47-.23-.43-.73-.49-1.38-.13-.42.23-.64.49-.84.8-.26.4-.39.75-.66,1.22-.28.47-.57.89-1.21,1.24-.99.54-1.91.41-2.37-.43-.14-.26-.16-.44-.14-.55l.53-.29Z"/>
  <path class="cls-7" d="m10.81,67.24l4.11-4.49.93.85-.33.36-.56-.51-2.49,2.73.55.5-.25.28-.55-.5-.71.78.61.56-.32.35-.98-.89Z"/>
  <path class="cls-7" d="m13.44,69.5l3.7-4.84.4.3-3.41,4.46.68.52-.28.37-1.08-.82Z"/>
  <path class="cls-7" d="m16.16,71.46l3.26-5.14,1.06.67-.26.42-.64-.4-1.98,3.12.63.4-.2.32-.63-.4-.56.89.7.44-.25.4-1.12-.71Z"/>
  <path class="cls-7" d="m20.93,71.67h.03s2.36-3.16,2.36-3.16l.45.22-3.95,5.14,1.82-6.21.47.23-1.17,3.77Z"/>
  <path class="cls-7" d="m24.21,73.85l-.8-.32-.8,1.32-.45-.18,3.46-5.48-1.25,6.35-.46-.18.31-1.52Zm-.61-.64l.69.27.42-2.03h-.03s-1.08,1.76-1.08,1.76Z"/>
  <path class="cls-7" d="m26.31,76.17l1.59-5.37-.62-.18.14-.47,1.7.5-.14.47-.61-.18-1.59,5.37-.47-.14Z"/>
  <path class="cls-7" d="m29.31,76.96l1.24-5.96,1.23.26-.1.48-.74-.15-.75,3.62.72.15-.08.37-.72-.15-.21,1.03.81.17-.1.46-1.3-.27Z"/>
  <path class="cls-7" d="m33.44,71.48c1.38.21,1.69,1.67,1.5,3.29-.19,1.62-.82,2.97-2.21,2.84l.71-6.13Zm-.16,5.66c.64-.15,1.04-1.25,1.18-2.43.14-1.18,0-2.35-.59-2.65l-.59,5.08Z"/>
  <path class="cls-7" d="m40.28,71.75c.24,0,.38.03.46.11l.02.5c-.09-.08-.21-.13-.41-.12-.48.02-.7.78-.63,2.67.07,1.87.34,2.62.82,2.61.2,0,.32-.07.4-.15l.02.5c-.08.07-.21.12-.45.13-.78.03-1.21-.88-1.29-3.08-.08-2.2.29-3.15,1.06-3.17Z"/>
  <path class="cls-7" d="m43.61,77.67l-.49.06-.79-6.08c1.39-.14,1.99.83,2.14,2,.13,1.02-.14,1.67-.75,2.26.65.74,1.39,1.32,1.9,1.5l-.81.1c-.37-.16-.93-.77-1.37-1.36h-.03s.19,1.52.19,1.52Zm.39-3.87c-.11-.82-.48-1.61-1.11-1.68l.47,3.6c.54-.51.76-1.08.65-1.92Z"/>
  <path class="cls-7" d="m47.37,77.05l-1.34-5.94,1.22-.28.11.48-.74.17.81,3.61.72-.16.08.37-.72.16.23,1.03.81-.18.1.46-1.29.29Z"/>
  <path class="cls-7" d="m51.51,74.35l-.82.27.22,1.53-.46.15-.8-6.44,3.06,5.71-.47.15-.72-1.37Zm-.88-.11l.7-.23-.96-1.84h-.03s.29,2.07.29,2.07Z"/>
  <path class="cls-7" d="m54.59,74.83l-2.15-5.17-.6.25-.19-.45,1.63-.68.19.45-.58.24,2.15,5.17-.45.19Z"/>
  <path class="cls-7" d="m57.38,73.57l-2.74-5.44.45-.22,2.74,5.44-.45.22Z"/>
  <path class="cls-7" d="m60.7,71.83c-.57.35-1.36-.18-2.51-2.06-1.15-1.87-1.32-2.92-.75-3.27s1.42.28,2.57,2.15c1.15,1.88,1.27,2.83.69,3.18Zm-.25-.41c.33-.2-.01-1.11-.87-2.5s-1.56-2.19-1.89-2,.07,1.2.92,2.59c.85,1.39,1.51,2.11,1.84,1.91Z"/>
  <path class="cls-7" d="m61.6,66.73l-.02.02,2.21,2.9-.38.29-3.86-5.07,3.68,2.39.02-.02-2.33-3.07.37-.28,3.86,5.07-3.54-2.23Z"/>
  <path class="cls-7" d="m66.35,66.87c.13,0,.24-.04.38-.17.41-.38.32-.85-.13-1.33-.27-.29-.51-.41-.79-.52-.42-.16-.93-.25-1.27-.35-.39-.12-.77-.3-1.11-.67-.58-.63-.66-1.32-.17-1.78.18-.16.32-.19.4-.2l.34.37c-.09-.01-.23.03-.36.16-.3.28-.25.69.17,1.14.27.29.52.41.82.51.37.12.68.16,1.11.28.44.13.83.28,1.24.72.64.69.71,1.45.13,1.99-.18.16-.32.22-.41.22l-.34-.37Z"/>
</svg>