<?xml version="1.0" encoding="UTF-8"?>
<svg id="Layer_1" data-name="Layer 1" xmlns="http://www.w3.org/2000/svg" xmlns:xlink="http://www.w3.org/1999/xlink" viewBox="0 0 78 58.5">
  <defs>
    <style>
      .cls-1 {
        fill: #f05e22;
      }

      .cls-2 {
        fill: #b32425;
      }

      .cls-3 {
        fill: #ee4623;
      }

      .cls-4 {
        fill: #f05623;
      }

      .cls-5 {
        fill: #ed3424;
      }

      .cls-6 {
        fill: #c22425;
      }

      .cls-7 {
        fill: #fff;
      }

      .cls-8 {
        fill: #b62425;
      }

      .cls-9 {
        fill: #f05c22;
      }

      .cls-10 {
        fill: #f05922;
      }

      .cls-11 {
        fill: #f16222;
      }

      .cls-12 {
        fill: #ed3724;
      }

      .cls-13 {
        fill: #ef4a23;
      }

      .cls-14 {
        fill: #f16522;
      }

      .cls-15 {
        fill: #a82424;
      }

      .cls-16 {
        fill: #b52525;
      }

      .cls-17 {
        fill: #ee4323;
      }

      .cls-18 {
        fill: #ef4e23;
      }

      .cls-19 {
        fill: #b42525;
      }

      .cls-20 {
        fill: #ee3c23;
      }

      .cls-21 {
        fill: #ee3b24;
      }

      .cls-22 {
        fill: #ed2724;
      }

      .cls-23 {
        fill: #f16623;
      }

      .cls-24 {
        fill: #a92524;
      }

      .cls-25 {
        fill: #de1f26;
      }

      .cls-26 {
        fill: #b02524;
      }

      .cls-27 {
        fill: #ed2c24;
      }

      .cls-28 {
        fill: #ee4023;
      }

      .cls-29 {
        fill: #ef4c23;
      }

      .cls-30 {
        fill: #d32225;
      }

      .cls-31 {
        fill: #af2524;
      }

      .cls-32 {
        fill: #ed3024;
      }

      .cls-33 {
        fill: #a32424;
      }

      .cls-34 {
        fill: #f16422;
      }

      .cls-35 {
        clip-path: url(#clippath-2);
      }

      .cls-36 {
        fill: #ab2524;
      }

      .cls-37 {
        fill: #d52025;
      }

      .cls-38 {
        fill: #f05722;
      }

      .cls-39 {
        fill: #c22325;
      }

      .cls-40 {
        fill: #da1f24;
      }

      .cls-41 {
        fill: #a6a8ab;
      }

      .cls-42 {
        fill: #d72125;
      }

      .cls-43 {
        fill: #dc1f24;
      }

      .cls-44 {
        fill: #9f2423;
      }

      .cls-45 {
        fill: #bb2425;
      }

      .cls-46 {
        fill: #cc2225;
      }

      .cls-47 {
        clip-path: url(#clippath-6);
      }

      .cls-48 {
        fill: #b92425;
      }

      .cls-49 {
        fill: #ce2125;
      }

      .cls-50 {
        fill: #bf2425;
      }

      .cls-51 {
        fill: #a72424;
      }

      .cls-52 {
        fill: #be2425;
      }

      .cls-53 {
        fill: #ed2424;
      }

      .cls-54 {
        fill: #f05b22;
      }

      .cls-55 {
        fill: #f05822;
      }

      .cls-56 {
        fill: #ec2224;
      }

      .cls-57 {
        fill: #ee3a24;
      }

      .cls-58 {
        fill: #c82325;
      }

      .cls-59 {
        fill: #ed2924;
      }

      .cls-60 {
        fill: #d02125;
      }

      .cls-61 {
        fill: #ec1e27;
      }

      .cls-62 {
        fill: #f16122;
      }

      .cls-63 {
        clip-path: url(#clippath-1);
      }

      .cls-64 {
        clip-path: url(#clippath-4);
      }

      .cls-65 {
        fill: #ef5223;
      }

      .cls-66 {
        fill: #ef5323;
      }

      .cls-67 {
        fill: #e21e24;
      }

      .cls-68 {
        fill: #da1f25;
      }

      .cls-69 {
        fill: #d72124;
      }

      .cls-70 {
        fill: #ee3e23;
      }

      .cls-71 {
        fill: #c42325;
      }

      .cls-72 {
        fill: #d81f25;
      }

      .cls-73 {
        fill: #ee3d23;
      }

      .cls-74 {
        fill: #ac2424;
      }

      .cls-75 {
        fill: #ec1c24;
      }

      .cls-76 {
        fill: #e51c24;
      }

      .cls-77 {
        fill: #9e2423;
      }

      .cls-78 {
        fill: #e71c24;
      }

      .cls-79 {
        fill: #a62524;
      }

      .cls-80 {
        fill: #ed3324;
      }

      .cls-81 {
        fill: #de1f24;
      }

      .cls-82 {
        fill: #d12225;
      }

      .cls-83 {
        fill: #ee4523;
      }

      .cls-84 {
        fill: #f06022;
      }

      .cls-85 {
        fill: #c62325;
      }

      .cls-86 {
        fill: #e01e24;
      }

      .cls-87 {
        fill: #e41e24;
      }

      .cls-88 {
        fill: #ed2f24;
      }

      .cls-89 {
        fill: #ad2424;
      }

      .cls-90 {
        fill: #ee4823;
      }

      .cls-91 {
        fill: #ca2225;
      }

      .cls-92 {
        fill: #f05f22;
      }

      .cls-93 {
        fill: #ed3224;
      }

      .cls-94 {
        clip-path: url(#clippath);
      }

      .cls-95 {
        fill: #bd2425;
      }

      .cls-96 {
        fill: #f16322;
      }

      .cls-97 {
        fill: #aa2524;
      }

      .cls-98 {
        fill: #a12524;
      }

      .cls-99 {
        fill: #ae2424;
      }

      .cls-100 {
        fill: #c02325;
      }

      .cls-101 {
        fill: none;
      }

      .cls-102 {
        fill: #ef5423;
      }

      .cls-103 {
        clip-path: url(#clippath-3);
      }

      .cls-104 {
        fill: #c42425;
      }

      .cls-105 {
        fill: #ee4423;
      }

      .cls-106 {
        fill: #ef4b23;
      }

      .cls-107 {
        fill: #df1e24;
      }

      .cls-108 {
        fill: #ed2a24;
      }

      .cls-109 {
        fill: #ef5123;
      }

      .cls-110 {
        fill: #ef4d23;
      }

      .cls-111 {
        fill: #cd2325;
      }

      .cls-112 {
        fill: #b72425;
      }

      .cls-113 {
        fill: #b12424;
      }

      .cls-114 {
        fill: #ee4223;
      }

      .cls-115 {
        fill: #b82425;
      }

      .cls-116 {
        clip-path: url(#clippath-5);
      }

      .cls-117 {
        fill: #ee3824;
      }

      .cls-118 {
        fill: #a52524;
      }

      .cls-119 {
        fill: #f05523;
      }

      .cls-120 {
        fill: #f05a22;
      }

      .cls-121 {
        fill: #eb1c24;
      }

      .cls-122 {
        fill: #bc2425;
      }

      .cls-123 {
        fill: #a02523;
      }

      .cls-124 {
        fill: #cf2125;
      }

      .cls-125 {
        fill: #ec1e24;
      }

      .cls-126 {
        fill: #b12425;
      }

      .cls-127 {
        fill: #e11e24;
      }

      .cls-128 {
        fill: #d32025;
      }

      .cls-129 {
        fill: #231f20;
      }

      .cls-130 {
        fill: #ec2024;
      }

      .cls-131 {
        fill: #ef5023;
      }

      .cls-132 {
        fill: #ba2525;
      }

      .cls-133 {
        fill: #ee4723;
      }

      .cls-134 {
        fill: #ef4f23;
      }

      .cls-135 {
        fill: #e81c24;
      }

      .cls-136 {
        fill: #f6921e;
      }

      .cls-137 {
        fill: #f05d22;
      }
    </style>
    <clipPath id="clippath">
      <rect class="cls-101" width="78" height="58.5"/>
    </clipPath>
    <clipPath id="clippath-1">
      <path class="cls-101" d="m21.96,24.23c-.03.17-.05.33-.03.48.05.46.16.92.29,1.36.32,1.14.22,2.24-.31,3.29-.19.38-.47.71-.67,1.09.28-.81.43-1.62.1-2.37-.01-.03-.06-.04-.08,0-.2.34-.39.68-.6,1.01-.11.17-.25.33-.38.49-.81.96-1.12,2.09-1.04,3.33.11,1.73,1.31,3.02,2.98,3.2.04,0,.06-.04.04-.07-.47-.61-.91-1.23-1.05-2,0-.05.05-.08.08-.04.26.31.56.56.9.72.03.01.06,0,.06-.04.04-.52.05-1.05.13-1.56.08-.5.31-.95.67-1.37.03-.03.08,0,.08.04-.05.6-.02,1.14.2,1.66.29.68.99.78,1.47.21.12-.14.21-.31.31-.49.02-.04.08-.02.08.02.05,1.02-.27,1.87-1.01,2.54-.04.03,0,.1.04.08.43-.17.82-.41,1.18-.7.75-.62,1.03-1.42.87-2.37-.09-.51-.25-1.01-.37-1.52-.12-.48-.21-.96-.12-1.45.06-.36.2-.67.46-.98.03-.03,0-.09-.04-.07-.65.2-1.16.49-1.45,1.07-.02.04-.08.03-.08-.02-.01-.36-.01-.72-.01-1.07,0-1.23.2-2.14-1.36-3.06-1.03-.61-1.2-1.07-1.23-1.39,0-.03-.02-.04-.04-.04-.02,0-.04.01-.04.04"/>
    </clipPath>
    <clipPath id="clippath-2">
      <rect class="cls-101" x="19.16" y="24.19" width="7.27" height="11.91"/>
    </clipPath>
    <clipPath id="clippath-3">
      <rect class="cls-101" width="78" height="58.5"/>
    </clipPath>
    <clipPath id="clippath-4">
      <path class="cls-101" d="m54.89,24.23c-.03.33-.2.78-1.23,1.39-1.56.92-1.37,1.84-1.36,3.06,0,.35,0,.71-.01,1.07,0,.05-.06.06-.08.02-.29-.59-.8-.88-1.45-1.07-.04-.01-.07.04-.05.07.26.3.4.62.46.98.09.5,0,.98-.12,1.45-.12.51-.28,1.01-.37,1.52-.16.95.11,1.75.87,2.37.36.29.75.53,1.18.7.05.02.08-.04.04-.08-.75-.66-1.06-1.51-1.01-2.54,0-.04.06-.06.08-.02.1.18.19.34.31.49.48.57,1.17.47,1.47-.21.22-.51.26-1.05.2-1.66,0-.04.05-.07.08-.04.37.42.59.86.67,1.37.08.51.09,1.03.13,1.56,0,.03.03.05.06.04.34-.15.64-.41.9-.72.03-.04.08,0,.08.04-.15.77-.58,1.39-1.05,2-.02.03,0,.08.04.07,1.67-.18,2.87-1.47,2.98-3.2.08-1.24-.23-2.36-1.04-3.33-.13-.16-.27-.31-.38-.49-.21-.33-.4-.67-.6-1.01-.02-.03-.06-.03-.08,0-.33.76-.17,1.56.1,2.37-.2-.37-.48-.71-.67-1.09-.53-1.05-.63-2.15-.31-3.29.12-.45.23-.9.29-1.36.02-.15,0-.31-.03-.48,0-.03-.02-.04-.04-.04s-.04.01-.04.04"/>
    </clipPath>
    <clipPath id="clippath-5">
      <rect class="cls-101" x="50.51" y="24.19" width="7.27" height="11.91"/>
    </clipPath>
    <clipPath id="clippath-6">
      <rect class="cls-101" width="78" height="58.5"/>
    </clipPath>
  </defs>
  <g class="cls-94">
    <path class="cls-41" d="m43.76,16.01c.2.08.39.17.58.27v-1.87c-.19-.06-.39-.13-.58-.19v1.79Z"/>
    <path class="cls-41" d="m43.76,42.59c.2-.05.39-.11.58-.16v-10.4c-.19.1-.39.2-.58.28v10.28Z"/>
    <path class="cls-41" d="m45.07,16.7c.2.13.4.28.58.43v-2.22c-.19-.08-.39-.17-.58-.24v2.03Z"/>
    <path class="cls-41" d="m45.07,42.2c.2-.07.39-.14.58-.21v-10.85c-.19.16-.38.31-.58.45v10.61Z"/>
    <path class="cls-41" d="m46.48,17.89c.21.22.4.45.58.69v-2.99c-.19-.11-.39-.21-.58-.31v2.6Z"/>
    <path class="cls-41" d="m46.48,41.66c.2-.09.39-.17.58-.26v-11.76c-.18.25-.38.49-.58.71v11.31Z"/>
    <path class="cls-41" d="m47.83,41.01c.2-.11.39-.21.58-.32v-13.77c-.16.51-.35.99-.58,1.45v12.64Z"/>
    <path class="cls-41" d="m47.83,19.82c.23.45.43.93.58,1.43v-4.82c-.19-.13-.38-.26-.58-.38v3.77Z"/>
    <path class="cls-41" d="m49.1,16.92v23.36c.2-.13.4-.26.58-.39v-22.51c-.19-.15-.38-.31-.58-.46"/>
    <path class="cls-25" d="m19.9,27.43c.04.15.08.3.1.44.04.34-.04.64-.21.88-.14.22-.3.42-.47.62-.27.33-.41.52-.56,1.16-.32,1.47.6,2.85.15,2.82-1.29-2.04-1.53-2.56-1.74-3.38-.15-.57-.08-1.1.1-1.6.13-.37.29-.72.44-1.08.05-.12.1-.24.14-.37.13-.42.17-.86-.05-1.33.25.11.48.51.49.87,0,.16-.01.31-.02.47,0,.25.08.42.24.5.17.08.37,0,.44-.21.05-.14.07-.31.04-.47-.11-.75-.14-1.49.07-2.18.24-.81.74-1.32,1.44-1.66-.08.17-.14.31-.2.44-.23.54-.25,1.14-.12,1.76.04.17.11.35.21.5-.04.56-1.45-1.84-.5,1.81"/>
  </g>
  <g class="cls-63">
    <g class="cls-35">
      <rect class="cls-77" x="19.16" y="35.28" width="7.27" height=".82"/>
      <rect class="cls-77" x="19.16" y="35.23" width="7.27" height=".05"/>
      <rect class="cls-44" x="19.16" y="35.18" width="7.27" height=".05"/>
      <rect class="cls-123" x="19.16" y="35.13" width="7.27" height=".05"/>
      <rect class="cls-98" x="19.16" y="35.08" width="7.27" height=".05"/>
      <rect class="cls-98" x="19.16" y="35.03" width="7.27" height=".05"/>
      <rect class="cls-33" x="19.16" y="34.98" width="7.27" height=".05"/>
      <rect class="cls-33" x="19.16" y="34.93" width="7.27" height=".05"/>
      <rect class="cls-118" x="19.16" y="34.87" width="7.27" height=".05"/>
      <rect class="cls-118" x="19.16" y="34.82" width="7.27" height=".05"/>
      <rect class="cls-79" x="19.16" y="34.77" width="7.27" height=".05"/>
      <rect class="cls-51" x="19.16" y="34.72" width="7.27" height=".05"/>
      <rect class="cls-15" x="19.16" y="34.67" width="7.27" height=".05"/>
      <rect class="cls-24" x="19.16" y="34.62" width="7.27" height=".05"/>
      <rect class="cls-97" x="19.16" y="34.57" width="7.27" height=".05"/>
      <rect class="cls-36" x="19.16" y="34.52" width="7.27" height=".05"/>
      <rect class="cls-74" x="19.16" y="34.47" width="7.27" height=".05"/>
      <rect class="cls-89" x="19.16" y="34.42" width="7.27" height=".05"/>
      <rect class="cls-99" x="19.16" y="34.37" width="7.27" height=".05"/>
      <rect class="cls-31" x="19.16" y="34.31" width="7.27" height=".05"/>
      <rect class="cls-26" x="19.16" y="34.26" width="7.27" height=".05"/>
      <rect class="cls-126" x="19.16" y="34.21" width="7.27" height=".05"/>
      <rect class="cls-113" x="19.16" y="34.16" width="7.27" height=".05"/>
      <rect class="cls-2" x="19.16" y="34.11" width="7.27" height=".05"/>
      <rect class="cls-19" x="19.16" y="34.06" width="7.27" height=".05"/>
      <rect class="cls-16" x="19.16" y="34.01" width="7.27" height=".05"/>
      <rect class="cls-8" x="19.16" y="33.96" width="7.27" height=".05"/>
      <rect class="cls-112" x="19.16" y="33.91" width="7.27" height=".05"/>
      <rect class="cls-115" x="19.16" y="33.86" width="7.27" height=".05"/>
      <rect class="cls-48" x="19.16" y="33.8" width="7.27" height=".05"/>
      <rect class="cls-132" x="19.16" y="33.75" width="7.27" height=".05"/>
      <rect class="cls-45" x="19.16" y="33.7" width="7.27" height=".05"/>
      <rect class="cls-122" x="19.16" y="33.65" width="7.27" height=".05"/>
      <rect class="cls-95" x="19.16" y="33.6" width="7.27" height=".05"/>
      <rect class="cls-52" x="19.16" y="33.55" width="7.27" height=".05"/>
      <rect class="cls-50" x="19.16" y="33.5" width="7.27" height=".05"/>
      <rect class="cls-100" x="19.16" y="33.45" width="7.27" height=".05"/>
      <rect class="cls-100" x="19.16" y="33.4" width="7.27" height=".05"/>
      <rect class="cls-39" x="19.16" y="33.35" width="7.27" height=".05"/>
      <rect class="cls-6" x="19.16" y="33.3" width="7.27" height=".05"/>
      <rect class="cls-104" x="19.16" y="33.24" width="7.27" height=".05"/>
      <rect class="cls-71" x="19.16" y="33.19" width="7.27" height=".05"/>
      <rect class="cls-85" x="19.16" y="33.14" width="7.27" height=".05"/>
      <rect class="cls-85" x="19.16" y="33.09" width="7.27" height=".05"/>
      <rect class="cls-58" x="19.16" y="33.04" width="7.27" height=".05"/>
      <rect class="cls-58" x="19.16" y="32.99" width="7.27" height=".05"/>
      <rect class="cls-91" x="19.16" y="32.94" width="7.27" height=".05"/>
      <rect class="cls-91" x="19.16" y="32.89" width="7.27" height=".05"/>
      <rect class="cls-46" x="19.16" y="32.84" width="7.27" height=".05"/>
      <rect class="cls-46" x="19.16" y="32.79" width="7.27" height=".05"/>
      <rect class="cls-111" x="19.16" y="32.74" width="7.27" height=".05"/>
      <rect class="cls-49" x="19.16" y="32.68" width="7.27" height=".05"/>
      <rect class="cls-124" x="19.16" y="32.63" width="7.27" height=".05"/>
      <rect class="cls-60" x="19.16" y="32.58" width="7.27" height=".05"/>
      <rect class="cls-82" x="19.16" y="32.53" width="7.27" height=".05"/>
      <rect class="cls-30" x="19.16" y="32.48" width="7.27" height=".05"/>
      <rect class="cls-128" x="19.16" y="32.43" width="7.27" height=".05"/>
      <rect class="cls-37" x="19.16" y="32.38" width="7.27" height=".05"/>
      <rect class="cls-37" x="19.16" y="32.33" width="7.27" height=".05"/>
      <rect class="cls-69" x="19.16" y="32.28" width="7.27" height=".05"/>
      <rect class="cls-42" x="19.16" y="32.23" width="7.27" height=".05"/>
      <rect class="cls-72" x="19.16" y="32.18" width="7.27" height=".05"/>
      <rect class="cls-40" x="19.16" y="32.12" width="7.27" height=".05"/>
      <rect class="cls-68" x="19.16" y="32.07" width="7.27" height=".05"/>
      <rect class="cls-43" x="19.16" y="32.02" width="7.27" height=".05"/>
      <rect class="cls-43" x="19.16" y="31.97" width="7.27" height=".05"/>
      <rect class="cls-81" x="19.16" y="31.92" width="7.27" height=".05"/>
      <rect class="cls-107" x="19.16" y="31.87" width="7.27" height=".05"/>
      <rect class="cls-86" x="19.16" y="31.82" width="7.27" height=".05"/>
      <rect class="cls-127" x="19.16" y="31.77" width="7.27" height=".05"/>
      <rect class="cls-67" x="19.16" y="31.72" width="7.27" height=".05"/>
      <rect class="cls-87" x="19.16" y="31.67" width="7.27" height=".05"/>
      <rect class="cls-76" x="19.16" y="31.62" width="7.27" height=".05"/>
      <rect class="cls-78" x="19.16" y="31.56" width="7.27" height=".05"/>
      <rect class="cls-135" x="19.16" y="31.51" width="7.27" height=".05"/>
      <rect class="cls-121" x="19.16" y="31.46" width="7.27" height=".05"/>
      <rect class="cls-75" x="19.16" y="31.41" width="7.27" height=".05"/>
      <rect class="cls-75" x="19.16" y="31.36" width="7.27" height=".05"/>
      <rect class="cls-75" x="19.16" y="31.31" width="7.27" height=".05"/>
      <rect class="cls-125" x="19.16" y="31.26" width="7.27" height=".05"/>
      <rect class="cls-130" x="19.16" y="31.22" width="7.27" height=".05"/>
      <rect class="cls-56" x="19.16" y="31.17" width="7.27" height=".05"/>
      <rect class="cls-53" x="19.16" y="31.12" width="7.27" height=".05"/>
      <rect class="cls-22" x="19.16" y="31.07" width="7.27" height=".05"/>
      <rect class="cls-59" x="19.16" y="31.02" width="7.27" height=".05"/>
      <rect class="cls-108" x="19.16" y="30.98" width="7.27" height=".05"/>
      <rect class="cls-27" x="19.16" y="30.93" width="7.27" height=".05"/>
      <rect class="cls-88" x="19.16" y="30.88" width="7.27" height=".05"/>
      <rect class="cls-32" x="19.16" y="30.83" width="7.27" height=".05"/>
      <rect class="cls-93" x="19.16" y="30.78" width="7.27" height=".05"/>
      <rect class="cls-80" x="19.16" y="30.73" width="7.27" height=".05"/>
      <rect class="cls-5" x="19.16" y="30.69" width="7.27" height=".05"/>
      <rect class="cls-12" x="19.16" y="30.64" width="7.27" height=".05"/>
      <rect class="cls-117" x="19.16" y="30.59" width="7.27" height=".05"/>
      <rect class="cls-57" x="19.16" y="30.54" width="7.27" height=".05"/>
      <rect class="cls-21" x="19.16" y="30.49" width="7.27" height=".05"/>
      <rect class="cls-20" x="19.16" y="30.45" width="7.27" height=".05"/>
      <rect class="cls-73" x="19.16" y="30.4" width="7.27" height=".05"/>
      <rect class="cls-70" x="19.16" y="30.35" width="7.27" height=".05"/>
      <rect class="cls-28" x="19.16" y="30.3" width="7.27" height=".05"/>
      <rect class="cls-114" x="19.16" y="30.25" width="7.27" height=".05"/>
      <rect class="cls-17" x="19.16" y="30.2" width="7.27" height=".05"/>
      <rect class="cls-105" x="19.16" y="30.16" width="7.27" height=".05"/>
      <rect class="cls-83" x="19.16" y="30.11" width="7.27" height=".05"/>
      <rect class="cls-3" x="19.16" y="30.06" width="7.27" height=".05"/>
      <rect class="cls-133" x="19.16" y="30.01" width="7.27" height=".05"/>
      <rect class="cls-90" x="19.16" y="29.96" width="7.27" height=".05"/>
      <rect class="cls-13" x="19.16" y="29.92" width="7.27" height=".05"/>
      <rect class="cls-106" x="19.16" y="29.87" width="7.27" height=".05"/>
      <rect class="cls-29" x="19.16" y="29.82" width="7.27" height=".05"/>
      <rect class="cls-110" x="19.16" y="29.77" width="7.27" height=".05"/>
      <rect class="cls-18" x="19.16" y="29.72" width="7.27" height=".05"/>
      <rect class="cls-134" x="19.16" y="29.67" width="7.27" height=".05"/>
      <rect class="cls-131" x="19.16" y="29.63" width="7.27" height=".05"/>
      <rect class="cls-109" x="19.16" y="29.58" width="7.27" height=".05"/>
      <rect class="cls-65" x="19.16" y="29.53" width="7.27" height=".05"/>
      <rect class="cls-66" x="19.16" y="29.48" width="7.27" height=".05"/>
      <rect class="cls-102" x="19.16" y="29.43" width="7.27" height=".05"/>
      <rect class="cls-119" x="19.16" y="29.39" width="7.27" height=".05"/>
      <rect class="cls-4" x="19.16" y="29.34" width="7.27" height=".05"/>
      <rect class="cls-38" x="19.16" y="29.29" width="7.27" height=".05"/>
      <rect class="cls-55" x="19.16" y="29.24" width="7.27" height=".05"/>
      <rect class="cls-55" x="19.16" y="29.19" width="7.27" height=".05"/>
      <rect class="cls-10" x="19.16" y="29.14" width="7.27" height=".05"/>
      <rect class="cls-120" x="19.16" y="29.1" width="7.27" height=".05"/>
      <rect class="cls-54" x="19.16" y="29.05" width="7.27" height=".05"/>
      <rect class="cls-9" x="19.16" y="29" width="7.27" height=".05"/>
      <rect class="cls-9" x="19.16" y="28.95" width="7.27" height=".05"/>
      <rect class="cls-137" x="19.16" y="28.9" width="7.27" height=".05"/>
      <rect class="cls-1" x="19.16" y="28.86" width="7.27" height=".05"/>
      <rect class="cls-92" x="19.16" y="28.81" width="7.27" height=".05"/>
      <rect class="cls-84" x="19.16" y="28.76" width="7.27" height=".05"/>
      <rect class="cls-84" x="19.16" y="28.71" width="7.27" height=".05"/>
      <rect class="cls-84" x="19.16" y="28.66" width="7.27" height=".05"/>
      <rect class="cls-62" x="19.16" y="28.61" width="7.27" height=".05"/>
      <rect class="cls-11" x="19.16" y="28.57" width="7.27" height=".05"/>
      <rect class="cls-96" x="19.16" y="28.52" width="7.27" height=".05"/>
      <rect class="cls-96" x="19.16" y="28.47" width="7.27" height=".05"/>
      <rect class="cls-34" x="19.16" y="28.42" width="7.27" height=".05"/>
      <rect class="cls-14" x="19.16" y="28.37" width="7.27" height=".05"/>
      <rect class="cls-14" x="19.16" y="28.33" width="7.27" height=".05"/>
      <rect class="cls-14" x="19.16" y="28.28" width="7.27" height=".05"/>
      <rect class="cls-14" x="19.16" y="24.19" width="7.27" height="4.09"/>
    </g>
  </g>
  <g class="cls-103">
    <path class="cls-136" d="m21.69,25.5c-.26-.85-.86-1.57-.19-2.7.74-1.25-.32.03-.32.03,0,0-.57.74-.27,2.2.27,1.15.09,1.55,0,1.79,0,0-.34.82-.12.55.13-.16.5-.35.75-.67.07.08.1.24.03.54-.19.77.57-.41.12-1.73"/>
    <path class="cls-75" d="m26.12,23.61s-1.18.79-.71,2.13c.47,1.34.39,1.85-.11,2.8,0,0,.25-1.16-.24-2.16-.49-1-.12-2.26,1.06-2.77"/>
    <path class="cls-25" d="m57.04,27.43c-.04.15-.08.3-.1.44-.04.34.04.64.21.88.14.22.3.42.47.62.27.33.41.52.56,1.16.32,1.47-.6,2.85-.15,2.82,1.29-2.04,1.53-2.56,1.74-3.38.15-.57.08-1.1-.1-1.6-.13-.37-.29-.72-.44-1.08-.05-.12-.1-.24-.14-.37-.13-.42-.17-.86.05-1.33-.25.11-.48.51-.49.87,0,.16.01.31.02.47,0,.25-.08.42-.24.5-.17.08-.37,0-.44-.21-.05-.14-.07-.31-.04-.47.11-.75.14-1.49-.07-2.18-.24-.81-.74-1.32-1.44-1.66.08.17.14.31.2.44.23.54.25,1.14.12,1.76-.04.17-.11.35-.21.5.04.56,1.45-1.84.5,1.81"/>
  </g>
  <g class="cls-64">
    <g class="cls-116">
      <rect class="cls-77" x="50.51" y="35.28" width="7.27" height=".82"/>
      <rect class="cls-77" x="50.51" y="35.23" width="7.27" height=".05"/>
      <rect class="cls-44" x="50.51" y="35.18" width="7.27" height=".05"/>
      <rect class="cls-123" x="50.51" y="35.13" width="7.27" height=".05"/>
      <rect class="cls-98" x="50.51" y="35.08" width="7.27" height=".05"/>
      <rect class="cls-98" x="50.51" y="35.03" width="7.27" height=".05"/>
      <rect class="cls-33" x="50.51" y="34.98" width="7.27" height=".05"/>
      <rect class="cls-33" x="50.51" y="34.93" width="7.27" height=".05"/>
      <rect class="cls-118" x="50.51" y="34.87" width="7.27" height=".05"/>
      <rect class="cls-118" x="50.51" y="34.82" width="7.27" height=".05"/>
      <rect class="cls-79" x="50.51" y="34.77" width="7.27" height=".05"/>
      <rect class="cls-51" x="50.51" y="34.72" width="7.27" height=".05"/>
      <rect class="cls-15" x="50.51" y="34.67" width="7.27" height=".05"/>
      <rect class="cls-24" x="50.51" y="34.62" width="7.27" height=".05"/>
      <rect class="cls-97" x="50.51" y="34.57" width="7.27" height=".05"/>
      <rect class="cls-36" x="50.51" y="34.52" width="7.27" height=".05"/>
      <rect class="cls-74" x="50.51" y="34.47" width="7.27" height=".05"/>
      <rect class="cls-89" x="50.51" y="34.42" width="7.27" height=".05"/>
      <rect class="cls-99" x="50.51" y="34.37" width="7.27" height=".05"/>
      <rect class="cls-31" x="50.51" y="34.31" width="7.27" height=".05"/>
      <rect class="cls-26" x="50.51" y="34.26" width="7.27" height=".05"/>
      <rect class="cls-126" x="50.51" y="34.21" width="7.27" height=".05"/>
      <rect class="cls-113" x="50.51" y="34.16" width="7.27" height=".05"/>
      <rect class="cls-2" x="50.51" y="34.11" width="7.27" height=".05"/>
      <rect class="cls-19" x="50.51" y="34.06" width="7.27" height=".05"/>
      <rect class="cls-16" x="50.51" y="34.01" width="7.27" height=".05"/>
      <rect class="cls-8" x="50.51" y="33.96" width="7.27" height=".05"/>
      <rect class="cls-112" x="50.51" y="33.91" width="7.27" height=".05"/>
      <rect class="cls-115" x="50.51" y="33.86" width="7.27" height=".05"/>
      <rect class="cls-48" x="50.51" y="33.8" width="7.27" height=".05"/>
      <rect class="cls-132" x="50.51" y="33.75" width="7.27" height=".05"/>
      <rect class="cls-45" x="50.51" y="33.7" width="7.27" height=".05"/>
      <rect class="cls-122" x="50.51" y="33.65" width="7.27" height=".05"/>
      <rect class="cls-95" x="50.51" y="33.6" width="7.27" height=".05"/>
      <rect class="cls-52" x="50.51" y="33.55" width="7.27" height=".05"/>
      <rect class="cls-50" x="50.51" y="33.5" width="7.27" height=".05"/>
      <rect class="cls-100" x="50.51" y="33.45" width="7.27" height=".05"/>
      <rect class="cls-100" x="50.51" y="33.4" width="7.27" height=".05"/>
      <rect class="cls-39" x="50.51" y="33.35" width="7.27" height=".05"/>
      <rect class="cls-6" x="50.51" y="33.3" width="7.27" height=".05"/>
      <rect class="cls-104" x="50.51" y="33.24" width="7.27" height=".05"/>
      <rect class="cls-71" x="50.51" y="33.19" width="7.27" height=".05"/>
      <rect class="cls-85" x="50.51" y="33.14" width="7.27" height=".05"/>
      <rect class="cls-85" x="50.51" y="33.09" width="7.27" height=".05"/>
      <rect class="cls-58" x="50.51" y="33.04" width="7.27" height=".05"/>
      <rect class="cls-58" x="50.51" y="32.99" width="7.27" height=".05"/>
      <rect class="cls-91" x="50.51" y="32.94" width="7.27" height=".05"/>
      <rect class="cls-91" x="50.51" y="32.89" width="7.27" height=".05"/>
      <rect class="cls-46" x="50.51" y="32.84" width="7.27" height=".05"/>
      <rect class="cls-46" x="50.51" y="32.79" width="7.27" height=".05"/>
      <rect class="cls-111" x="50.51" y="32.74" width="7.27" height=".05"/>
      <rect class="cls-49" x="50.51" y="32.68" width="7.27" height=".05"/>
      <rect class="cls-124" x="50.51" y="32.63" width="7.27" height=".05"/>
      <rect class="cls-60" x="50.51" y="32.58" width="7.27" height=".05"/>
      <rect class="cls-82" x="50.51" y="32.53" width="7.27" height=".05"/>
      <rect class="cls-30" x="50.51" y="32.48" width="7.27" height=".05"/>
      <rect class="cls-128" x="50.51" y="32.43" width="7.27" height=".05"/>
      <rect class="cls-37" x="50.51" y="32.38" width="7.27" height=".05"/>
      <rect class="cls-37" x="50.51" y="32.33" width="7.27" height=".05"/>
      <rect class="cls-69" x="50.51" y="32.28" width="7.27" height=".05"/>
      <rect class="cls-42" x="50.51" y="32.23" width="7.27" height=".05"/>
      <rect class="cls-72" x="50.51" y="32.18" width="7.27" height=".05"/>
      <rect class="cls-40" x="50.51" y="32.12" width="7.27" height=".05"/>
      <rect class="cls-68" x="50.51" y="32.07" width="7.27" height=".05"/>
      <rect class="cls-43" x="50.51" y="32.02" width="7.27" height=".05"/>
      <rect class="cls-43" x="50.51" y="31.97" width="7.27" height=".05"/>
      <rect class="cls-81" x="50.51" y="31.92" width="7.27" height=".05"/>
      <rect class="cls-107" x="50.51" y="31.87" width="7.27" height=".05"/>
      <rect class="cls-86" x="50.51" y="31.82" width="7.27" height=".05"/>
      <rect class="cls-127" x="50.51" y="31.77" width="7.27" height=".05"/>
      <rect class="cls-67" x="50.51" y="31.72" width="7.27" height=".05"/>
      <rect class="cls-87" x="50.51" y="31.67" width="7.27" height=".05"/>
      <rect class="cls-76" x="50.51" y="31.62" width="7.27" height=".05"/>
      <rect class="cls-78" x="50.51" y="31.56" width="7.27" height=".05"/>
      <rect class="cls-135" x="50.51" y="31.51" width="7.27" height=".05"/>
      <rect class="cls-121" x="50.51" y="31.46" width="7.27" height=".05"/>
      <rect class="cls-75" x="50.51" y="31.41" width="7.27" height=".05"/>
      <rect class="cls-75" x="50.51" y="31.36" width="7.27" height=".05"/>
      <rect class="cls-75" x="50.51" y="31.31" width="7.27" height=".05"/>
      <rect class="cls-125" x="50.51" y="31.26" width="7.27" height=".05"/>
      <rect class="cls-130" x="50.51" y="31.22" width="7.27" height=".05"/>
      <rect class="cls-56" x="50.51" y="31.17" width="7.27" height=".05"/>
      <rect class="cls-53" x="50.51" y="31.12" width="7.27" height=".05"/>
      <rect class="cls-22" x="50.51" y="31.07" width="7.27" height=".05"/>
      <rect class="cls-59" x="50.51" y="31.02" width="7.27" height=".05"/>
      <rect class="cls-108" x="50.51" y="30.98" width="7.27" height=".05"/>
      <rect class="cls-27" x="50.51" y="30.93" width="7.27" height=".05"/>
      <rect class="cls-88" x="50.51" y="30.88" width="7.27" height=".05"/>
      <rect class="cls-32" x="50.51" y="30.83" width="7.27" height=".05"/>
      <rect class="cls-93" x="50.51" y="30.78" width="7.27" height=".05"/>
      <rect class="cls-80" x="50.51" y="30.73" width="7.27" height=".05"/>
      <rect class="cls-5" x="50.51" y="30.69" width="7.27" height=".05"/>
      <rect class="cls-12" x="50.51" y="30.64" width="7.27" height=".05"/>
      <rect class="cls-117" x="50.51" y="30.59" width="7.27" height=".05"/>
      <rect class="cls-57" x="50.51" y="30.54" width="7.27" height=".05"/>
      <rect class="cls-21" x="50.51" y="30.49" width="7.27" height=".05"/>
      <rect class="cls-20" x="50.51" y="30.45" width="7.27" height=".05"/>
      <rect class="cls-73" x="50.51" y="30.4" width="7.27" height=".05"/>
      <rect class="cls-70" x="50.51" y="30.35" width="7.27" height=".05"/>
      <rect class="cls-28" x="50.51" y="30.3" width="7.27" height=".05"/>
      <rect class="cls-114" x="50.51" y="30.25" width="7.27" height=".05"/>
      <rect class="cls-17" x="50.51" y="30.2" width="7.27" height=".05"/>
      <rect class="cls-105" x="50.51" y="30.16" width="7.27" height=".05"/>
      <rect class="cls-83" x="50.51" y="30.11" width="7.27" height=".05"/>
      <rect class="cls-3" x="50.51" y="30.06" width="7.27" height=".05"/>
      <rect class="cls-133" x="50.51" y="30.01" width="7.27" height=".05"/>
      <rect class="cls-90" x="50.51" y="29.96" width="7.27" height=".05"/>
      <rect class="cls-13" x="50.51" y="29.92" width="7.27" height=".05"/>
      <rect class="cls-106" x="50.51" y="29.87" width="7.27" height=".05"/>
      <rect class="cls-29" x="50.51" y="29.82" width="7.27" height=".05"/>
      <rect class="cls-110" x="50.51" y="29.77" width="7.27" height=".05"/>
      <rect class="cls-18" x="50.51" y="29.72" width="7.27" height=".05"/>
      <rect class="cls-134" x="50.51" y="29.67" width="7.27" height=".05"/>
      <rect class="cls-131" x="50.51" y="29.63" width="7.27" height=".05"/>
      <rect class="cls-109" x="50.51" y="29.58" width="7.27" height=".05"/>
      <rect class="cls-65" x="50.51" y="29.53" width="7.27" height=".05"/>
      <rect class="cls-66" x="50.51" y="29.48" width="7.27" height=".05"/>
      <rect class="cls-102" x="50.51" y="29.43" width="7.27" height=".05"/>
      <rect class="cls-119" x="50.51" y="29.39" width="7.27" height=".05"/>
      <rect class="cls-4" x="50.51" y="29.34" width="7.27" height=".05"/>
      <rect class="cls-38" x="50.51" y="29.29" width="7.27" height=".05"/>
      <rect class="cls-55" x="50.51" y="29.24" width="7.27" height=".05"/>
      <rect class="cls-55" x="50.51" y="29.19" width="7.27" height=".05"/>
      <rect class="cls-10" x="50.51" y="29.14" width="7.27" height=".05"/>
      <rect class="cls-120" x="50.51" y="29.1" width="7.27" height=".05"/>
      <rect class="cls-54" x="50.51" y="29.05" width="7.27" height=".05"/>
      <rect class="cls-9" x="50.51" y="29" width="7.27" height=".05"/>
      <rect class="cls-9" x="50.51" y="28.95" width="7.27" height=".05"/>
      <rect class="cls-137" x="50.51" y="28.9" width="7.27" height=".05"/>
      <rect class="cls-1" x="50.51" y="28.86" width="7.27" height=".05"/>
      <rect class="cls-92" x="50.51" y="28.81" width="7.27" height=".05"/>
      <rect class="cls-84" x="50.51" y="28.76" width="7.27" height=".05"/>
      <rect class="cls-84" x="50.51" y="28.71" width="7.27" height=".05"/>
      <rect class="cls-84" x="50.51" y="28.66" width="7.27" height=".05"/>
      <rect class="cls-62" x="50.51" y="28.61" width="7.27" height=".05"/>
      <rect class="cls-11" x="50.51" y="28.57" width="7.27" height=".05"/>
      <rect class="cls-96" x="50.51" y="28.52" width="7.27" height=".05"/>
      <rect class="cls-96" x="50.51" y="28.47" width="7.27" height=".05"/>
      <rect class="cls-34" x="50.51" y="28.42" width="7.27" height=".05"/>
      <rect class="cls-14" x="50.51" y="28.37" width="7.27" height=".05"/>
      <rect class="cls-14" x="50.51" y="28.33" width="7.27" height=".05"/>
      <rect class="cls-14" x="50.51" y="28.28" width="7.27" height=".05"/>
      <rect class="cls-14" x="50.51" y="24.19" width="7.27" height="4.09"/>
    </g>
  </g>
  <g class="cls-47">
    <path class="cls-136" d="m55.25,25.5c.26-.85.86-1.57.19-2.7-.74-1.25.32.03.32.03,0,0,.57.74.27,2.2-.27,1.15-.09,1.55,0,1.79,0,0,.34.82.12.55-.13-.16-.5-.35-.75-.67-.07.08-.1.24-.03.54.19.77-.57-.41-.12-1.73"/>
    <path class="cls-75" d="m50.82,23.61s1.18.79.71,2.13c-.47,1.34-.39,1.85.11,2.8,0,0-.25-1.16.24-2.16.49-1,.12-2.26-1.06-2.77"/>
    <path class="cls-61" d="m43.01,42.74v-10.65c.8-.45,1.5-.94,2.12-1.47.62-.53,1.13-1.12,1.54-1.77.41-.65.72-1.37.93-2.16.21-.79.32-1.69.32-2.7s-.12-2.04-.35-2.97c-.23-.94-.61-1.76-1.12-2.47-.52-.71-1.2-1.28-2.06-1.72-.85-.43-1.9-.67-3.14-.7v26.92h0v2.14c5.63-.87,10.34-4.54,12.61-9.53,0,0-3.17,5.5-10.86,7.11m0-24.79c.56.14,1.03.41,1.43.81.4.4.73.88.99,1.45.26.57.45,1.2.57,1.91.12.7.18,1.42.18,2.14,0,1.46-.26,2.68-.78,3.66-.52.98-1.31,1.85-2.39,2.61v-12.57Z"/>
    <path class="cls-129" d="m39.59,13.52s.05,0,.08,0c.26.02-7.88-.68-.08,0"/>
    <path class="cls-41" d="m32.68,14.3c-.12.04-.22.09-.34.14v27.99c.19.05.37.1.56.15V14.22c-.08.03-.15.05-.23.08"/>
    <path class="cls-41" d="m31.08,14.99v27.01c.19.07.37.13.56.2V14.73c-.11.05-.22.1-.33.15-.08.04-.15.08-.23.11"/>
    <path class="cls-41" d="m29.73,41.44c.18.09.37.17.56.25V15.41c-.19.11-.38.22-.56.33v25.69Z"/>
    <path class="cls-41" d="m28.42,40.76c.18.1.37.21.56.31v-24.83c-.19.13-.38.27-.56.41v24.12Z"/>
    <path class="cls-41" d="m27.2,40c.18.13.37.25.56.37v-23.2c-.2.16-.38.33-.56.49v22.34Z"/>
    <path class="cls-23" d="m35.83,43.8h0v-11.71c.8-.45,1.5-.94,2.12-1.47.62-.53,1.13-1.12,1.54-1.77.41-.65.72-1.37.93-2.16.21-.79.32-1.69.32-2.7s-.12-2.04-.35-2.97c-.23-.94-.61-1.76-1.12-2.47-.52-.71-1.2-1.28-2.06-1.72-.85-.43-1.9-.67-3.14-.7v26.63c-.26-.05-.51-.11-.76-.18-.19-.05-.38-.1-.56-.15-.24-.07-.47-.14-.7-.21-.19-.06-.38-.13-.56-.2-.27-.1-.54-.2-.79-.31-.19-.08-.38-.16-.56-.25-.26-.12-.5-.24-.75-.37-.19-.1-.38-.2-.56-.3-.23-.13-.45-.26-.66-.39-.19-.12-.38-.24-.56-.37-3.05-2.07-4.39-4.39-4.39-4.39,1.02,2.24,2.53,4.21,4.39,5.78.18.16.37.31.56.46.21.17.43.33.66.48.19.13.37.26.56.38,1.91,1.22,4.09,2.07,6.44,2.43v-1.37Zm0-25.85c.56.14,1.03.41,1.43.81.4.4.73.88.99,1.45.26.57.45,1.2.57,1.91.12.7.18,1.42.18,2.14,0,1.46-.26,2.68-.78,3.66-.52.98-1.31,1.85-2.39,2.61v-12.57Z"/>
    <path class="cls-41" d="m47.05,14.69c-.24-.14-.48-.28-.73-.41-.24-.13-.49-.24-.74-.36-.24-.11-.49-.21-.73-.31-.25-.1-.49-.19-.74-.28-.21-.07-.41-.14-.62-.2-1.53-.46-3.16-.71-4.85-.71s-3.41.27-4.98.76c-.22.07-.44.14-.66.22-.22.08-.45.17-.67.26-.25.1-.49.21-.73.32-.22.1-.43.2-.64.31-.02,0-.03.02-.05.03-.06.03-.12.07-.18.1-.17.09-.34.18-.5.28-.1.06-.19.12-.29.18-.19.12-.38.24-.56.36-.25.17-.5.34-.75.52-.19.14-.38.29-.56.44-.22.18-.44.37-.66.57-.19.17-.38.35-.56.54-1.43,1.42-2.59,3.1-3.42,4.96,0,0,1.02-2.15,3.42-4.31.18-.16.37-.33.56-.49.21-.17.43-.35.66-.52.18-.14.37-.27.56-.4.24-.16.49-.33.75-.48.18-.11.37-.22.56-.33.1-.05.19-.11.29-.16.16-.09.33-.17.5-.26.08-.04.15-.08.23-.11.11-.05.22-.1.33-.15.1-.05.2-.09.31-.14.13-.05.26-.1.39-.16.11-.04.22-.09.34-.13.07-.03.15-.05.23-.08.15-.05.29-.1.44-.15.24-.08.48-.15.73-.22.25-.07.51-.14.77-.2.24-.05.48-.11.73-.15.24-.05.49-.08.74-.12.24-.04.48-.07.73-.09.24-.03.49-.05.74-.06.24-.02.48-.03.73-.04.16,0,.31,0,.47-.01.1,0,.2,0,.3,0,.22,0,.43.01.65.03-7.8-.68.34.02.08,0-.03,0-.05,0-.08,0,.28.02.57.05.89.08,1.18.1,2.27.32,3.28.62.2.06.39.12.58.19.25.08.49.17.73.26.2.08.39.16.58.24.28.12.56.25.82.38.2.1.39.2.58.31.27.15.52.3.77.46.2.12.39.25.58.38.23.16.46.32.68.49.2.15.4.3.58.46,2.85,2.34,4.18,4.88,4.18,4.88-1.42-3.17-3.81-5.82-6.81-7.57"/>
    <path class="cls-7" d="m39.49,45.18s-.09-.07-.14-.12c-.05-.05-.11-.11-.17-.17-.38.28-.82.42-1.33.42-.17,0-.34-.03-.5-.1-.17-.06-.31-.16-.45-.29-.13-.13-.24-.29-.32-.49-.08-.19-.12-.43-.12-.7,0-.18.02-.35.05-.5.03-.15.08-.3.15-.45.07-.15.16-.31.26-.47.1-.16.23-.35.38-.56-.26-.6-.47-1.23-.62-1.89-.16-.66-.23-1.36-.23-2.11,0-.63.05-1.16.14-1.59s.22-.77.37-1.03c.16-.26.33-.44.54-.55.2-.11.4-.16.61-.16s.39.05.57.16c.18.11.35.29.49.54.14.25.25.58.33.99.08.41.12.92.12,1.53,0,.52-.04.97-.11,1.37-.07.39-.17.75-.31,1.08-.13.33-.29.63-.48.9-.18.27-.39.54-.61.82.3.7.69,1.34,1.16,1.93.21-.43.34-1.05.4-1.88h.71c0,.49-.07.94-.18,1.35-.11.41-.27.77-.48,1.07.18.19.36.36.56.52.19.15.36.28.52.37h-1.33Zm-1.42-.67c.13,0,.26-.01.37-.03.12-.02.22-.07.32-.13l-.03-.05c-.21-.29-.4-.59-.58-.9-.18-.31-.36-.63-.53-.94-.13.21-.21.42-.27.63-.05.21-.08.43-.08.68,0,.21.06.39.19.54.13.15.33.22.6.22m-.78-6.82c0,1.21.18,2.33.54,3.38.19-.27.34-.53.46-.76.12-.24.22-.48.29-.73.07-.25.12-.53.15-.82.03-.29.04-.64.04-1.04,0-.44-.02-.82-.05-1.12-.03-.3-.08-.55-.13-.73-.06-.18-.13-.31-.21-.39-.08-.08-.17-.12-.27-.12-.11,0-.21.03-.31.09-.1.06-.19.18-.26.35-.08.17-.14.41-.18.71-.04.3-.07.7-.07,1.18"/>
  </g>
  <path class="cls-7" d="m22.91,19.75l-.18.28-3.47-2.19c.52-.78,1.27-.68,1.96-.25.65.41.86.92.83,1.62l.86.54Zm-1.82-1.86c-.48-.3-1.04-.44-1.35-.15l2.06,1.3c-.03-.5-.24-.85-.71-1.15Z"/>
  <path class="cls-7" d="m23.61,17.04l-.36.45.68.78-.2.25-2.8-3.32,3.8,2.09-.21.26-.9-.51Zm-.53.26l.31-.38-1.21-.68v.02s.9,1.05.9,1.05Z"/>
  <path class="cls-7" d="m25.61,16.38l-.24.22-2.81-3c.7-.62,1.41-.33,1.95.25.47.5.58.97.47,1.52.64.15,1.27.18,1.62.07l-.4.37c-.26.06-.81-.05-1.28-.2v.02s.68.74.68.74Zm-1.3-2.26c-.38-.4-.89-.68-1.26-.48l1.66,1.78c.09-.49,0-.88-.4-1.3Z"/>
  <path class="cls-7" d="m27.36,13.64l-.47.34.45.93-.26.19-1.81-3.95,3.1,3.03-.27.19-.74-.73Zm-.58.11l.4-.29-.99-.98h-.02s.6,1.27.6,1.27Z"/>
  <path class="cls-7" d="m29.2,13.68l-1.84-3.26-.38.21-.16-.29,1.03-.58.16.29-.37.21,1.84,3.26-.29.16Z"/>
  <path class="cls-7" d="m31.58,12.52l-.4-.94-.59.25.4.94-.31.13-1.59-3.75.31-.13,1.09,2.58.59-.25-1.09-2.58.31-.13,1.59,3.75-.31.13Z"/>
  <path class="cls-7" d="m33.55,10.78l-.56.16.11,1.03-.31.09-.4-4.32,1.93,3.88-.32.09-.45-.93Zm-.59-.09l.48-.14-.61-1.25h-.02s.15,1.39.15,1.39Z"/>
  <path class="cls-7" d="m35.11,11.08c.08.05.15.06.27.04.36-.06.49-.36.41-.79-.04-.26-.14-.42-.25-.58-.18-.24-.43-.48-.58-.66-.18-.21-.32-.45-.38-.78-.1-.56.11-.99.55-1.06.16-.03.25.01.3.03l.06.33s-.14-.07-.26-.05c-.27.05-.39.29-.32.7.05.26.14.42.27.59.16.21.32.34.52.56.2.23.36.46.43.85.11.62-.13,1.07-.65,1.16-.16.03-.26,0-.31-.03l-.06-.33Z"/>
  <path class="cls-7" d="m39.95,11.08s-.07-.06-.12-.11c-.14.1-.32.15-.52.15-.27,0-.54-.21-.53-.62,0-.28.11-.44.35-.75-.19-.47-.31-.98-.3-1.55.02-.98.35-1.27.68-1.27.31,0,.58.32.56,1.25-.02.79-.26,1.18-.62,1.59.11.26.25.52.44.75.08-.16.14-.39.17-.72h.28c-.01.38-.12.7-.28.93.14.15.29.28.41.35h-.52Zm-.27-.33v-.02c-.17-.23-.3-.47-.43-.72-.1.15-.14.31-.15.5,0,.16.09.3.3.3.1,0,.19-.01.27-.06Zm-.33-1.27c.3-.41.38-.68.4-1.28.02-.69-.08-.91-.23-.92-.17,0-.32.15-.34.89-.01.47.05.9.18,1.31Z"/>
  <path class="cls-7" d="m43.02,11.5l-.32-.08.94-4c.9.24,1.05.98.87,1.77-.18.75-.59,1.11-1.26,1.32l-.23.99Zm1.16-2.33c.13-.55.08-1.13-.3-1.32l-.56,2.37c.46-.19.73-.5.86-1.05Z"/>
  <path class="cls-7" d="m44.91,12.03l1.38-3.83.31.11-1.27,3.54.54.19-.11.3-.85-.31Z"/>
  <path class="cls-7" d="m47.9,12.21l-.52-.26-.62.83-.29-.15,2.65-3.44-1.23,4.16-.3-.15.3-.99Zm-.37-.47l.44.22.41-1.33h-.02s-.83,1.11-.83,1.11Z"/>
  <path class="cls-7" d="m48.72,13.86l2.05-3.13-.36-.24.18-.28.99.65-.18.28-.35-.23-2.05,3.13-.27-.18Z"/>
  <path class="cls-7" d="m50.27,14.99l2.39-2.88-.33-.28.21-.25.91.76-.21.25-.32-.27-2.39,2.88-.25-.21Z"/>
  <path class="cls-7" d="m51.52,16.11l2.94-2.82.58.61-.24.23-.35-.36-1.79,1.71.34.36-.18.17-.34-.36-.51.49.38.4-.23.22-.61-.64Z"/>
  <path class="cls-7" d="m52.99,17.78l-.19-.26,3.31-2.43c.53.77.16,1.44-.48,1.9-.55.41-1.03.46-1.57.29-.22.62-.33,1.24-.27,1.6l-.32-.44c-.03-.27.15-.8.35-1.24h-.02s-.82.59-.82.59Zm2.4-1.02c.45-.33.79-.8.63-1.2l-1.96,1.44c.47.15.87.09,1.33-.24Z"/>
  <path class="cls-7" d="m54.44,19.29c-.02.09-.01.16.05.27.18.32.5.35.88.14.23-.13.35-.26.46-.43.17-.25.31-.56.43-.77.14-.24.32-.45.62-.61.5-.27.97-.21,1.18.18.08.14.07.24.06.29l-.29.16c.02-.05.02-.16-.04-.26-.13-.24-.4-.27-.77-.07-.23.13-.35.27-.47.45-.14.22-.21.41-.36.67-.15.26-.32.49-.67.69-.55.3-1.06.23-1.31-.24-.08-.14-.09-.24-.08-.3l.29-.16Z"/>
  <path class="cls-7" d="m23.09,44.22l2.28-2.49.51.47-.18.2-.31-.28-1.38,1.51.3.28-.14.15-.3-.28-.39.43.34.31-.18.19-.54-.5Z"/>
  <path class="cls-7" d="m24.54,45.47l2.05-2.68.22.17-1.89,2.48.38.29-.16.21-.6-.46Z"/>
  <path class="cls-7" d="m26.05,46.56l1.81-2.85.59.37-.15.23-.35-.22-1.1,1.73.35.22-.11.18-.35-.22-.31.49.39.25-.14.22-.62-.39Z"/>
  <path class="cls-7" d="m28.7,46.68h.02s1.31-1.75,1.31-1.75l.25.12-2.19,2.85,1.01-3.45.26.13-.65,2.09Z"/>
  <path class="cls-7" d="m30.52,47.88l-.45-.18-.45.73-.25-.1,1.92-3.04-.69,3.52-.26-.1.17-.84Zm-.34-.36l.38.15.23-1.13h-.02s-.6.98-.6.98Z"/>
  <path class="cls-7" d="m31.68,49.17l.88-2.98-.34-.1.08-.26.94.28-.08.26-.34-.1-.88,2.98-.26-.08Z"/>
  <path class="cls-7" d="m33.34,49.61l.69-3.31.68.14-.06.27-.41-.08-.42,2.01.4.08-.04.2-.4-.08-.12.57.45.09-.05.25-.72-.15Z"/>
  <path class="cls-7" d="m35.63,46.57c.77.12.94.92.83,1.82-.1.9-.46,1.64-1.23,1.58l.39-3.4Zm-.09,3.14c.35-.08.58-.69.65-1.35.08-.65,0-1.3-.33-1.47l-.33,2.82Z"/>
  <path class="cls-7" d="m39.42,46.72c.13,0,.21.02.25.06v.28s-.11-.07-.22-.07c-.26,0-.39.43-.35,1.48.04,1.04.19,1.45.45,1.45.11,0,.18-.04.22-.08v.28s-.1.07-.24.07c-.43.02-.67-.49-.71-1.71-.04-1.22.16-1.74.59-1.76Z"/>
  <path class="cls-7" d="m41.27,50l-.27.03-.44-3.37c.77-.08,1.11.46,1.19,1.11.07.56-.08.93-.42,1.25.36.41.77.73,1.05.83l-.45.06c-.2-.09-.52-.43-.76-.75h-.02s.11.84.11.84Zm.22-2.15c-.06-.46-.27-.89-.62-.93l.26,2c.3-.28.42-.6.36-1.06Z"/>
  <path class="cls-7" d="m43.36,49.66l-.74-3.29.68-.15.06.27-.41.09.45,2,.4-.09.05.2-.4.09.13.57.45-.1.06.25-.72.16Z"/>
  <path class="cls-7" d="m45.65,48.16l-.46.15.12.85-.25.08-.44-3.57,1.7,3.16-.26.08-.4-.76Zm-.49-.06l.39-.13-.53-1.02h-.02s.16,1.15.16,1.15Z"/>
  <path class="cls-7" d="m47.36,48.43l-1.19-2.87-.33.14-.1-.25.91-.38.1.25-.32.13,1.19,2.87-.25.1Z"/>
  <path class="cls-7" d="m48.91,47.73l-1.52-3.01.25-.12,1.52,3.01-.25.12Z"/>
  <rect class="cls-101" width="78" height="58.5"/>
  <path class="cls-7" d="m50.75,46.77c-.32.19-.76-.1-1.39-1.14-.64-1.04-.73-1.62-.42-1.81s.79.16,1.43,1.19c.64,1.04.7,1.57.38,1.76Zm-.14-.23c.18-.11,0-.62-.48-1.39s-.87-1.22-1.05-1.11.04.66.51,1.44c.47.77.84,1.17,1.02,1.06Z"/>
  <path class="cls-7" d="m51.25,43.94h-.01s1.22,1.62,1.22,1.62l-.21.16-2.14-2.81,2.04,1.33h.01s-1.29-1.71-1.29-1.71l.2-.15,2.14,2.81-1.96-1.24Z"/>
  <path class="cls-7" d="m53.88,44.01c.07,0,.13-.02.21-.09.23-.21.18-.47-.07-.74-.15-.16-.28-.23-.44-.29-.23-.09-.52-.14-.7-.19-.22-.06-.43-.17-.62-.37-.32-.35-.37-.73-.1-.99.1-.09.18-.1.22-.11l.19.2s-.13.02-.2.09c-.16.15-.14.38.1.63.15.16.29.23.45.28.21.07.38.09.62.16.24.07.46.15.69.4.35.38.4.8.07,1.1-.1.09-.18.12-.23.12l-.19-.2Z"/>
</svg>