<?xml version="1.0" encoding="UTF-8"?>
<svg id="Layer_1" data-name="Layer 1" xmlns="http://www.w3.org/2000/svg" xmlns:xlink="http://www.w3.org/1999/xlink" viewBox="0 0 432 324">
  <defs>
    <style>
      .cls-1 {
        fill: #df1f26;
      }

      .cls-2 {
        fill: #d52225;
      }

      .cls-3 {
        fill: #b82525;
      }

      .cls-4 {
        fill: #ad2524;
      }

      .cls-5 {
        fill: #a82524;
      }

      .cls-6 {
        fill: #ef3d23;
      }

      .cls-7 {
        clip-path: url(#clippath-20);
      }

      .cls-8 {
        fill: #d82125;
      }

      .cls-9 {
        fill: #ea1d24;
      }

      .cls-10 {
        clip-path: url(#clippath-11);
      }

      .cls-11 {
        fill: #f15822;
      }

      .cls-12 {
        fill: #c22425;
      }

      .cls-13 {
        fill: #ee2f24;
      }

      .cls-14 {
        fill: #d92125;
      }

      .cls-15 {
        fill: #ef4723;
      }

      .cls-16 {
        fill: #b52525;
      }

      .cls-17 {
        clip-path: url(#clippath-33);
      }

      .cls-18 {
        fill: #ef4623;
      }

      .cls-19 {
        fill: #b42525;
      }

      .cls-20 {
        fill: #a7a9ac;
      }

      .cls-21 {
        fill: #ef4523;
      }

      .cls-22 {
        fill: #f16623;
      }

      .cls-23 {
        fill: #a92524;
      }

      .cls-24 {
        fill: #cc2325;
      }

      .cls-25 {
        fill: #ce2325;
      }

      .cls-26 {
        clip-path: url(#clippath-41);
      }

      .cls-27 {
        clip-path: url(#clippath-32);
      }

      .cls-28 {
        fill: #c92325;
      }

      .cls-29 {
        fill: #d32225;
      }

      .cls-30 {
        fill: #f26522;
      }

      .cls-31 {
        fill: #ec2027;
      }

      .cls-32 {
        fill: #f15722;
      }

      .cls-33 {
        fill: #c52425;
      }

      .cls-34 {
        fill: #ef4423;
      }

      .cls-35 {
        clip-path: url(#clippath-2);
      }

      .cls-36 {
        clip-path: url(#clippath-13);
      }

      .cls-37 {
        fill: #ee2924;
      }

      .cls-38 {
        fill: #b22525;
      }

      .cls-39 {
        fill: #ab2524;
      }

      .cls-40 {
        clip-path: url(#clippath-37);
      }

      .cls-41 {
        fill: #f26122;
      }

      .cls-42 {
        clip-path: url(#clippath-25);
      }

      .cls-43 {
        fill: #f04f23;
      }

      .cls-44 {
        fill: #e01f24;
      }

      .cls-45 {
        clip-path: url(#clippath-15);
      }

      .cls-46 {
        fill: #d72125;
      }

      .cls-47 {
        clip-path: url(#clippath-6);
      }

      .cls-48 {
        fill: #a72524;
      }

      .cls-49 {
        fill: #bf2425;
      }

      .cls-50 {
        fill: #f15523;
      }

      .cls-51 {
        fill: #c12425;
      }

      .cls-52 {
        clip-path: url(#clippath-40);
      }

      .cls-53 {
        clip-path: url(#clippath-26);
      }

      .cls-54 {
        fill: #be2425;
      }

      .cls-55 {
        fill: #f15622;
      }

      .cls-56 {
        fill: #f15a22;
      }

      .cls-57 {
        fill: #a32524;
      }

      .cls-58 {
        fill: #f15d22;
      }

      .cls-59 {
        fill: #f15e22;
      }

      .cls-60 {
        fill: #f04b23;
      }

      .cls-61 {
        fill: #a42524;
      }

      .cls-62 {
        fill: #c82325;
      }

      .cls-63 {
        fill: #df1f24;
      }

      .cls-64 {
        clip-path: url(#clippath-7);
      }

      .cls-65 {
        clip-path: url(#clippath-21);
      }

      .cls-66 {
        fill: #ee3724;
      }

      .cls-67 {
        clip-path: url(#clippath-34);
      }

      .cls-68 {
        fill: #ef4323;
      }

      .cls-69 {
        clip-path: url(#clippath-1);
      }

      .cls-70 {
        clip-path: url(#clippath-4);
      }

      .cls-71 {
        fill: #f15c22;
      }

      .cls-72 {
        clip-path: url(#clippath-38);
      }

      .cls-73 {
        fill: #ef4223;
      }

      .cls-74 {
        clip-path: url(#clippath-36);
      }

      .cls-75 {
        clip-path: url(#clippath-27);
      }

      .cls-76 {
        fill: #f26422;
      }

      .cls-77 {
        fill: #e11f24;
      }

      .cls-78 {
        fill: #ef3824;
      }

      .cls-79 {
        fill: #c32425;
      }

      .cls-80 {
        fill: #da2125;
      }

      .cls-81 {
        clip-path: url(#clippath-44);
      }

      .cls-82 {
        fill: #9f2523;
      }

      .cls-83 {
        fill: #ed2124;
      }

      .cls-84 {
        fill: #e81d24;
      }

      .cls-85 {
        fill: #de2024;
      }

      .cls-86 {
        fill: #f26322;
      }

      .cls-87 {
        fill: #f05423;
      }

      .cls-88 {
        fill: #ee2724;
      }

      .cls-89 {
        clip-path: url(#clippath-12);
      }

      .cls-90 {
        fill: #ef3b24;
      }

      .cls-91 {
        fill: #f04e23;
      }

      .cls-92 {
        fill: #ef3f23;
      }

      .cls-93 {
        fill: #dc2025;
      }

      .cls-94 {
        fill: #e51e24;
      }

      .cls-95 {
        fill: #ac2524;
      }

      .cls-96 {
        fill: #a62524;
      }

      .cls-97 {
        fill: #f05223;
      }

      .cls-98 {
        fill: #b12525;
      }

      .cls-99 {
        fill: #d62125;
      }

      .cls-100 {
        fill: #f15b22;
      }

      .cls-101 {
        fill: #e61e24;
      }

      .cls-102 {
        fill: #ee3424;
      }

      .cls-103 {
        clip-path: url(#clippath-24);
      }

      .cls-104 {
        fill: #d12225;
      }

      .cls-105 {
        fill: #e41e24;
      }

      .cls-106 {
        clip-path: url(#clippath-30);
      }

      .cls-107 {
        clip-path: url(#clippath-22);
      }

      .cls-108 {
        fill: #ef3a24;
      }

      .cls-109 {
        fill: #ef4023;
      }

      .cls-110 {
        clip-path: url(#clippath-9);
      }

      .cls-111 {
        fill: #f15922;
      }

      .cls-112 {
        fill: #f26222;
      }

      .cls-113 {
        clip-path: url(#clippath);
      }

      .cls-114 {
        fill: #bd2425;
      }

      .cls-115 {
        fill: #aa2524;
      }

      .cls-116 {
        fill: #f05123;
      }

      .cls-117 {
        fill: #a22524;
      }

      .cls-118 {
        fill: #a12524;
      }

      .cls-119 {
        clip-path: url(#clippath-39);
      }

      .cls-120 {
        fill: none;
      }

      .cls-121 {
        fill: #b32525;
      }

      .cls-122 {
        clip-path: url(#clippath-19);
      }

      .cls-123 {
        fill: #c62425;
      }

      .cls-124 {
        clip-path: url(#clippath-31);
      }

      .cls-125 {
        clip-path: url(#clippath-3);
      }

      .cls-126 {
        fill: #c42425;
      }

      .cls-127 {
        fill: #cb2325;
      }

      .cls-128 {
        fill: #af2525;
      }

      .cls-129 {
        fill: #ee2d24;
      }

      .cls-130 {
        fill: #db2025;
      }

      .cls-131 {
        fill: #b62525;
      }

      .cls-132 {
        clip-path: url(#clippath-43);
      }

      .cls-133 {
        fill: #f04a23;
      }

      .cls-134 {
        fill: #f7941d;
      }

      .cls-135 {
        fill: #a02524;
      }

      .cls-136 {
        clip-path: url(#clippath-8);
      }

      .cls-137 {
        fill: #c72325;
      }

      .cls-138 {
        fill: #ed1c24;
      }

      .cls-139 {
        fill: #f15f22;
      }

      .cls-140 {
        fill: #e31f24;
      }

      .cls-141 {
        fill: #c02425;
      }

      .cls-142 {
        fill: #cd2325;
      }

      .cls-143 {
        clip-path: url(#clippath-29);
      }

      .cls-144 {
        clip-path: url(#clippath-14);
      }

      .cls-145 {
        clip-path: url(#clippath-17);
      }

      .cls-146 {
        fill: #b02525;
      }

      .cls-147 {
        fill: #ee2524;
      }

      .cls-148 {
        fill: #ae2524;
      }

      .cls-149 {
        clip-path: url(#clippath-5);
      }

      .cls-150 {
        fill: #a52524;
      }

      .cls-151 {
        fill: #ef3e23;
      }

      .cls-152 {
        fill: #ca2325;
      }

      .cls-153 {
        fill: #d42225;
      }

      .cls-154 {
        fill: #d22225;
      }

      .cls-155 {
        fill: #d02225;
      }

      .cls-156 {
        clip-path: url(#clippath-42);
      }

      .cls-157 {
        fill: #cf2225;
      }

      .cls-158 {
        fill: #ee3524;
      }

      .cls-159 {
        fill: #bc2425;
      }

      .cls-160 {
        clip-path: url(#clippath-10);
      }

      .cls-161 {
        fill: #dd2025;
      }

      .cls-162 {
        fill: #ee2b24;
      }

      .cls-163 {
        clip-path: url(#clippath-23);
      }

      .cls-164 {
        fill: #ed1f24;
      }

      .cls-165 {
        fill: #ee3124;
      }

      .cls-166 {
        fill: #b92525;
      }

      .cls-167 {
        fill: #231f20;
      }

      .cls-168 {
        fill: #ba2525;
      }

      .cls-169 {
        fill: #f04923;
      }

      .cls-170 {
        fill: #bb2525;
      }

      .cls-171 {
        fill: #ee2324;
      }

      .cls-172 {
        fill: #b72525;
      }

      .cls-173 {
        fill: #f05023;
      }

      .cls-174 {
        fill: #f16022;
      }

      .cls-175 {
        clip-path: url(#clippath-28);
      }

      .cls-176 {
        fill: #9e2523;
      }

      .cls-177 {
        fill: #f04d23;
      }

      .cls-178 {
        fill: #f05323;
      }

      .cls-179 {
        fill: #eb1d24;
      }

      .cls-180 {
        fill: #f04c23;
      }

      .cls-181 {
        fill: #414042;
      }

      .cls-182 {
        fill: #ee3224;
      }
    </style>
    <clipPath id="clippath">
      <rect class="cls-120" x="92.71" y="33.53" width="240.94" height="249.41"/>
    </clipPath>
    <clipPath id="clippath-1">
      <rect class="cls-120" width="432" height="324"/>
    </clipPath>
    <clipPath id="clippath-2">
      <path class="cls-120" d="m121.62,134.19c-.16.94-.28,1.81-.18,2.66.3,2.54.91,5.07,1.6,7.55,1.77,6.33,1.2,12.41-1.74,18.24-1.06,2.1-2.61,3.95-3.74,6.01,1.53-4.48,2.37-8.95.57-13.13-.08-.18-.33-.2-.43-.03-1.09,1.86-2.16,3.75-3.31,5.58-.6.96-1.36,1.82-2.09,2.69-4.46,5.34-6.19,11.56-5.75,18.44.61,9.57,7.28,16.72,16.53,17.74.21.02.35-.24.21-.41-2.62-3.39-5.03-6.83-5.84-11.1-.05-.25.25-.42.42-.22,1.45,1.73,3.11,3.12,5.01,3.98.15.07.33-.04.34-.22.21-2.89.28-5.79.73-8.62.44-2.77,1.69-5.24,3.72-7.56.16-.18.44-.04.42.2-.29,3.34-.11,6.34,1.12,9.18,1.63,3.76,5.49,4.32,8.13,1.17.66-.79,1.16-1.72,1.73-2.69.12-.21.44-.13.45.12.26,5.67-1.47,10.38-5.62,14.06-.21.19-.01.54.24.43,2.38-.97,4.55-2.25,6.53-3.88,4.17-3.42,5.7-7.87,4.8-13.11-.49-2.84-1.37-5.6-2.07-8.41-.65-2.65-1.16-5.29-.69-8.05.34-1.98,1.12-3.72,2.55-5.4.16-.19-.01-.48-.25-.41-3.59,1.09-6.44,2.69-8.03,5.95-.12.24-.45.16-.46-.1-.06-2-.06-3.97-.06-5.93,0-6.8,1.1-11.85-7.56-16.97-5.7-3.37-6.67-5.9-6.81-7.72-.01-.15-.12-.22-.24-.22-.11,0-.22.07-.24.21"/>
    </clipPath>
    <clipPath id="clippath-3">
      <rect class="cls-120" x="106.12" y="133.98" width="40.27" height="65.98"/>
    </clipPath>
    <clipPath id="clippath-4">
      <rect class="cls-120" width="432" height="324"/>
    </clipPath>
    <clipPath id="clippath-5">
      <path class="cls-120" d="m304.02,134.2c-.15,1.81-1.11,4.34-6.81,7.72-8.66,5.12-7.56,10.17-7.56,16.97,0,1.96,0,3.93-.06,5.93,0,.26-.35.34-.46.1-1.59-3.26-4.44-4.86-8.03-5.95-.23-.07-.41.22-.25.41,1.43,1.68,2.21,3.42,2.55,5.4.47,2.76-.04,5.41-.69,8.05-.69,2.8-1.58,5.57-2.07,8.41-.9,5.24.63,9.69,4.8,13.11,1.98,1.63,4.15,2.91,6.53,3.88.26.1.45-.25.24-.43-4.15-3.68-5.88-8.39-5.62-14.06.01-.25.33-.33.46-.12.57.97,1.07,1.9,1.73,2.69,2.64,3.15,6.5,2.6,8.13-1.17,1.23-2.84,1.42-5.83,1.12-9.18-.02-.24.26-.38.42-.2,2.02,2.33,3.28,4.79,3.72,7.56.45,2.84.52,5.73.73,8.62.01.17.19.29.34.22,1.9-.86,3.56-2.25,5.01-3.98.16-.2.47-.03.42.22-.81,4.27-3.22,7.72-5.84,11.1-.14.17,0,.44.21.41,9.25-1.01,15.92-8.16,16.53-17.74.43-6.88-1.29-13.1-5.75-18.44-.73-.87-1.49-1.73-2.09-2.69-1.15-1.83-2.22-3.72-3.31-5.58-.1-.17-.35-.16-.43.03-1.8,4.18-.96,8.66.57,13.13-1.13-2.06-2.67-3.91-3.73-6.01-2.94-5.83-3.51-11.91-1.74-18.24.69-2.47,1.3-5,1.6-7.55.1-.85-.02-1.73-.18-2.66-.02-.14-.13-.21-.24-.21s-.22.08-.24.22"/>
    </clipPath>
    <clipPath id="clippath-6">
      <rect class="cls-120" x="279.74" y="133.98" width="40.27" height="65.98"/>
    </clipPath>
    <clipPath id="clippath-7">
      <rect class="cls-120" width="432" height="324"/>
    </clipPath>
    <clipPath id="clippath-8">
      <rect class="cls-120" width="432" height="324"/>
    </clipPath>
    <clipPath id="clippath-9">
      <rect class="cls-120" width="432" height="324"/>
    </clipPath>
    <clipPath id="clippath-10">
      <rect class="cls-120" width="432" height="324"/>
    </clipPath>
    <clipPath id="clippath-11">
      <rect class="cls-120" width="432" height="324"/>
    </clipPath>
    <clipPath id="clippath-12">
      <rect class="cls-120" width="432" height="324"/>
    </clipPath>
    <clipPath id="clippath-13">
      <rect class="cls-120" width="432" height="324"/>
    </clipPath>
    <clipPath id="clippath-14">
      <rect class="cls-120" width="432" height="324"/>
    </clipPath>
    <clipPath id="clippath-15">
      <rect class="cls-120" width="432" height="324"/>
    </clipPath>
    <clipPath id="clippath-17">
      <rect class="cls-120" width="432" height="324"/>
    </clipPath>
    <clipPath id="clippath-19">
      <rect class="cls-120" width="432" height="324"/>
    </clipPath>
    <clipPath id="clippath-20">
      <rect class="cls-120" width="432" height="324"/>
    </clipPath>
    <clipPath id="clippath-21">
      <rect class="cls-120" width="432" height="324"/>
    </clipPath>
    <clipPath id="clippath-22">
      <rect class="cls-120" width="432" height="324"/>
    </clipPath>
    <clipPath id="clippath-23">
      <rect class="cls-120" width="432" height="324"/>
    </clipPath>
    <clipPath id="clippath-24">
      <rect class="cls-120" width="432" height="324"/>
    </clipPath>
    <clipPath id="clippath-25">
      <rect class="cls-120" width="432" height="324"/>
    </clipPath>
    <clipPath id="clippath-26">
      <rect class="cls-120" width="432" height="324"/>
    </clipPath>
    <clipPath id="clippath-27">
      <rect class="cls-120" width="432" height="324"/>
    </clipPath>
    <clipPath id="clippath-28">
      <rect class="cls-120" width="432" height="324"/>
    </clipPath>
    <clipPath id="clippath-29">
      <rect class="cls-120" width="432" height="324"/>
    </clipPath>
    <clipPath id="clippath-30">
      <rect class="cls-120" width="432" height="324"/>
    </clipPath>
    <clipPath id="clippath-31">
      <rect class="cls-120" width="432" height="324"/>
    </clipPath>
    <clipPath id="clippath-32">
      <rect class="cls-120" width="432" height="324"/>
    </clipPath>
    <clipPath id="clippath-33">
      <rect class="cls-120" width="432" height="324"/>
    </clipPath>
    <clipPath id="clippath-34">
      <rect class="cls-120" width="432" height="324"/>
    </clipPath>
    <clipPath id="clippath-36">
      <rect class="cls-120" width="432" height="324"/>
    </clipPath>
    <clipPath id="clippath-37">
      <rect class="cls-120" width="432" height="324"/>
    </clipPath>
    <clipPath id="clippath-38">
      <rect class="cls-120" width="432" height="324"/>
    </clipPath>
    <clipPath id="clippath-39">
      <rect class="cls-120" width="432" height="324"/>
    </clipPath>
    <clipPath id="clippath-40">
      <rect class="cls-120" width="432" height="324"/>
    </clipPath>
    <clipPath id="clippath-41">
      <rect class="cls-120" width="432" height="324"/>
    </clipPath>
    <clipPath id="clippath-42">
      <rect class="cls-120" width="432" height="324"/>
    </clipPath>
    <clipPath id="clippath-43">
      <rect class="cls-120" width="432" height="324"/>
    </clipPath>
    <clipPath id="clippath-44">
      <rect class="cls-120" width="432" height="324"/>
    </clipPath>
  </defs>
  <g class="cls-113">
    <g class="cls-69">
      <path class="cls-20" d="m242.37,88.67c1.1.44,2.18.93,3.24,1.47v-10.38c-1.06-.36-2.14-.7-3.24-1.03v9.94Z"/>
      <path class="cls-20" d="m242.37,235.88c1.1-.29,2.17-.59,3.24-.91v-57.61c-1.06.57-2.14,1.09-3.24,1.57v56.95Z"/>
      <path class="cls-20" d="m249.62,92.47c1.11.74,2.19,1.53,3.24,2.37v-12.28c-1.06-.46-2.14-.91-3.24-1.34v11.25Z"/>
      <path class="cls-20" d="m249.62,233.7c1.1-.37,2.18-.76,3.24-1.16v-60.09c-1.05.87-2.12,1.7-3.24,2.47v58.79Z"/>
      <path class="cls-20" d="m257.41,99.07c1.14,1.22,2.22,2.5,3.24,3.85v-16.53c-1.06-.59-2.13-1.16-3.24-1.71v14.4Z"/>
      <path class="cls-20" d="m257.41,230.71c1.1-.47,2.18-.96,3.24-1.45v-65.12c-1.01,1.38-2.1,2.69-3.24,3.95v62.63Z"/>
      <path class="cls-20" d="m264.93,227.11c1.11-.58,2.19-1.18,3.24-1.78v-76.25c-.86,2.8-1.95,5.49-3.24,8.04v69.99Z"/>
      <path class="cls-20" d="m264.93,109.8c1.29,2.51,2.37,5.17,3.24,7.95v-26.72c-1.05-.72-2.13-1.42-3.24-2.11v20.89Z"/>
      <path class="cls-20" d="m271.93,93.73v129.35c1.12-.71,2.19-1.42,3.24-2.14v-124.67c-1.04-.85-2.12-1.7-3.24-2.54"/>
      <path class="cls-1" d="m110.21,151.94c.2.84.46,1.64.56,2.44.23,1.89-.25,3.52-1.15,4.9-.79,1.21-1.68,2.34-2.58,3.44-1.48,1.83-2.26,2.87-3.1,6.44-1.78,8.15,3.33,15.76.83,15.61-7.13-11.3-8.47-14.17-9.66-18.73-.83-3.18-.46-6.11.53-8.86.74-2.04,1.62-3.99,2.43-5.98.27-.66.55-1.33.76-2.02.74-2.35.96-4.76-.28-7.35,1.41.61,2.65,2.81,2.7,4.83.02.88-.08,1.74-.1,2.61-.03,1.41.44,2.35,1.35,2.76.92.42,2.04,0,2.44-1.18.26-.78.37-1.74.25-2.61-.59-4.18-.76-8.25.37-12.1,1.32-4.5,4.07-7.32,7.98-9.17-.44.96-.8,1.7-1.12,2.46-1.28,3-1.41,6.29-.64,9.75.21.95.63,1.95,1.18,2.75-.24,3.1-8.04-10.18-2.76,10.02"/>
    </g>
    <g class="cls-35">
      <g class="cls-125">
        <rect class="cls-176" x="106.12" y="195.41" width="40.27" height="4.55"/>
        <rect class="cls-176" x="106.12" y="195.12" width="40.27" height=".28"/>
        <rect class="cls-82" x="106.12" y="194.84" width="40.27" height=".28"/>
        <rect class="cls-135" x="106.12" y="194.56" width="40.27" height=".28"/>
        <rect class="cls-118" x="106.12" y="194.28" width="40.27" height=".28"/>
        <rect class="cls-117" x="106.12" y="194" width="40.27" height=".28"/>
        <rect class="cls-57" x="106.12" y="193.71" width="40.27" height=".28"/>
        <rect class="cls-61" x="106.12" y="193.43" width="40.27" height=".28"/>
        <rect class="cls-150" x="106.12" y="193.15" width="40.27" height=".28"/>
        <rect class="cls-96" x="106.12" y="192.87" width="40.27" height=".28"/>
        <rect class="cls-48" x="106.12" y="192.59" width="40.27" height=".28"/>
        <rect class="cls-5" x="106.12" y="192.3" width="40.27" height=".28"/>
        <rect class="cls-23" x="106.12" y="192.02" width="40.27" height=".28"/>
        <rect class="cls-115" x="106.12" y="191.74" width="40.27" height=".28"/>
        <rect class="cls-39" x="106.12" y="191.46" width="40.27" height=".28"/>
        <rect class="cls-95" x="106.12" y="191.18" width="40.27" height=".28"/>
        <rect class="cls-4" x="106.12" y="190.89" width="40.27" height=".28"/>
        <rect class="cls-148" x="106.12" y="190.61" width="40.27" height=".28"/>
        <rect class="cls-128" x="106.12" y="190.33" width="40.27" height=".28"/>
        <rect class="cls-146" x="106.12" y="190.05" width="40.27" height=".28"/>
        <rect class="cls-98" x="106.12" y="189.77" width="40.27" height=".28"/>
        <rect class="cls-38" x="106.12" y="189.48" width="40.27" height=".28"/>
        <rect class="cls-121" x="106.12" y="189.2" width="40.27" height=".28"/>
        <rect class="cls-19" x="106.12" y="188.92" width="40.27" height=".28"/>
        <rect class="cls-16" x="106.12" y="188.64" width="40.27" height=".28"/>
        <rect class="cls-16" x="106.12" y="188.36" width="40.27" height=".28"/>
        <rect class="cls-131" x="106.12" y="188.07" width="40.27" height=".28"/>
        <rect class="cls-172" x="106.12" y="187.79" width="40.27" height=".28"/>
        <rect class="cls-3" x="106.12" y="187.51" width="40.27" height=".28"/>
        <rect class="cls-166" x="106.12" y="187.23" width="40.27" height=".28"/>
        <rect class="cls-168" x="106.12" y="186.95" width="40.27" height=".28"/>
        <rect class="cls-170" x="106.12" y="186.66" width="40.27" height=".28"/>
        <rect class="cls-159" x="106.12" y="186.38" width="40.27" height=".28"/>
        <rect class="cls-114" x="106.12" y="186.1" width="40.27" height=".28"/>
        <rect class="cls-54" x="106.12" y="185.82" width="40.27" height=".28"/>
        <rect class="cls-49" x="106.12" y="185.54" width="40.27" height=".28"/>
        <rect class="cls-141" x="106.12" y="185.25" width="40.27" height=".28"/>
        <rect class="cls-51" x="106.12" y="184.97" width="40.27" height=".28"/>
        <rect class="cls-12" x="106.12" y="184.69" width="40.27" height=".28"/>
        <rect class="cls-79" x="106.12" y="184.41" width="40.27" height=".28"/>
        <rect class="cls-126" x="106.12" y="184.13" width="40.27" height=".28"/>
        <rect class="cls-33" x="106.12" y="183.84" width="40.27" height=".28"/>
        <rect class="cls-123" x="106.12" y="183.56" width="40.27" height=".28"/>
        <rect class="cls-137" x="106.12" y="183.28" width="40.27" height=".28"/>
        <rect class="cls-62" x="106.12" y="183" width="40.27" height=".28"/>
        <rect class="cls-28" x="106.12" y="182.71" width="40.27" height=".28"/>
        <rect class="cls-152" x="106.12" y="182.43" width="40.27" height=".28"/>
        <rect class="cls-127" x="106.12" y="182.15" width="40.27" height=".28"/>
        <rect class="cls-24" x="106.12" y="181.87" width="40.27" height=".28"/>
        <rect class="cls-142" x="106.12" y="181.59" width="40.27" height=".28"/>
        <rect class="cls-25" x="106.12" y="181.3" width="40.27" height=".28"/>
        <rect class="cls-157" x="106.12" y="181.02" width="40.27" height=".28"/>
        <rect class="cls-155" x="106.12" y="180.74" width="40.27" height=".28"/>
        <rect class="cls-104" x="106.12" y="180.46" width="40.27" height=".28"/>
        <rect class="cls-154" x="106.12" y="180.18" width="40.27" height=".28"/>
        <rect class="cls-29" x="106.12" y="179.89" width="40.27" height=".28"/>
        <rect class="cls-153" x="106.12" y="179.61" width="40.27" height=".28"/>
        <rect class="cls-2" x="106.12" y="179.33" width="40.27" height=".28"/>
        <rect class="cls-99" x="106.12" y="179.05" width="40.27" height=".28"/>
        <rect class="cls-46" x="106.12" y="178.77" width="40.27" height=".28"/>
        <rect class="cls-8" x="106.12" y="178.48" width="40.27" height=".28"/>
        <rect class="cls-14" x="106.12" y="178.2" width="40.27" height=".28"/>
        <rect class="cls-80" x="106.12" y="177.92" width="40.27" height=".28"/>
        <rect class="cls-130" x="106.12" y="177.64" width="40.27" height=".28"/>
        <rect class="cls-93" x="106.12" y="177.36" width="40.27" height=".28"/>
        <rect class="cls-161" x="106.12" y="177.07" width="40.27" height=".28"/>
        <rect class="cls-85" x="106.12" y="176.79" width="40.27" height=".28"/>
        <rect class="cls-63" x="106.12" y="176.51" width="40.27" height=".28"/>
        <rect class="cls-44" x="106.12" y="176.23" width="40.27" height=".28"/>
        <rect class="cls-77" x="106.12" y="175.95" width="40.27" height=".28"/>
        <rect class="cls-140" x="106.12" y="175.66" width="40.27" height=".28"/>
        <rect class="cls-105" x="106.12" y="175.38" width="40.27" height=".28"/>
        <rect class="cls-94" x="106.12" y="175.1" width="40.27" height=".28"/>
        <rect class="cls-101" x="106.12" y="174.82" width="40.27" height=".28"/>
        <rect class="cls-84" x="106.12" y="174.54" width="40.27" height=".28"/>
        <rect class="cls-9" x="106.12" y="174.25" width="40.27" height=".28"/>
        <rect class="cls-179" x="106.12" y="173.97" width="40.27" height=".28"/>
        <rect class="cls-138" x="106.12" y="173.69" width="40.27" height=".28"/>
        <rect class="cls-138" x="106.12" y="173.42" width="40.27" height=".27"/>
        <rect class="cls-164" x="106.12" y="173.16" width="40.27" height=".27"/>
        <rect class="cls-83" x="106.12" y="172.89" width="40.27" height=".27"/>
        <rect class="cls-171" x="106.12" y="172.62" width="40.27" height=".27"/>
        <rect class="cls-147" x="106.12" y="172.36" width="40.27" height=".27"/>
        <rect class="cls-88" x="106.12" y="172.09" width="40.27" height=".27"/>
        <rect class="cls-37" x="106.12" y="171.82" width="40.27" height=".27"/>
        <rect class="cls-162" x="106.12" y="171.56" width="40.27" height=".27"/>
        <rect class="cls-129" x="106.12" y="171.29" width="40.27" height=".27"/>
        <rect class="cls-13" x="106.12" y="171.02" width="40.27" height=".27"/>
        <rect class="cls-165" x="106.12" y="170.75" width="40.27" height=".27"/>
        <rect class="cls-182" x="106.12" y="170.49" width="40.27" height=".27"/>
        <rect class="cls-102" x="106.12" y="170.22" width="40.27" height=".27"/>
        <rect class="cls-158" x="106.12" y="169.95" width="40.27" height=".27"/>
        <rect class="cls-66" x="106.12" y="169.69" width="40.27" height=".27"/>
        <rect class="cls-78" x="106.12" y="169.42" width="40.27" height=".27"/>
        <rect class="cls-108" x="106.12" y="169.15" width="40.27" height=".27"/>
        <rect class="cls-90" x="106.12" y="168.89" width="40.27" height=".27"/>
        <rect class="cls-6" x="106.12" y="168.62" width="40.27" height=".27"/>
        <rect class="cls-151" x="106.12" y="168.35" width="40.27" height=".27"/>
        <rect class="cls-92" x="106.12" y="168.09" width="40.27" height=".27"/>
        <rect class="cls-109" x="106.12" y="167.82" width="40.27" height=".27"/>
        <rect class="cls-73" x="106.12" y="167.55" width="40.27" height=".27"/>
        <rect class="cls-68" x="106.12" y="167.29" width="40.27" height=".27"/>
        <rect class="cls-34" x="106.12" y="167.02" width="40.27" height=".27"/>
        <rect class="cls-21" x="106.12" y="166.75" width="40.27" height=".27"/>
        <rect class="cls-18" x="106.12" y="166.49" width="40.27" height=".27"/>
        <rect class="cls-15" x="106.12" y="166.22" width="40.27" height=".27"/>
        <rect class="cls-169" x="106.12" y="165.95" width="40.27" height=".27"/>
        <rect class="cls-133" x="106.12" y="165.69" width="40.27" height=".27"/>
        <rect class="cls-60" x="106.12" y="165.42" width="40.27" height=".27"/>
        <rect class="cls-180" x="106.12" y="165.15" width="40.27" height=".27"/>
        <rect class="cls-177" x="106.12" y="164.88" width="40.27" height=".27"/>
        <rect class="cls-91" x="106.12" y="164.62" width="40.27" height=".27"/>
        <rect class="cls-43" x="106.12" y="164.35" width="40.27" height=".27"/>
        <rect class="cls-173" x="106.12" y="164.08" width="40.27" height=".27"/>
        <rect class="cls-116" x="106.12" y="163.82" width="40.27" height=".27"/>
        <rect class="cls-97" x="106.12" y="163.55" width="40.27" height=".27"/>
        <rect class="cls-178" x="106.12" y="163.28" width="40.27" height=".27"/>
        <rect class="cls-87" x="106.12" y="163.02" width="40.27" height=".27"/>
        <rect class="cls-50" x="106.12" y="162.75" width="40.27" height=".27"/>
        <rect class="cls-55" x="106.12" y="162.48" width="40.27" height=".27"/>
        <rect class="cls-32" x="106.12" y="162.22" width="40.27" height=".27"/>
        <rect class="cls-11" x="106.12" y="161.95" width="40.27" height=".27"/>
        <rect class="cls-111" x="106.12" y="161.68" width="40.27" height=".27"/>
        <rect class="cls-111" x="106.12" y="161.42" width="40.27" height=".27"/>
        <rect class="cls-56" x="106.12" y="161.15" width="40.27" height=".27"/>
        <rect class="cls-100" x="106.12" y="160.88" width="40.27" height=".27"/>
        <rect class="cls-71" x="106.12" y="160.62" width="40.27" height=".27"/>
        <rect class="cls-58" x="106.12" y="160.35" width="40.27" height=".27"/>
        <rect class="cls-58" x="106.12" y="160.08" width="40.27" height=".27"/>
        <rect class="cls-59" x="106.12" y="159.82" width="40.27" height=".27"/>
        <rect class="cls-139" x="106.12" y="159.55" width="40.27" height=".27"/>
        <rect class="cls-174" x="106.12" y="159.28" width="40.27" height=".27"/>
        <rect class="cls-174" x="106.12" y="159.02" width="40.27" height=".27"/>
        <rect class="cls-41" x="106.12" y="158.75" width="40.27" height=".27"/>
        <rect class="cls-112" x="106.12" y="158.48" width="40.27" height=".27"/>
        <rect class="cls-112" x="106.12" y="158.21" width="40.27" height=".27"/>
        <rect class="cls-86" x="106.12" y="157.95" width="40.27" height=".27"/>
        <rect class="cls-86" x="106.12" y="157.68" width="40.27" height=".27"/>
        <rect class="cls-76" x="106.12" y="157.41" width="40.27" height=".27"/>
        <rect class="cls-76" x="106.12" y="157.15" width="40.27" height=".27"/>
        <rect class="cls-30" x="106.12" y="156.88" width="40.27" height=".27"/>
        <rect class="cls-30" x="106.12" y="156.61" width="40.27" height=".27"/>
        <rect class="cls-30" x="106.12" y="133.98" width="40.27" height="22.64"/>
      </g>
    </g>
    <g class="cls-70">
      <path class="cls-134" d="m120.11,141.22c-1.42-4.73-4.77-8.68-1.05-14.94,4.1-6.9-1.79.17-1.79.17,0,0-3.17,4.12-1.51,12.16,1.51,6.36.53,8.57.01,9.89,0,0-1.86,4.56-.64,3.03.72-.9,2.78-1.93,4.15-3.72.38.45.57,1.33.17,3-1.03,4.26,3.18-2.29.64-9.6"/>
      <path class="cls-138" d="m144.65,130.79s-6.53,4.36-3.92,11.8c2.61,7.44,2.16,10.23-.62,15.5,0,0,1.4-6.44-1.34-11.98-2.74-5.55-.65-12.53,5.87-15.32"/>
      <path class="cls-1" d="m315.91,151.94c-.2.84-.46,1.64-.56,2.44-.23,1.89.25,3.52,1.15,4.9.79,1.21,1.68,2.34,2.58,3.44,1.48,1.83,2.26,2.87,3.1,6.44,1.78,8.15-3.33,15.76-.83,15.61,7.13-11.3,8.47-14.17,9.66-18.73.83-3.18.46-6.11-.54-8.86-.74-2.04-1.62-3.99-2.43-5.98-.27-.66-.55-1.33-.76-2.02-.74-2.35-.96-4.76.28-7.35-1.41.61-2.65,2.81-2.7,4.83-.02.88.08,1.74.1,2.61.03,1.41-.44,2.35-1.35,2.76-.92.42-2.04,0-2.44-1.18-.26-.78-.37-1.74-.25-2.61.59-4.18.76-8.25-.37-12.1-1.32-4.5-4.07-7.32-7.98-9.17.44.96.8,1.7,1.12,2.46,1.28,3,1.41,6.29.64,9.75-.21.95-.64,1.95-1.18,2.75.24,3.1,8.04-10.18,2.76,10.02"/>
    </g>
    <g class="cls-149">
      <g class="cls-47">
        <rect class="cls-176" x="279.74" y="195.41" width="40.27" height="4.55"/>
        <rect class="cls-176" x="279.74" y="195.12" width="40.27" height=".28"/>
        <rect class="cls-82" x="279.74" y="194.84" width="40.27" height=".28"/>
        <rect class="cls-135" x="279.74" y="194.56" width="40.27" height=".28"/>
        <rect class="cls-118" x="279.74" y="194.28" width="40.27" height=".28"/>
        <rect class="cls-117" x="279.74" y="194" width="40.27" height=".28"/>
        <rect class="cls-57" x="279.74" y="193.71" width="40.27" height=".28"/>
        <rect class="cls-61" x="279.74" y="193.43" width="40.27" height=".28"/>
        <rect class="cls-150" x="279.74" y="193.15" width="40.27" height=".28"/>
        <rect class="cls-96" x="279.74" y="192.87" width="40.27" height=".28"/>
        <rect class="cls-48" x="279.74" y="192.59" width="40.27" height=".28"/>
        <rect class="cls-5" x="279.74" y="192.3" width="40.27" height=".28"/>
        <rect class="cls-23" x="279.74" y="192.02" width="40.27" height=".28"/>
        <rect class="cls-115" x="279.74" y="191.74" width="40.27" height=".28"/>
        <rect class="cls-39" x="279.74" y="191.46" width="40.27" height=".28"/>
        <rect class="cls-95" x="279.74" y="191.18" width="40.27" height=".28"/>
        <rect class="cls-4" x="279.74" y="190.89" width="40.27" height=".28"/>
        <rect class="cls-148" x="279.74" y="190.61" width="40.27" height=".28"/>
        <rect class="cls-128" x="279.74" y="190.33" width="40.27" height=".28"/>
        <rect class="cls-146" x="279.74" y="190.05" width="40.27" height=".28"/>
        <rect class="cls-98" x="279.74" y="189.77" width="40.27" height=".28"/>
        <rect class="cls-38" x="279.74" y="189.48" width="40.27" height=".28"/>
        <rect class="cls-121" x="279.74" y="189.2" width="40.27" height=".28"/>
        <rect class="cls-19" x="279.74" y="188.92" width="40.27" height=".28"/>
        <rect class="cls-16" x="279.74" y="188.64" width="40.27" height=".28"/>
        <rect class="cls-16" x="279.74" y="188.36" width="40.27" height=".28"/>
        <rect class="cls-131" x="279.74" y="188.07" width="40.27" height=".28"/>
        <rect class="cls-172" x="279.74" y="187.79" width="40.27" height=".28"/>
        <rect class="cls-3" x="279.74" y="187.51" width="40.27" height=".28"/>
        <rect class="cls-166" x="279.74" y="187.23" width="40.27" height=".28"/>
        <rect class="cls-168" x="279.74" y="186.95" width="40.27" height=".28"/>
        <rect class="cls-170" x="279.74" y="186.66" width="40.27" height=".28"/>
        <rect class="cls-159" x="279.74" y="186.38" width="40.27" height=".28"/>
        <rect class="cls-114" x="279.74" y="186.1" width="40.27" height=".28"/>
        <rect class="cls-54" x="279.74" y="185.82" width="40.27" height=".28"/>
        <rect class="cls-49" x="279.74" y="185.54" width="40.27" height=".28"/>
        <rect class="cls-141" x="279.74" y="185.25" width="40.27" height=".28"/>
        <rect class="cls-51" x="279.74" y="184.97" width="40.27" height=".28"/>
        <rect class="cls-12" x="279.74" y="184.69" width="40.27" height=".28"/>
        <rect class="cls-79" x="279.74" y="184.41" width="40.27" height=".28"/>
        <rect class="cls-126" x="279.74" y="184.13" width="40.27" height=".28"/>
        <rect class="cls-33" x="279.74" y="183.84" width="40.27" height=".28"/>
        <rect class="cls-123" x="279.74" y="183.56" width="40.27" height=".28"/>
        <rect class="cls-137" x="279.74" y="183.28" width="40.27" height=".28"/>
        <rect class="cls-62" x="279.74" y="183" width="40.27" height=".28"/>
        <rect class="cls-28" x="279.74" y="182.71" width="40.27" height=".28"/>
        <rect class="cls-152" x="279.74" y="182.43" width="40.27" height=".28"/>
        <rect class="cls-127" x="279.74" y="182.15" width="40.27" height=".28"/>
        <rect class="cls-24" x="279.74" y="181.87" width="40.27" height=".28"/>
        <rect class="cls-142" x="279.74" y="181.59" width="40.27" height=".28"/>
        <rect class="cls-25" x="279.74" y="181.3" width="40.27" height=".28"/>
        <rect class="cls-157" x="279.74" y="181.02" width="40.27" height=".28"/>
        <rect class="cls-155" x="279.74" y="180.74" width="40.27" height=".28"/>
        <rect class="cls-104" x="279.74" y="180.46" width="40.27" height=".28"/>
        <rect class="cls-154" x="279.74" y="180.18" width="40.27" height=".28"/>
        <rect class="cls-29" x="279.74" y="179.89" width="40.27" height=".28"/>
        <rect class="cls-153" x="279.74" y="179.61" width="40.27" height=".28"/>
        <rect class="cls-2" x="279.74" y="179.33" width="40.27" height=".28"/>
        <rect class="cls-99" x="279.74" y="179.05" width="40.27" height=".28"/>
        <rect class="cls-46" x="279.74" y="178.77" width="40.27" height=".28"/>
        <rect class="cls-8" x="279.74" y="178.48" width="40.27" height=".28"/>
        <rect class="cls-14" x="279.74" y="178.2" width="40.27" height=".28"/>
        <rect class="cls-80" x="279.74" y="177.92" width="40.27" height=".28"/>
        <rect class="cls-130" x="279.74" y="177.64" width="40.27" height=".28"/>
        <rect class="cls-93" x="279.74" y="177.36" width="40.27" height=".28"/>
        <rect class="cls-161" x="279.74" y="177.07" width="40.27" height=".28"/>
        <rect class="cls-85" x="279.74" y="176.79" width="40.27" height=".28"/>
        <rect class="cls-63" x="279.74" y="176.51" width="40.27" height=".28"/>
        <rect class="cls-44" x="279.74" y="176.23" width="40.27" height=".28"/>
        <rect class="cls-77" x="279.74" y="175.95" width="40.27" height=".28"/>
        <rect class="cls-140" x="279.74" y="175.66" width="40.27" height=".28"/>
        <rect class="cls-105" x="279.74" y="175.38" width="40.27" height=".28"/>
        <rect class="cls-94" x="279.74" y="175.1" width="40.27" height=".28"/>
        <rect class="cls-101" x="279.74" y="174.82" width="40.27" height=".28"/>
        <rect class="cls-84" x="279.74" y="174.54" width="40.27" height=".28"/>
        <rect class="cls-9" x="279.74" y="174.25" width="40.27" height=".28"/>
        <rect class="cls-179" x="279.74" y="173.97" width="40.27" height=".28"/>
        <rect class="cls-138" x="279.74" y="173.69" width="40.27" height=".28"/>
        <rect class="cls-138" x="279.74" y="173.42" width="40.27" height=".27"/>
        <rect class="cls-164" x="279.74" y="173.16" width="40.27" height=".27"/>
        <rect class="cls-83" x="279.74" y="172.89" width="40.27" height=".27"/>
        <rect class="cls-171" x="279.74" y="172.62" width="40.27" height=".27"/>
        <rect class="cls-147" x="279.74" y="172.36" width="40.27" height=".27"/>
        <rect class="cls-88" x="279.74" y="172.09" width="40.27" height=".27"/>
        <rect class="cls-37" x="279.74" y="171.82" width="40.27" height=".27"/>
        <rect class="cls-162" x="279.74" y="171.56" width="40.27" height=".27"/>
        <rect class="cls-129" x="279.74" y="171.29" width="40.27" height=".27"/>
        <rect class="cls-13" x="279.74" y="171.02" width="40.27" height=".27"/>
        <rect class="cls-165" x="279.74" y="170.75" width="40.27" height=".27"/>
        <rect class="cls-182" x="279.74" y="170.49" width="40.27" height=".27"/>
        <rect class="cls-102" x="279.74" y="170.22" width="40.27" height=".27"/>
        <rect class="cls-158" x="279.74" y="169.95" width="40.27" height=".27"/>
        <rect class="cls-66" x="279.74" y="169.69" width="40.27" height=".27"/>
        <rect class="cls-78" x="279.74" y="169.42" width="40.27" height=".27"/>
        <rect class="cls-108" x="279.74" y="169.15" width="40.27" height=".27"/>
        <rect class="cls-90" x="279.74" y="168.89" width="40.27" height=".27"/>
        <rect class="cls-6" x="279.74" y="168.62" width="40.27" height=".27"/>
        <rect class="cls-151" x="279.74" y="168.35" width="40.27" height=".27"/>
        <rect class="cls-92" x="279.74" y="168.09" width="40.27" height=".27"/>
        <rect class="cls-109" x="279.74" y="167.82" width="40.27" height=".27"/>
        <rect class="cls-73" x="279.74" y="167.55" width="40.27" height=".27"/>
        <rect class="cls-68" x="279.74" y="167.29" width="40.27" height=".27"/>
        <rect class="cls-34" x="279.74" y="167.02" width="40.27" height=".27"/>
        <rect class="cls-21" x="279.74" y="166.75" width="40.27" height=".27"/>
        <rect class="cls-18" x="279.74" y="166.49" width="40.27" height=".27"/>
        <rect class="cls-15" x="279.74" y="166.22" width="40.27" height=".27"/>
        <rect class="cls-169" x="279.74" y="165.95" width="40.27" height=".27"/>
        <rect class="cls-133" x="279.74" y="165.69" width="40.27" height=".27"/>
        <rect class="cls-60" x="279.74" y="165.42" width="40.27" height=".27"/>
        <rect class="cls-180" x="279.74" y="165.15" width="40.27" height=".27"/>
        <rect class="cls-177" x="279.74" y="164.88" width="40.27" height=".27"/>
        <rect class="cls-91" x="279.74" y="164.62" width="40.27" height=".27"/>
        <rect class="cls-43" x="279.74" y="164.35" width="40.27" height=".27"/>
        <rect class="cls-173" x="279.74" y="164.08" width="40.27" height=".27"/>
        <rect class="cls-116" x="279.74" y="163.82" width="40.27" height=".27"/>
        <rect class="cls-97" x="279.74" y="163.55" width="40.27" height=".27"/>
        <rect class="cls-178" x="279.74" y="163.28" width="40.27" height=".27"/>
        <rect class="cls-87" x="279.74" y="163.02" width="40.27" height=".27"/>
        <rect class="cls-50" x="279.74" y="162.75" width="40.27" height=".27"/>
        <rect class="cls-55" x="279.74" y="162.48" width="40.27" height=".27"/>
        <rect class="cls-32" x="279.74" y="162.22" width="40.27" height=".27"/>
        <rect class="cls-11" x="279.74" y="161.95" width="40.27" height=".27"/>
        <rect class="cls-111" x="279.74" y="161.68" width="40.27" height=".27"/>
        <rect class="cls-111" x="279.74" y="161.42" width="40.27" height=".27"/>
        <rect class="cls-56" x="279.74" y="161.15" width="40.27" height=".27"/>
        <rect class="cls-100" x="279.74" y="160.88" width="40.27" height=".27"/>
        <rect class="cls-71" x="279.74" y="160.62" width="40.27" height=".27"/>
        <rect class="cls-58" x="279.74" y="160.35" width="40.27" height=".27"/>
        <rect class="cls-58" x="279.74" y="160.08" width="40.27" height=".27"/>
        <rect class="cls-59" x="279.74" y="159.82" width="40.27" height=".27"/>
        <rect class="cls-139" x="279.74" y="159.55" width="40.27" height=".27"/>
        <rect class="cls-174" x="279.74" y="159.28" width="40.27" height=".27"/>
        <rect class="cls-174" x="279.74" y="159.02" width="40.27" height=".27"/>
        <rect class="cls-41" x="279.74" y="158.75" width="40.27" height=".27"/>
        <rect class="cls-112" x="279.74" y="158.48" width="40.27" height=".27"/>
        <rect class="cls-112" x="279.74" y="158.21" width="40.27" height=".27"/>
        <rect class="cls-86" x="279.74" y="157.95" width="40.27" height=".27"/>
        <rect class="cls-86" x="279.74" y="157.68" width="40.27" height=".27"/>
        <rect class="cls-76" x="279.74" y="157.41" width="40.27" height=".27"/>
        <rect class="cls-76" x="279.74" y="157.15" width="40.27" height=".27"/>
        <rect class="cls-30" x="279.74" y="156.88" width="40.27" height=".27"/>
        <rect class="cls-30" x="279.74" y="156.61" width="40.27" height=".27"/>
        <rect class="cls-30" x="279.74" y="133.98" width="40.27" height="22.64"/>
      </g>
    </g>
    <g class="cls-64">
      <path class="cls-134" d="m306.01,141.22c1.41-4.73,4.77-8.68,1.05-14.94-4.1-6.9,1.79.17,1.79.17,0,0,3.17,4.12,1.51,12.16-1.51,6.36-.52,8.57-.01,9.89,0,0,1.86,4.56.64,3.03-.72-.9-2.78-1.93-4.15-3.72-.38.45-.57,1.33-.17,3,1.03,4.26-3.18-2.29-.64-9.6"/>
      <path class="cls-138" d="m281.48,130.79s6.52,4.36,3.91,11.8c-2.61,7.44-2.16,10.23.62,15.5,0,0-1.4-6.44,1.34-11.98,2.74-5.55.65-12.53-5.87-15.32"/>
      <path class="cls-31" d="m238.19,236.73v-58.98c4.41-2.49,8.33-5.22,11.77-8.16,3.43-2.94,6.28-6.21,8.54-9.81,2.25-3.59,3.97-7.59,5.15-11.98,1.18-4.39,1.77-9.38,1.77-14.98s-.64-11.28-1.92-16.47c-1.28-5.19-3.36-9.76-6.23-13.7-2.87-3.94-6.67-7.11-11.38-9.51-4.72-2.4-10.51-3.69-17.38-3.9v149.09h0v11.83c31.19-4.81,57.25-25.17,69.82-52.79,0,0-17.53,30.46-60.13,39.37m0-137.31c3.08.8,5.71,2.3,7.92,4.49,2.2,2.2,4.02,4.87,5.46,8.01,1.43,3.14,2.49,6.66,3.15,10.56.67,3.89,1,7.84,1,11.83,0,8.09-1.44,14.85-4.31,20.29-2.87,5.44-7.28,10.26-13.23,14.45v-69.65Z"/>
      <path class="cls-167" d="m219.25,74.89c.15,0,.3,0,.45.02,1.45.1-43.63-3.76-.45-.02"/>
      <path class="cls-20" d="m181.02,79.17c-.64.24-1.24.5-1.87.75v154.99c1.03.29,2.07.58,3.12.85V78.73c-.42.15-.85.29-1.26.44"/>
      <path class="cls-20" d="m172.15,83.04v149.59c1.02.38,2.06.75,3.12,1.1V81.57c-.62.28-1.24.55-1.85.84-.43.21-.85.42-1.28.63"/>
      <path class="cls-20" d="m164.64,229.5c1.02.47,2.06.94,3.12,1.39V85.37c-1.07.6-2.11,1.21-3.12,1.84v142.3Z"/>
      <path class="cls-20" d="m157.38,225.75c1.01.58,2.06,1.15,3.12,1.71V89.92c-1.07.75-2.12,1.5-3.12,2.26v133.56Z"/>
      <path class="cls-20" d="m150.62,221.51c1.01.69,2.05,1.38,3.12,2.06V95.07c-1.09.91-2.13,1.82-3.12,2.73v123.71Z"/>
      <path class="cls-22" d="m198.43,242.59h.03v-64.84c4.41-2.49,8.33-5.22,11.77-8.16,3.43-2.94,6.28-6.21,8.54-9.81,2.25-3.59,3.97-7.59,5.15-11.98,1.18-4.39,1.77-9.38,1.77-14.98s-.64-11.28-1.92-16.47c-1.28-5.19-3.36-9.76-6.23-13.7-2.87-3.94-6.67-7.11-11.38-9.51-4.72-2.4-10.51-3.69-17.38-3.9v147.5c-1.44-.3-2.84-.63-4.22-.98-1.06-.27-2.1-.55-3.12-.84-1.32-.38-2.61-.77-3.88-1.18-1.06-.35-2.1-.71-3.12-1.09-1.5-.55-2.96-1.12-4.39-1.72-1.06-.45-2.1-.9-3.12-1.37-1.42-.65-2.8-1.33-4.13-2.02-1.07-.55-2.11-1.12-3.12-1.69-1.25-.71-2.47-1.42-3.63-2.15-1.08-.67-2.11-1.35-3.12-2.04-16.88-11.45-24.29-24.32-24.29-24.32,5.63,12.38,13.98,23.3,24.29,32.02,1.02.87,2.06,1.71,3.12,2.53,1.19.92,2.4,1.81,3.63,2.67,1.03.72,2.07,1.42,3.12,2.09,10.6,6.78,22.68,11.48,35.65,13.49v-7.56Zm.03-143.17c3.08.8,5.71,2.3,7.92,4.49,2.2,2.2,4.02,4.87,5.46,8.01,1.43,3.14,2.49,6.66,3.15,10.56.67,3.89,1,7.84,1,11.83,0,8.09-1.44,14.85-4.31,20.29-2.87,5.44-7.28,10.26-13.23,14.45v-69.65Z"/>
      <path class="cls-20" d="m260.6,81.36c-1.33-.78-2.68-1.53-4.06-2.24-1.34-.7-2.71-1.35-4.09-1.98-1.34-.61-2.69-1.19-4.06-1.74-1.36-.54-2.72-1.07-4.11-1.55-1.14-.39-2.29-.76-3.45-1.12-8.5-2.57-17.52-3.96-26.86-3.96s-18.88,1.47-27.6,4.19c-1.24.39-2.46.8-3.67,1.24-1.25.45-2.48.92-3.7,1.42-1.37.56-2.72,1.14-4.05,1.76-1.19.55-2.37,1.13-3.54,1.73-.09.04-.17.09-.26.14-.34.18-.68.36-1.02.55-.93.51-1.86,1.02-2.78,1.56-.54.32-1.07.65-1.61.98-1.06.65-2.1,1.31-3.12,2-1.4.94-2.79,1.9-4.13,2.9-1.06.79-2.1,1.61-3.12,2.45-1.24,1.02-2.45,2.07-3.63,3.15-1.06.97-2.11,1.96-3.12,2.97-7.9,7.88-14.37,17.16-18.96,27.45,0,0,5.65-11.88,18.96-23.89,1-.9,2.04-1.8,3.12-2.7,1.16-.96,2.37-1.91,3.63-2.85,1.01-.75,2.05-1.5,3.12-2.24,1.33-.91,2.7-1.81,4.13-2.68,1.01-.62,2.06-1.22,3.12-1.82.53-.3,1.06-.6,1.61-.89.9-.48,1.84-.95,2.78-1.41.43-.21.85-.42,1.28-.62.6-.28,1.23-.55,1.85-.83.56-.25,1.12-.51,1.69-.76.71-.3,1.46-.58,2.19-.87.62-.25,1.23-.5,1.87-.74.41-.15.84-.29,1.26-.43.81-.29,1.61-.57,2.44-.84,1.32-.43,2.68-.83,4.05-1.21,1.4-.39,2.82-.75,4.28-1.08,1.33-.3,2.68-.59,4.05-.85,1.34-.25,2.7-.47,4.09-.67,1.33-.19,2.68-.37,4.05-.52,1.34-.14,2.7-.26,4.09-.36,1.33-.09,2.68-.17,4.05-.22.86-.03,1.72-.05,2.6-.07.55,0,1.11.02,1.66.03,1.21.02,2.41.08,3.6.15-43.18-3.74,1.9.11.45.02-.15,0-.3,0-.45-.02,1.53.13,3.17.27,4.93.43,6.52.57,12.58,1.76,18.19,3.42,1.1.32,2.17.67,3.24,1.03,1.37.46,2.71.94,4.02,1.46,1.1.43,2.18.88,3.24,1.34,1.55.68,3.08,1.37,4.55,2.11,1.1.55,2.18,1.13,3.24,1.71,1.48.82,2.9,1.66,4.28,2.53,1.11.69,2.19,1.4,3.24,2.11,1.3.89,2.55,1.79,3.76,2.7,1.11.84,2.2,1.69,3.24,2.54,15.78,12.95,23.15,27,23.15,27-7.84-17.57-21.12-32.23-37.71-41.91"/>
      <path class="cls-181" d="m218.72,250.2c-.25-.15-.51-.36-.78-.64-.27-.28-.58-.59-.93-.94-2.08,1.56-4.52,2.33-7.34,2.33-.94,0-1.87-.18-2.78-.53-.91-.35-1.74-.89-2.48-1.62-.74-.73-1.34-1.63-1.78-2.71-.44-1.08-.67-2.37-.67-3.88,0-1,.09-1.92.26-2.75.17-.83.46-1.66.85-2.49.4-.83.88-1.69,1.45-2.6.57-.9,1.27-1.93,2.11-3.09-1.43-3.31-2.58-6.8-3.45-10.46-.87-3.66-1.3-7.55-1.3-11.67,0-3.51.26-6.45.78-8.81s1.21-4.25,2.08-5.68c.86-1.43,1.85-2.45,2.97-3.05,1.11-.6,2.24-.9,3.37-.9s2.14.3,3.15.9c1.01.6,1.92,1.59,2.71,2.97.79,1.38,1.41,3.21,1.85,5.49.44,2.28.67,5.11.67,8.47,0,2.86-.2,5.38-.59,7.56-.4,2.18-.97,4.18-1.71,5.98-.74,1.81-1.62,3.46-2.63,4.97-1.01,1.5-2.14,3.01-3.38,4.52,1.68,3.86,3.83,7.43,6.45,10.69,1.14-2.36,1.88-5.82,2.22-10.39h3.93c-.05,2.71-.38,5.19-1,7.45-.62,2.26-1.5,4.24-2.63,5.95.99,1.05,2.01,2.01,3.08,2.86,1.06.85,2.01,1.53,2.86,2.03h-7.34Zm-7.86-3.69c.74,0,1.43-.06,2.08-.19.64-.12,1.24-.36,1.78-.71l-.15-.3c-1.14-1.61-2.21-3.28-3.23-5.01-1.01-1.73-1.99-3.47-2.93-5.23-.69,1.15-1.19,2.31-1.48,3.46-.3,1.15-.44,2.41-.44,3.76,0,1.16.36,2.15,1.07,2.97.72.83,1.82,1.24,3.3,1.24m-4.3-37.79c0,6.67.99,12.92,2.97,18.74,1.04-1.51,1.89-2.91,2.56-4.21.67-1.31,1.2-2.66,1.6-4.06.4-1.4.67-2.92.82-4.55.15-1.63.22-3.55.22-5.76,0-2.46-.09-4.53-.26-6.21-.17-1.68-.42-3.02-.74-4.03-.32-1-.71-1.73-1.15-2.18-.45-.45-.94-.68-1.48-.68-.59,0-1.16.18-1.71.53-.54.35-1.03,1-1.45,1.96-.42.95-.75,2.27-1,3.95-.25,1.68-.37,3.85-.37,6.51"/>
    </g>
    <path class="cls-181" d="m126.89,109.37l-.97,1.54-19.23-12.15c2.88-4.29,7.06-3.74,10.83-1.36,3.63,2.29,4.74,5.08,4.62,8.96l4.75,3Zm-10.1-10.27c-2.65-1.67-5.76-2.44-7.47-.82l11.39,7.2c-.18-2.75-1.3-4.72-3.92-6.37Z"/>
    <g class="cls-136">
      <path class="cls-181" d="m125.92,111.35c-.08,0-.16-.02-.23-.07l-19.23-12.15c-.1-.06-.17-.16-.19-.28-.02-.12,0-.24.07-.33.75-1.12,1.6-1.96,2.52-2.49.92-.53,1.9-.83,2.89-.88.98-.05,2,.1,3.03.45,1,.34,2.01.83,2.98,1.44.94.6,1.74,1.24,2.36,1.9.62.67,1.13,1.4,1.51,2.16.38.77.65,1.61.79,2.49.13.8.19,1.66.17,2.54l4.54,2.87c.2.13.27.4.14.6l-.97,1.54c-.06.1-.16.17-.27.19-.03,0-.06.01-.1.01Zm-18.6-12.71l18.47,11.67.5-.8-4.38-2.77c-.13-.08-.21-.23-.2-.39.03-.92-.02-1.81-.15-2.63-.13-.8-.37-1.55-.71-2.24-.34-.69-.8-1.34-1.37-1.95-.57-.61-1.31-1.2-2.19-1.76-.92-.58-1.86-1.03-2.79-1.35-.92-.31-1.83-.45-2.7-.4-.86.05-1.7.3-2.5.77-.7.41-1.37,1.03-1.98,1.85Zm13.4,7.27c-.08,0-.16-.02-.23-.07l-11.39-7.19c-.12-.07-.19-.19-.2-.33-.01-.14.04-.27.14-.36.49-.46,1.08-.76,1.73-.9.63-.13,1.31-.15,2.01-.04.69.1,1.42.31,2.15.62.71.3,1.42.67,2.1,1.1,1.37.87,2.39,1.85,3.03,2.93.64,1.07,1,2.35,1.1,3.79.01.16-.07.32-.21.4-.07.04-.15.06-.22.06Zm-10.62-7.67l10.09,6.37c-.15-.94-.45-1.78-.88-2.51-.57-.96-1.49-1.84-2.74-2.63-.64-.4-1.3-.75-1.97-1.03-.67-.28-1.32-.47-1.94-.56-.6-.09-1.18-.08-1.7.03-.31.07-.59.18-.85.33Z"/>
    </g>
    <path class="cls-181" d="m130.75,94.37l-2.02,2.49,3.77,4.33-1.13,1.39-15.49-18.39,21.04,11.55-1.17,1.44-5-2.8Zm-2.96,1.43l1.73-2.13-6.71-3.78-.07.09,5.05,5.82Z"/>
    <g class="cls-110">
      <path class="cls-181" d="m131.36,103.01c-.13,0-.25-.06-.33-.16l-15.48-18.39c-.14-.16-.14-.4,0-.56.13-.16.37-.21.55-.11l21.04,11.55c.11.06.19.17.22.3s0,.26-.09.36l-1.17,1.43c-.13.17-.37.21-.55.11l-4.68-2.62-1.56,1.92,3.52,4.05c.14.16.14.4,0,.56l-1.13,1.39c-.08.1-.21.17-.34.16Zm-13.63-17.31l13.63,16.19.56-.69-3.52-4.05c-.14-.16-.14-.4,0-.56l2.02-2.49c.14-.17.37-.21.55-.11l4.68,2.62.6-.74-18.52-10.17Zm10.07,10.54c-.13,0-.25-.05-.33-.15l-5.05-5.82c-.14-.16-.14-.4,0-.57l.07-.09c.14-.16.37-.21.55-.1l6.71,3.78c.11.06.19.17.22.3.02.13,0,.26-.09.36l-1.73,2.13c-.08.1-.2.16-.33.16h0Zm-3.29-4.89l3.27,3.77,1.07-1.32-4.35-2.45Z"/>
    </g>
    <path class="cls-181" d="m141.86,90.71l-1.33,1.24-15.55-16.6c3.87-3.43,7.79-1.82,10.78,1.38,2.59,2.77,3.19,5.35,2.62,8.42,3.54.82,7.05.98,8.97.41l-2.21,2.07c-1.44.32-4.47-.3-7.07-1.12l-.06.1,3.84,4.1Zm-7.2-12.51c-2.1-2.24-4.94-3.79-7-2.66l9.21,9.84c.51-2.7-.05-4.87-2.21-7.18Z"/>
    <g class="cls-160">
      <path class="cls-181" d="m140.53,92.39h-.01c-.12,0-.23-.05-.31-.14l-15.54-16.6c-.08-.09-.12-.2-.12-.32s.06-.23.15-.31c1.01-.89,2.05-1.49,3.07-1.77,1.02-.28,2.04-.33,3.02-.13.97.2,1.92.6,2.82,1.2.88.58,1.73,1.31,2.52,2.15,1.31,1.4,2.17,2.82,2.55,4.24.35,1.28.42,2.66.21,4.1.73.16,1.46.29,2.17.39.84.12,1.66.19,2.43.22.77.03,1.48.03,2.12-.03.63-.05,1.18-.14,1.64-.26.19-.06.4.03.5.21.1.18.06.4-.08.53l-2.22,2.07c-.06.05-.13.09-.2.11-.41.09-.89.12-1.48.1-.57-.03-1.18-.1-1.82-.2-.66-.11-1.34-.24-2.02-.4-.18-.04-.37-.09-.55-.13l2.8,2.99c.17.18.16.45-.02.62l-1.33,1.24c-.08.08-.19.12-.3.12Zm-14.91-17l14.93,15.94.69-.65-3.54-3.78c-.08-.09-.12-.2-.12-.32,0,0,0,0,0,0,0-.08.02-.17.07-.25.11-.17.31-.25.51-.18.65.21,1.31.4,1.97.55.66.15,1.32.29,1.96.39.6.1,1.18.16,1.72.19.45.02.82,0,1.13-.05l1.05-.98c-.1.01-.2.02-.31.03-.67.05-1.42.06-2.22.03-.8-.03-1.65-.11-2.51-.23-.87-.12-1.76-.29-2.65-.5-.23-.05-.37-.28-.33-.5.27-1.46.23-2.85-.12-4.13-.35-1.28-1.14-2.58-2.35-3.87-.74-.79-1.54-1.47-2.36-2.01-.81-.53-1.66-.89-2.51-1.07-.84-.17-1.72-.13-2.61.11-.78.22-1.58.65-2.38,1.3Zm11.25,10.43c-.12,0-.24-.05-.32-.14l-9.21-9.83c-.09-.1-.13-.24-.11-.37s.11-.25.23-.31c.59-.32,1.23-.46,1.9-.43.65.03,1.3.19,1.96.46.64.27,1.29.66,1.92,1.14.62.47,1.21,1.01,1.75,1.59,1.11,1.19,1.85,2.4,2.19,3.6.34,1.2.38,2.52.11,3.94-.03.16-.15.29-.31.34-.04.01-.08.02-.12.02Zm-8.45-10.11l8.15,8.71c.09-.95.02-1.84-.21-2.65-.31-1.06-.98-2.15-1.99-3.24-.51-.55-1.07-1.05-1.65-1.49-.58-.44-1.16-.79-1.73-1.03-.56-.24-1.12-.37-1.66-.4-.32-.01-.62.02-.91.11Z"/>
    </g>
    <path class="cls-181" d="m151.52,75.53l-2.61,1.86,2.47,5.18-1.46,1.04-10-21.86,17.19,16.76-1.51,1.07-4.07-4.04Zm-3.23.59l2.24-1.59-5.46-5.44-.09.07,3.31,6.96Z"/>
    <g class="cls-10">
      <path class="cls-181" d="m149.91,84.04s-.08,0-.11-.02c-.13-.03-.23-.12-.28-.24l-10-21.86c-.09-.19-.03-.42.15-.54.17-.12.41-.1.56.04l17.18,16.76c.09.09.14.22.13.35,0,.13-.08.25-.18.32l-1.51,1.07c-.17.12-.41.1-.56-.05l-3.81-3.78-2.01,1.43,2.31,4.84c.09.19.03.42-.14.55l-1.46,1.04c-.07.05-.16.08-.25.08Zm-8.62-20.34l8.8,19.24.73-.52-2.31-4.84c-.09-.19-.03-.42.14-.55l2.61-1.86c.17-.12.41-.1.56.05l3.81,3.78.78-.55-15.12-14.75Zm7,12.86s-.07,0-.11-.01c-.13-.03-.23-.12-.29-.24l-3.31-6.96c-.09-.19-.03-.42.14-.55l.09-.07c.17-.12.41-.1.56.05l5.46,5.44c.09.09.14.22.13.35s-.08.25-.18.32l-2.24,1.59c-.07.05-.16.08-.25.08Zm-1.98-5.61l2.15,4.51,1.39-.99-3.54-3.52Z"/>
    </g>
    <path class="cls-181" d="m161.75,75.76l-10.2-18.07-2.09,1.18-.9-1.59,5.71-3.22.9,1.59-2.04,1.15,10.2,18.07-1.59.89Z"/>
    <g class="cls-89">
      <path class="cls-181" d="m161.75,76.2s-.08,0-.12-.02c-.11-.03-.21-.11-.26-.21l-9.98-17.68-1.71.96c-.1.06-.22.07-.33.04-.11-.03-.21-.11-.26-.21l-.9-1.59c-.06-.1-.07-.22-.04-.33s.11-.21.21-.26l5.71-3.22c.1-.06.22-.07.33-.04.11.03.21.11.26.21l.9,1.59c.12.21.04.48-.17.6l-1.66.93,9.98,17.68c.12.21.04.48-.17.6l-1.58.9c-.07.04-.14.06-.22.06Zm-10.2-18.94c.15,0,.3.08.38.22l9.98,17.68.82-.46-9.98-17.68c-.06-.1-.07-.22-.04-.33s.11-.21.21-.26l1.66-.93-.47-.83-4.95,2.79.47.83,1.71-.96c.07-.04.14-.06.21-.06Z"/>
    </g>
    <path class="cls-181" d="m174.9,69.35l-2.21-5.2-3.25,1.38,2.21,5.2-1.7.72-8.81-20.78,1.7-.72,6.06,14.3,3.25-1.38-6.06-14.3,1.73-.73,8.81,20.78-1.73.73Z"/>
    <g class="cls-36">
      <path class="cls-181" d="m169.96,71.88c-.06,0-.11-.01-.16-.03-.11-.04-.19-.13-.24-.24l-8.81-20.78c-.09-.22,0-.48.23-.57l1.7-.72c.11-.04.23-.05.33,0,.11.04.19.13.24.24l5.89,13.89,2.44-1.03-5.89-13.89c-.09-.22,0-.48.23-.57l1.73-.73c.11-.04.23-.05.33,0,.11.04.19.13.24.24l8.81,20.78c.09.22,0,.48-.23.57l-1.73.73c-.11.04-.23.05-.33,0-.11-.04-.19-.13-.24-.24l-2.03-4.8-2.44,1.03,2.03,4.8c.09.22,0,.48-.23.57l-1.7.72c-.05.02-.11.03-.17.03Zm-8.23-20.98l8.47,19.97.89-.38-2.03-4.8c-.05-.11-.05-.23,0-.34.04-.11.13-.19.23-.24l3.24-1.37c.22-.09.48,0,.57.23l2.03,4.8.92-.39-8.47-19.97-.92.39,5.89,13.89c.09.22,0,.48-.23.57l-3.24,1.38c-.11.05-.23.05-.33,0-.11-.04-.19-.13-.24-.24l-5.89-13.89-.89.38Z"/>
    </g>
    <path class="cls-181" d="m185.83,59.71l-3.08.89.62,5.7-1.72.5-2.21-23.94,10.68,21.5-1.78.51-2.51-5.16Zm-3.24-.51l2.64-.76-3.35-6.94-.11.03.83,7.66Z"/>
    <g class="cls-144">
      <path class="cls-181" d="m181.65,67.23c-.09,0-.17-.03-.25-.08-.11-.07-.18-.19-.19-.32l-2.21-23.93c-.02-.21.11-.4.32-.46.2-.06.42.04.51.23l10.67,21.49c.06.12.06.25,0,.37-.05.12-.15.21-.28.24l-1.78.51c-.21.06-.42-.04-.52-.23l-2.35-4.82-2.37.68.58,5.33c.02.21-.11.41-.31.47l-1.72.5s-.08.02-.12.02Zm-1.56-22.07l1.95,21.07.86-.25-.58-5.33c-.02-.21.11-.41.31-.47l3.08-.89c.2-.06.42.04.52.23l2.35,4.82.92-.26-9.4-18.92Zm2.5,14.48c-.09,0-.17-.03-.24-.07-.11-.07-.18-.19-.19-.32l-.83-7.66c-.02-.21.11-.41.32-.47l.11-.03c.2-.06.42.04.51.23l3.35,6.93c.06.12.06.25,0,.37-.05.12-.15.21-.28.24l-2.63.76s-.08.02-.12.02Zm-.16-5.97l.54,4.97,1.64-.47-2.17-4.49Z"/>
    </g>
    <path class="cls-181" d="m194.45,61.38c.42.25.82.36,1.51.24,2.02-.35,2.71-1.99,2.29-4.39-.25-1.43-.75-2.31-1.4-3.2-.99-1.33-2.39-2.65-3.24-3.65-.99-1.15-1.78-2.49-2.09-4.34-.54-3.11.62-5.46,3.06-5.88.88-.15,1.36.06,1.64.19l.31,1.83c-.24-.22-.8-.36-1.45-.25-1.48.25-2.15,1.63-1.76,3.89.25,1.46.78,2.33,1.5,3.24.9,1.14,1.79,1.87,2.88,3.12,1.1,1.28,2.02,2.54,2.4,4.73.59,3.43-.71,5.94-3.61,6.44-.88.15-1.43.04-1.72-.14l-.31-1.83Z"/>
    <g class="cls-45">
      <path class="cls-181" d="m195.74,63.87c-.14,0-.27,0-.39-.03-.34-.05-.61-.13-.81-.26-.11-.07-.18-.18-.21-.3l-.31-1.83c-.03-.17.04-.34.18-.44.14-.1.33-.1.47-.01.12.07.28.14.48.19.17.05.4.05.67,0,.91-.15,1.49-.53,1.8-1.15.33-.66.38-1.65.16-2.94-.09-.51-.25-1-.47-1.46-.23-.47-.5-.93-.82-1.36-.48-.63-1.01-1.24-1.57-1.82-.58-.6-1.14-1.21-1.64-1.8-.51-.6-.96-1.27-1.35-1.98-.39-.73-.67-1.56-.83-2.48-.3-1.73-.15-3.18.43-4.32.61-1.19,1.61-1.91,2.98-2.15.5-.09.9-.09,1.22-.01.29.07.52.15.69.24.13.06.22.18.24.32l.31,1.83c.03.19-.06.37-.23.46-.17.09-.37.06-.51-.08-.02-.02-.1-.09-.35-.14-.21-.04-.43-.04-.66,0-.63.11-1.07.42-1.32.94-.28.57-.31,1.46-.11,2.65.09.52.26,1.02.5,1.48.25.47.54.93.88,1.36.41.51.86,1.02,1.36,1.51.49.49.99,1.01,1.5,1.59.58.67,1.09,1.38,1.53,2.1.45.76.77,1.65.94,2.65.34,1.96.17,3.58-.5,4.81-.68,1.27-1.84,2.06-3.44,2.33-.31.05-.58.08-.83.08Zm-.58-.96c.08.02.18.05.32.07.23.03.55.02.94-.05,1.33-.23,2.25-.85,2.81-1.88.57-1.06.71-2.49.41-4.25-.15-.89-.43-1.68-.83-2.34-.41-.68-.89-1.35-1.43-1.98-.5-.56-.98-1.07-1.46-1.54-.52-.51-1-1.05-1.43-1.59-.37-.48-.69-.98-.97-1.5-.28-.54-.48-1.13-.58-1.74-.24-1.4-.18-2.44.18-3.19.38-.78,1.04-1.26,1.96-1.42.31-.05.61-.05.9,0l-.14-.81c-.09-.03-.2-.06-.33-.09-.13-.03-.39-.06-.85.02-1.1.19-1.86.74-2.34,1.68-.49.97-.61,2.24-.35,3.78.14.83.39,1.57.74,2.22.36.66.78,1.28,1.24,1.83.49.58,1.03,1.17,1.6,1.76.58.61,1.14,1.25,1.64,1.91.35.48.65.98.91,1.5.26.53.44,1.1.54,1.69.26,1.5.18,2.63-.24,3.48-.43.88-1.25,1.43-2.44,1.63-.37.06-.68.07-.96,0l.14.84Z"/>
    </g>
    <path class="cls-181" d="m220.97,61.38c-.2-.12-.39-.36-.65-.62-.79.56-1.75.86-2.88.83-1.47-.04-2.98-1.14-2.92-3.43.04-1.54.61-2.45,1.92-4.16-1.06-2.58-1.72-5.4-1.64-8.56.13-5.42,1.96-7.05,3.75-7.01,1.73.04,3.22,1.76,3.1,6.95-.11,4.37-1.46,6.54-3.45,8.79.6,1.46,1.4,2.88,2.41,4.17.45-.89.78-2.18.96-3.98l1.53.04c-.08,2.06-.64,3.84-1.54,5.12.76.83,1.61,1.55,2.26,1.94l-2.86-.07Zm-1.52-1.8l-.05-.12c-.87-1.27-1.61-2.62-2.3-4-.57.86-.79,1.72-.82,2.76-.02.9.51,1.64,1.66,1.66.58.01,1.07-.06,1.51-.31Zm-1.85-7.03c1.67-2.25,2.11-3.75,2.2-7.11.09-3.79-.43-5.05-1.29-5.07-.92-.02-1.78.85-1.88,4.94-.06,2.58.26,4.96.98,7.24Z"/>
    <g class="cls-145">
      <path class="cls-181" d="m217.58,62.02s-.1,0-.15,0c-.42-.01-.83-.1-1.23-.26-.41-.17-.78-.42-1.1-.75-.32-.32-.58-.73-.76-1.21-.18-.47-.27-1.04-.25-1.67.01-.42.06-.8.14-1.15.08-.35.22-.71.39-1.05.17-.33.37-.66.61-1.03.2-.3.44-.63.72-.99-.49-1.24-.89-2.55-1.17-3.9-.31-1.44-.44-2.99-.41-4.6.03-1.38.17-2.55.4-3.48.24-.95.55-1.72.92-2.3.39-.61.85-1.04,1.35-1.3.5-.25,1.02-.37,1.53-.36.5.01.98.16,1.44.44.45.28.85.73,1.18,1.33.32.58.56,1.34.72,2.27.16.91.22,2.03.19,3.35-.03,1.12-.13,2.12-.31,2.98-.18.87-.43,1.67-.75,2.37-.32.71-.69,1.37-1.12,1.96-.36.51-.77,1.02-1.2,1.53.49,1.14,1.09,2.21,1.8,3.22.29-.8.5-1.85.63-3.15.02-.23.2-.4.45-.39l1.53.04c.12,0,.23.05.31.14s.12.2.12.32c-.05,1.07-.21,2.07-.48,2.97-.24.78-.55,1.48-.94,2.09.29.3.59.58.89.84.38.32.74.58,1.05.78.17.1.24.31.19.5-.06.19-.24.31-.43.31l-2.86-.07c-.08,0-.16-.03-.23-.07-.13-.08-.25-.19-.38-.32l-.1-.11c-.79.47-1.68.7-2.67.7Zm.91-23.16c-.35,0-.71.09-1.07.27-.37.18-.71.52-1.01.99-.32.5-.59,1.18-.81,2.04-.21.87-.34,1.97-.37,3.29-.04,1.55.09,3.03.39,4.4.29,1.39.71,2.73,1.22,3.98.06.15.04.31-.06.43-.33.43-.61.81-.84,1.14-.22.33-.41.64-.56.94-.14.28-.25.57-.32.85-.07.28-.11.61-.11.97-.01.52.05.96.19,1.33.14.36.33.67.57.91.24.24.51.43.81.55.3.12.61.19.92.2.99.01,1.87-.22,2.62-.75.18-.12.42-.1.57.06l.35.37s.09.09.13.12l1.34.03s0,0,0,0c-.42-.35-.83-.74-1.22-1.17-.14-.15-.15-.38-.03-.55.43-.6.77-1.32,1.02-2.14.21-.7.35-1.47.42-2.3l-.68-.02c-.19,1.62-.51,2.85-.97,3.73-.07.13-.2.22-.35.23-.15.02-.29-.05-.39-.17-1.01-1.31-1.84-2.74-2.47-4.27-.06-.15-.03-.33.08-.45.49-.56.93-1.12,1.33-1.67.39-.54.74-1.15,1.03-1.81.29-.65.52-1.39.69-2.2.17-.81.27-1.76.29-2.83.03-1.26-.03-2.33-.17-3.18-.14-.83-.35-1.5-.62-2-.26-.47-.55-.81-.87-1.01-.32-.2-.65-.3-1-.31-.02,0-.03,0-.05,0Zm-.43,21.46s-.08,0-.13,0c-.71-.02-1.25-.24-1.6-.67,0,0,0,0,0,0-.34-.41-.5-.9-.49-1.45.01-.55.09-1.07.23-1.55.14-.48.36-.96.66-1.43.08-.13.23-.22.39-.2.16,0,.3.1.37.24.35.68.71,1.35,1.08,2.03.37.66.77,1.31,1.19,1.92l.09.18c.1.2.02.45-.17.56-.26.16-.55.26-.86.31-.23.04-.49.06-.76.06Zm-1.06-1.23c.19.23.5.34.95.35.26,0,.5-.01.72-.05.05,0,.09-.02.14-.03-.34-.51-.69-1.08-1.01-1.66-.25-.44-.48-.88-.72-1.32-.07.17-.13.34-.18.5-.12.41-.18.86-.19,1.33,0,.34.09.62.29.86Zm.6-6.11s-.05,0-.07,0c-.16-.03-.3-.14-.35-.3-.73-2.29-1.06-4.77-1-7.38.03-1.04.1-1.9.21-2.57.12-.68.27-1.22.46-1.62.21-.45.46-.75.75-.93.29-.17.61-.25.9-.25.33,0,.63.15.88.41.22.23.39.57.53,1.03.12.42.21.96.27,1.65.05.66.07,1.48.04,2.44-.02.86-.07,1.62-.14,2.25-.07.65-.2,1.26-.38,1.82-.17.56-.41,1.11-.69,1.63-.28.51-.64,1.06-1.07,1.65-.08.11-.22.18-.35.18Zm.88-12.18c-.14,0-.28.04-.42.12-.1.06-.25.2-.41.55-.15.33-.29.8-.39,1.4h0c-.11.62-.17,1.44-.2,2.44-.05,2.18.19,4.27.71,6.23.18-.28.35-.55.49-.81.26-.47.47-.96.62-1.47.16-.51.28-1.07.34-1.67.07-.61.12-1.34.14-2.17.02-.92,0-1.71-.04-2.35-.05-.62-.13-1.11-.23-1.47-.12-.4-.24-.59-.33-.67-.11-.12-.2-.14-.26-.14,0,0-.01,0-.02,0Z"/>
    </g>
    <path class="cls-181" d="m238.29,63.72l-1.77-.42,5.21-22.14c5,1.33,5.84,5.45,4.82,9.8-.98,4.17-3.25,6.14-6.97,7.29l-1.29,5.47Zm6.42-12.9c.72-3.05.43-6.24-1.66-7.33l-3.08,13.12c2.54-1.07,4.03-2.77,4.74-5.79Z"/>
    <g class="cls-122">
      <path class="cls-181" d="m238.29,64.15s-.07,0-.1-.01l-1.77-.42c-.11-.03-.21-.1-.27-.2-.06-.1-.08-.22-.05-.33l5.21-22.14c.03-.12.1-.21.2-.28s.22-.08.34-.05c1.3.35,2.37.88,3.18,1.57.81.7,1.41,1.52,1.78,2.45.37.92.56,1.93.56,3.01,0,1.07-.13,2.17-.39,3.29-.26,1.08-.6,2.04-1.03,2.85-.43.81-.95,1.53-1.55,2.14-.6.61-1.31,1.13-2.1,1.56-.72.38-1.51.71-2.35.99l-1.23,5.23c-.05.2-.23.34-.43.34Zm-1.24-1.18l.92.22,1.19-5.05c.04-.15.15-.27.3-.32.88-.27,1.7-.6,2.43-1,.72-.38,1.35-.86,1.89-1.4.54-.55,1.01-1.19,1.4-1.93.39-.74.71-1.63.95-2.64.25-1.05.37-2.08.37-3.08,0-.97-.17-1.87-.5-2.69-.32-.8-.84-1.51-1.54-2.11-.61-.53-1.42-.95-2.4-1.26l-5,21.26Zm2.92-5.93c-.1,0-.2-.04-.28-.1-.12-.11-.18-.27-.14-.43l3.08-13.11c.03-.13.12-.24.25-.3.12-.06.27-.05.39.01.59.32,1.07.77,1.42,1.35.33.55.57,1.19.7,1.89.13.69.17,1.44.12,2.23-.05.78-.17,1.57-.35,2.34-.37,1.58-.97,2.87-1.78,3.82-.81.95-1.89,1.72-3.22,2.27-.05.02-.11.03-.17.03Zm3.37-12.83l-2.73,11.61c.84-.45,1.54-1,2.09-1.65.72-.84,1.25-2.01,1.59-3.45.17-.73.28-1.47.33-2.2.05-.72.01-1.4-.1-2.01-.11-.6-.31-1.14-.59-1.6-.16-.27-.36-.5-.59-.7Z"/>
    </g>
    <path class="cls-181" d="m248.75,66.63l7.65-21.24,1.74.63-7.06,19.6,2.99,1.08-.59,1.64-4.73-1.7Z"/>
    <g class="cls-7">
      <path class="cls-181" d="m253.48,68.78s-.1,0-.15-.03l-4.73-1.7c-.23-.08-.35-.33-.26-.56l7.65-21.23c.04-.11.12-.2.23-.25.1-.05.23-.05.33-.02l1.74.63c.23.08.35.33.26.56l-6.91,19.18,2.58.93c.23.08.35.33.26.56l-.59,1.63c-.04.11-.12.2-.23.25-.06.03-.12.04-.19.04Zm-4.17-2.41l3.9,1.41.29-.81-2.58-.93c-.23-.08-.35-.33-.26-.56l6.91-19.18-.92-.33-7.35,20.41Z"/>
    </g>
    <path class="cls-181" d="m265.32,67.61l-2.86-1.45-3.43,4.6-1.6-.81,14.67-19.04-6.81,23.02-1.65-.83,1.67-5.49Zm-2.03-2.58l2.45,1.24,2.26-7.36-.1-.05-4.61,6.18Z"/>
    <g class="cls-65">
      <path class="cls-181" d="m265.3,74.37c-.07,0-.14-.02-.2-.05l-1.65-.83c-.19-.1-.28-.31-.22-.52l1.56-5.13-2.2-1.11-3.2,4.3c-.13.17-.36.23-.55.13l-1.6-.81c-.12-.06-.2-.17-.23-.29-.03-.13,0-.26.08-.36l14.67-19.04c.13-.17.36-.22.55-.12.19.1.28.31.22.51l-6.81,23.01c-.04.12-.13.23-.25.28-.06.02-.12.04-.17.04Zm-1.12-1.5l.85.43,5.99-20.26-12.92,16.76.8.4,3.2-4.3c.13-.17.36-.23.55-.13l2.86,1.45c.19.1.28.31.22.52l-1.56,5.13Zm1.57-6.17c-.07,0-.14-.02-.2-.05l-2.45-1.24c-.12-.06-.2-.17-.23-.29-.03-.13,0-.26.08-.36l4.61-6.17c.13-.17.36-.22.55-.13l.1.05c.19.1.28.32.22.52l-2.26,7.36c-.04.12-.13.22-.25.27-.06.02-.11.04-.17.04Zm-1.79-1.83l1.52.77,1.47-4.77-2.99,4Z"/>
    </g>
    <path class="cls-181" d="m269.82,76.77l11.36-17.36-2.01-1.31,1-1.53,5.49,3.59-1,1.53-1.96-1.28-11.36,17.36-1.52-1Z"/>
    <g class="cls-107">
      <path class="cls-181" d="m271.35,78.21c-.08,0-.17-.02-.24-.07l-1.52-1c-.2-.13-.26-.4-.13-.61l11.12-16.99-1.64-1.07c-.2-.13-.26-.4-.13-.61l1-1.53c.06-.1.16-.17.28-.19.12-.02.23,0,.33.06l5.49,3.59c.1.06.17.16.19.28s0,.23-.06.33l-1,1.53c-.13.2-.4.26-.61.13l-1.59-1.04-11.12,16.99c-.08.13-.22.2-.37.2Zm-.92-1.56l.79.52,11.12-16.99c.13-.2.41-.26.61-.13l1.59,1.04.52-.79-4.75-3.11-.52.79,1.64,1.07c.2.13.26.4.13.61l-11.12,16.99Z"/>
    </g>
    <path class="cls-181" d="m278.44,83.01l13.26-15.96-1.84-1.53,1.17-1.4,5.04,4.19-1.17,1.4-1.8-1.5-13.26,15.96-1.4-1.16Z"/>
    <g class="cls-163">
      <path class="cls-181" d="m279.83,84.61c-.1,0-.2-.03-.28-.1l-1.4-1.16c-.09-.07-.15-.18-.16-.3s.03-.23.1-.32l12.98-15.61-1.51-1.25c-.09-.07-.15-.18-.16-.3s.03-.23.1-.32l1.17-1.4c.16-.19.43-.21.62-.06l5.04,4.19c.19.15.21.43.06.62l-1.17,1.4c-.07.09-.18.15-.3.16-.12.01-.23-.02-.32-.1l-1.46-1.22-12.98,15.61c-.09.1-.21.16-.34.16Zm-.78-1.66l.73.6,12.98-15.61c.16-.19.43-.21.62-.06l1.46,1.22.61-.73-4.37-3.63-.61.73,1.51,1.25c.09.07.15.18.16.3s-.03.23-.1.32l-12.98,15.61Z"/>
    </g>
    <path class="cls-181" d="m285.35,89.22l16.29-15.62,3.22,3.36-1.32,1.26-1.94-2.02-9.89,9.48,1.9,1.98-1,.96-1.9-1.98-2.82,2.71,2.12,2.21-1.25,1.2-3.4-3.54Z"/>
    <g class="cls-103">
      <path class="cls-181" d="m288.75,93.21h0c-.12,0-.23-.05-.31-.13l-3.4-3.54c-.08-.08-.12-.2-.12-.31,0-.12.05-.23.13-.31l16.29-15.62c.08-.08.2-.11.31-.12.12,0,.23.05.31.13l3.22,3.36c.17.17.16.45-.01.62l-1.32,1.26c-.08.08-.2.12-.31.12-.12,0-.23-.05-.31-.13l-1.64-1.71-9.26,8.88,1.6,1.66c.17.17.16.45-.01.62l-1,.96c-.08.08-.18.12-.31.12-.12,0-.23-.05-.31-.13l-1.59-1.66-2.19,2.1,1.82,1.89c.17.17.16.45-.01.62l-1.25,1.2c-.08.08-.19.12-.3.12Zm-2.78-3.97l2.79,2.91.62-.6-1.82-1.89c-.08-.08-.12-.2-.12-.31,0-.12.05-.23.13-.31l2.82-2.71c.18-.17.45-.16.62.01l1.59,1.66.37-.36-1.6-1.66c-.08-.08-.12-.2-.12-.31,0-.12.05-.23.13-.31l9.89-9.48c.18-.17.45-.16.62.01l1.64,1.71.68-.66-2.61-2.73-15.66,15.01Z"/>
    </g>
    <path class="cls-181" d="m293.46,98.5l-1.08-1.47,18.33-13.47c2.95,4.25.88,7.95-2.64,10.55-3.06,2.25-5.69,2.53-8.67,1.61-1.23,3.41-1.81,6.89-1.47,8.86l-1.8-2.44c-.15-1.47.82-4.41,1.95-6.88l-.09-.08-4.53,3.33Zm13.27-5.67c2.47-1.82,4.35-4.45,3.46-6.64l-10.86,7.98c2.62.83,4.85.53,7.39-1.35Z"/>
    <g class="cls-42">
      <path class="cls-181" d="m297.93,105.01c-.14,0-.27-.06-.35-.18l-1.8-2.44c-.05-.06-.08-.14-.08-.21-.04-.42-.02-.9.08-1.48.09-.55.23-1.15.41-1.78.18-.62.39-1.28.64-1.96.06-.18.13-.35.2-.53l-3.3,2.43c-.19.14-.47.1-.61-.09l-1.08-1.47c-.07-.09-.1-.21-.08-.33s.08-.22.17-.29l18.32-13.47c.1-.07.22-.1.33-.08.12.02.22.09.29.18.77,1.11,1.24,2.21,1.4,3.26.16,1.05.08,2.07-.23,3.02-.31.93-.82,1.83-1.52,2.66-.68.81-1.5,1.57-2.43,2.25-1.55,1.14-3.07,1.82-4.51,2.03-1.32.2-2.69.1-4.1-.28-.25.71-.46,1.42-.64,2.11-.22.83-.39,1.63-.51,2.38-.12.75-.2,1.46-.22,2.11-.03.63,0,1.19.07,1.65.03.2-.08.39-.26.47-.05.02-.11.03-.17.03Zm-1.37-3.04l.85,1.16c0-.1,0-.2,0-.31.03-.68.11-1.43.23-2.21.13-.78.3-1.61.53-2.46.22-.85.49-1.72.81-2.58.08-.22.32-.34.54-.27,1.42.44,2.8.56,4.12.37,1.3-.19,2.69-.82,4.12-1.87.87-.64,1.64-1.35,2.28-2.11.63-.74,1.08-1.54,1.36-2.37.27-.81.34-1.69.2-2.61-.12-.8-.46-1.65-1.01-2.52l-17.6,12.94.56.76,4.17-3.07c.1-.07.22-.1.34-.08.09,0,.17.04.24.1.15.13.2.34.12.52-.28.6-.54,1.24-.78,1.89-.24.66-.45,1.3-.62,1.9-.17.6-.3,1.17-.39,1.68-.07.44-.1.82-.08,1.13Zm5.41-6.92c-.89,0-1.81-.15-2.76-.45-.16-.05-.27-.18-.3-.35-.03-.16.04-.33.17-.42l10.85-7.98c.11-.08.25-.1.38-.07.13.04.24.13.29.26.25.63.31,1.28.21,1.94-.11.63-.34,1.27-.69,1.89-.35.6-.8,1.2-1.36,1.77-.55.56-1.15,1.09-1.79,1.55-1.31.96-2.6,1.55-3.83,1.75-.38.06-.77.09-1.17.09Zm-1.63-1.06c.93.2,1.82.24,2.66.1,1.09-.18,2.25-.71,3.45-1.6.6-.44,1.16-.93,1.68-1.46.51-.52.92-1.06,1.23-1.6.3-.53.5-1.07.59-1.6.05-.31.05-.61,0-.92l-9.61,7.07Z"/>
    </g>
    <path class="cls-181" d="m301.51,106.84c-.1.48-.07.9.26,1.5.98,1.8,2.76,1.92,4.9.75,1.27-.69,1.95-1.46,2.57-2.36.94-1.37,1.73-3.12,2.4-4.24.77-1.31,1.78-2.49,3.43-3.39,2.77-1.51,5.36-1.18,6.55,1,.43.79.38,1.31.35,1.62l-1.63.89c.13-.3.09-.87-.23-1.45-.72-1.32-2.24-1.51-4.25-.41-1.3.71-1.96,1.5-2.58,2.46-.79,1.22-1.19,2.29-2.02,3.74-.86,1.45-1.75,2.73-3.7,3.8-3.05,1.67-5.85,1.25-7.26-1.33-.43-.79-.5-1.34-.42-1.68l1.63-.89Z"/>
    <g class="cls-53">
      <path class="cls-181" d="m304.07,112.18c-.28,0-.56-.02-.83-.07-1.43-.24-2.54-1.07-3.32-2.5-.24-.43-.38-.8-.44-1.13-.06-.33-.07-.61-.02-.85.03-.12.11-.23.22-.29l1.63-.89c.15-.08.34-.07.47.03.14.1.2.28.17.44-.03.13-.04.31-.03.51,0,.17.08.39.22.64.44.81.99,1.24,1.68,1.33.73.09,1.68-.18,2.83-.8.45-.25.86-.55,1.23-.91.37-.37.71-.78,1.02-1.21.44-.67.85-1.37,1.21-2.08.38-.75.78-1.46,1.17-2.14.41-.68.89-1.32,1.44-1.92.56-.61,1.26-1.14,2.08-1.59,1.54-.84,2.96-1.17,4.23-.99,1.32.19,2.33.9,2.99,2.12.24.45.38.82.4,1.15.02.28.03.53,0,.73-.02.14-.1.26-.22.33l-1.63.89c-.16.09-.37.06-.51-.07-.14-.13-.18-.33-.09-.51.02-.03.05-.13.02-.38-.03-.21-.1-.42-.21-.62-.31-.57-.74-.88-1.32-.95-.62-.08-1.48.18-2.54.76-.47.26-.89.58-1.24.95-.37.39-.71.82-1.01,1.27-.36.56-.69,1.15-.99,1.77-.31.64-.65,1.29-1.01,1.94-.45.76-.95,1.48-1.5,2.13-.57.67-1.31,1.26-2.2,1.74-1.41.77-2.71,1.15-3.89,1.15Zm-3.77-4.18c0,.08.01.19.04.32.04.24.16.53.35.87.65,1.19,1.53,1.86,2.69,2.05,1.19.2,2.58-.13,4.15-.99.79-.43,1.45-.95,1.95-1.54.52-.61.99-1.28,1.41-2,.35-.63.69-1.26.99-1.88.31-.65.67-1.28,1.04-1.87.33-.5.7-.97,1.11-1.4.42-.44.91-.81,1.46-1.12,1.25-.68,2.25-.96,3.07-.86.87.11,1.53.58,1.98,1.4.15.28.25.56.3.85l.73-.4c0-.09,0-.2-.02-.33-.01-.14-.07-.39-.3-.81-.53-.98-1.3-1.53-2.35-1.67-1.08-.15-2.32.15-3.69.89-.74.4-1.36.88-1.86,1.42-.51.55-.96,1.15-1.33,1.77-.39.65-.77,1.36-1.14,2.09-.38.74-.8,1.47-1.27,2.17-.34.48-.71.93-1.12,1.34-.42.42-.9.78-1.43,1.06-1.33.73-2.43,1.02-3.36.9-.97-.13-1.76-.73-2.33-1.78-.18-.33-.28-.63-.31-.91l-.75.41Z"/>
    </g>
    <path class="cls-181" d="m127.86,244.92l12.61-13.8,2.84,2.6-1.02,1.12-1.71-1.56-7.66,8.38,1.68,1.53-.78.85-1.68-1.53-2.19,2.39,1.87,1.71-.97,1.06-3-2.74Z"/>
    <g class="cls-75">
      <path class="cls-181" d="m130.87,247.92c-.06,0-.12-.02-.17-.07l-3-2.74c-.1-.09-.11-.25-.02-.35l12.61-13.8c.09-.1.25-.11.35-.02l2.85,2.6s.08.11.08.17c0,.07-.02.13-.06.18l-1.02,1.12c-.09.1-.25.11-.35.02l-1.53-1.4-7.32,8.01,1.49,1.37s.08.11.08.17c0,.07-.02.13-.06.18l-.78.85c-.09.1-.25.11-.35.02l-1.49-1.36-1.85,2.02,1.69,1.54c.1.09.11.25.02.35l-.97,1.06s-.11.08-.17.08h-.01Zm-2.65-3.01l2.63,2.41.63-.69-1.69-1.54s-.08-.11-.08-.17c0-.07.02-.13.06-.18l2.19-2.39s.11-.08.17-.08c.06,0,.13.02.18.07l1.49,1.36.44-.48-1.49-1.37c-.1-.09-.11-.25-.02-.35l7.66-8.38c.09-.1.25-.11.35-.02l1.53,1.4.68-.75-2.48-2.26-12.27,13.43Z"/>
    </g>
    <path class="cls-181" d="m135.93,251.86l11.36-14.85,1.22.93-10.48,13.71,2.09,1.6-.88,1.14-3.31-2.53Z"/>
    <g class="cls-175">
      <path class="cls-181" d="m139.24,254.63c-.05,0-.11-.02-.15-.05l-3.31-2.53c-.11-.08-.13-.24-.05-.35l11.35-14.85c.04-.05.1-.09.17-.1.07,0,.13,0,.19.05l1.22.93c.11.08.13.24.05.35l-10.33,13.51,1.89,1.45c.11.08.13.24.05.35l-.87,1.14c-.04.05-.1.09-.17.1-.01,0-.02,0-.03,0Zm-2.96-2.83l2.91,2.23.57-.75-1.89-1.45c-.05-.04-.09-.1-.1-.17,0-.07,0-.13.05-.18l10.33-13.51-.82-.63-11.05,14.46Z"/>
    </g>
    <path class="cls-181" d="m144.3,257.86l10.01-15.79,3.25,2.06-.81,1.28-1.96-1.24-6.08,9.59,1.92,1.22-.62.97-1.92-1.22-1.73,2.74,2.14,1.36-.77,1.22-3.44-2.18Z"/>
    <g class="cls-143">
      <path class="cls-181" d="m147.74,260.29s-.09-.01-.13-.04l-3.44-2.18c-.06-.04-.1-.09-.11-.16-.01-.06,0-.13.03-.19l10.01-15.79c.04-.06.09-.1.16-.11.07-.01.13,0,.19.03l3.25,2.06c.12.07.15.23.08.34l-.81,1.28c-.04.06-.09.1-.16.11-.06.02-.13,0-.19-.03l-1.75-1.11-5.81,9.17,1.71,1.08c.12.07.15.23.08.34l-.62.97c-.07.12-.23.15-.34.08l-1.71-1.08-1.47,2.32,1.93,1.22c.06.04.1.09.11.16.01.06,0,.13-.03.19l-.77,1.22c-.05.08-.13.12-.21.12Zm-3.09-2.5l3.01,1.91.5-.8-1.93-1.22c-.06-.04-.1-.09-.11-.16-.01-.06,0-.13.03-.19l1.73-2.74c.07-.12.23-.15.35-.08l1.71,1.08.35-.55-1.71-1.08c-.12-.07-.15-.23-.08-.34l6.07-9.59c.08-.12.23-.15.35-.08l1.75,1.11.54-.86-2.83-1.79-9.74,15.37Z"/>
    </g>
    <path class="cls-181" d="m158.94,258.51l.09.04,7.23-9.74,1.37.69-12.13,15.79,5.59-19.09,1.43.72-3.58,11.58Z"/>
    <g class="cls-106">
      <path class="cls-181" d="m155.5,265.55s-.08,0-.11-.03c-.11-.05-.16-.18-.13-.29l5.59-19.08c.02-.07.07-.13.14-.16s.15-.03.21,0l1.43.72c.11.06.16.18.13.3l-3.23,10.46,6.53-8.8c.07-.1.21-.13.31-.07l1.37.69c.07.03.11.1.13.17s0,.15-.05.21l-12.13,15.79c-.05.06-.12.1-.2.1Zm5.74-18.98l-5.13,17.51,11.13-14.49-.91-.46-7.11,9.57c-.07.1-.21.13-.31.07l-.09-.04c-.11-.06-.16-.18-.12-.3l3.52-11.38-.98-.49Z"/>
    </g>
    <path class="cls-181" d="m169.01,265.21l-2.47-.97-2.47,4.06-1.38-.54,10.63-16.84-3.84,19.51-1.43-.56.96-4.65Zm-1.87-1.97l2.12.83,1.3-6.25-.09-.04-3.33,5.45Z"/>
    <g class="cls-124">
      <path class="cls-181" d="m169.48,270.67s-.06,0-.09-.02l-1.42-.56c-.11-.04-.18-.16-.15-.28l.91-4.45-2.08-.82-2.36,3.88c-.06.1-.19.15-.3.1l-1.38-.54c-.07-.03-.12-.08-.15-.15-.02-.07-.01-.15.03-.21l10.63-16.84c.06-.1.19-.14.3-.1.11.04.18.16.15.28l-3.84,19.51c-.01.07-.06.14-.12.17-.04.02-.08.03-.12.03Zm-1.14-.97l.95.37,3.52-17.9-9.75,15.45.9.35,2.36-3.88c.06-.1.19-.15.3-.1l2.47.97c.11.04.18.16.15.28l-.91,4.45Zm.91-5.39s-.06,0-.09-.02l-2.11-.83c-.07-.03-.12-.08-.15-.15-.02-.07-.02-.15.02-.21l3.32-5.45c.06-.1.19-.15.31-.1l.09.04c.11.04.18.17.15.28l-1.3,6.25c-.01.07-.06.13-.13.17-.04.02-.08.03-.12.03Zm-1.75-1.21l1.56.62,1-4.82-2.56,4.21Z"/>
    </g>
    <path class="cls-181" d="m175.46,272.34l4.88-16.48-1.9-.56.43-1.45,5.21,1.54-.43,1.45-1.86-.55-4.88,16.48-1.45-.43Z"/>
    <g class="cls-27">
      <path class="cls-181" d="m176.91,273.02s-.05,0-.07-.01l-1.45-.43c-.13-.04-.21-.18-.17-.31l4.81-16.23-1.67-.5c-.06-.02-.12-.06-.15-.12s-.04-.13-.02-.19l.43-1.45c.04-.13.18-.21.31-.17l5.21,1.54c.06.02.12.06.15.12s.04.13.02.19l-.43,1.45c-.04.13-.18.21-.31.17l-1.62-.48-4.81,16.24c-.02.06-.06.12-.12.15-.04.02-.08.03-.12.03Zm-1.14-.85l.97.29,4.81-16.24c.02-.06.06-.12.12-.15.06-.03.13-.04.19-.02l1.62.48.29-.97-4.73-1.4-.29.97,1.67.5c.13.04.21.18.17.31l-4.81,16.23Z"/>
    </g>
    <path class="cls-181" d="m184.68,274.76l3.8-18.31,3.77.78-.31,1.48-2.27-.47-2.31,11.12,2.23.46-.23,1.13-2.23-.46-.66,3.17,2.48.52-.29,1.41-3.98-.83Z"/>
    <g class="cls-17">
      <path class="cls-181" d="m188.66,275.84s-.03,0-.05,0l-3.98-.83c-.14-.03-.22-.16-.19-.3l3.8-18.31c.01-.07.05-.12.11-.16.06-.04.12-.05.19-.04l3.77.79c.14.03.22.16.19.3l-.31,1.48c-.01.06-.05.12-.11.16-.06.04-.12.05-.19.04l-2.03-.42-2.21,10.62,1.98.41c.06.01.12.05.16.11.04.05.05.12.04.19l-.23,1.13c-.03.14-.16.22-.3.19l-1.98-.41-.56,2.68,2.24.46c.14.03.22.16.19.3l-.29,1.41c-.01.06-.05.12-.11.16-.04.03-.09.04-.14.04Zm-3.69-1.27l3.49.73.19-.92-2.24-.46c-.06-.01-.12-.05-.16-.11-.04-.05-.05-.12-.04-.19l.66-3.17c.03-.14.16-.22.3-.19l1.98.41.13-.64-1.98-.41c-.06-.01-.12-.05-.16-.11-.04-.05-.05-.12-.04-.19l2.31-11.12c.03-.14.16-.22.3-.19l2.03.42.2-.99-3.28-.68-3.7,17.82Z"/>
    </g>
    <path class="cls-181" d="m197.35,257.93c4.24.64,5.19,5.12,4.61,10.1-.58,4.98-2.53,9.11-6.79,8.73l2.18-18.84Zm-.5,17.39c1.95-.45,3.19-3.83,3.61-7.46.42-3.62,0-7.23-1.8-8.14l-1.81,15.59Z"/>
    <g class="cls-67">
      <path class="cls-181" d="m195.71,277.04c-.18,0-.37,0-.56-.02-.07,0-.13-.04-.17-.09-.04-.05-.06-.12-.05-.19l2.19-18.83c0-.07.04-.13.1-.17.05-.04.12-.06.19-.05,1.1.16,2.02.57,2.72,1.21.69.63,1.23,1.43,1.58,2.38.35.93.57,2,.63,3.16.07,1.16.03,2.38-.12,3.63-.15,1.25-.39,2.45-.72,3.56-.33,1.12-.78,2.11-1.34,2.93-.56.83-1.26,1.47-2.08,1.92-.69.38-1.48.56-2.36.56Zm-.26-.51c.9.04,1.71-.13,2.38-.5.75-.41,1.39-1.01,1.91-1.77.53-.77.95-1.71,1.27-2.79.32-1.08.56-2.25.7-3.48.14-1.22.18-2.41.11-3.54-.06-1.12-.27-2.13-.6-3.02-.33-.87-.82-1.6-1.45-2.18-.57-.52-1.31-.87-2.2-1.04l-2.12,18.31Zm1.41-.96c-.06,0-.12-.02-.17-.07-.06-.05-.09-.13-.08-.21l1.81-15.59c0-.08.06-.15.13-.19.07-.04.16-.04.23,0,.5.25.91.67,1.21,1.25.29.55.52,1.21.66,1.97.14.75.22,1.58.22,2.46,0,.9-.05,1.81-.15,2.71-.11.91-.26,1.8-.47,2.66-.21.86-.47,1.64-.77,2.34-.31.7-.68,1.3-1.09,1.76-.44.49-.93.8-1.48.92-.02,0-.03,0-.05,0Zm2.01-15.42l-1.72,14.82c.31-.13.59-.35.86-.65.38-.43.72-.98,1.01-1.64.3-.66.55-1.42.74-2.25.2-.84.35-1.71.46-2.6.1-.88.15-1.77.15-2.65,0-.85-.07-1.65-.21-2.37-.13-.7-.34-1.32-.61-1.83-.19-.36-.41-.63-.68-.84Z"/>
    </g>
    <path class="cls-181" d="m218.35,258.77c.74-.03,1.15.1,1.4.34l.05,1.54c-.27-.23-.64-.39-1.26-.36-1.46.05-2.14,2.41-1.94,8.19.2,5.76,1.05,8.06,2.51,8.01.62-.02.97-.23,1.23-.45l.05,1.54c-.23.22-.63.38-1.38.41-2.39.08-3.71-2.7-3.95-9.44-.24-6.76.88-9.66,3.27-9.75Z"/>
    <g class="cls-74">
      <path class="cls-181" d="m218.93,278.21c-.62,0-1.17-.18-1.65-.55-.49-.38-.92-.97-1.26-1.77-.34-.78-.61-1.79-.8-3.01h0c-.19-1.2-.32-2.67-.38-4.35-.06-1.7-.04-3.17.07-4.39.11-1.23.31-2.26.59-3.07.29-.83.67-1.46,1.13-1.87.48-.42,1.05-.65,1.72-.67.39-.02.71.01.95.07.26.07.47.18.63.33.05.04.08.11.08.17l.05,1.54c0,.1-.05.19-.15.24-.09.04-.2.03-.27-.04-.11-.1-.24-.18-.4-.23-.17-.05-.39-.08-.68-.07-.3.01-.55.14-.77.4-.24.28-.44.74-.59,1.35-.16.63-.26,1.47-.32,2.49-.06,1.02-.06,2.26-.01,3.69.05,1.42.14,2.66.27,3.67.13,1,.3,1.82.5,2.45.2.6.42,1.04.68,1.3.24.24.48.38.8.35.29-.01.51-.05.67-.12.16-.07.29-.16.4-.26.07-.07.18-.09.27-.05.09.04.15.12.16.22l.05,1.54c0,.07-.03.14-.08.19-.15.14-.34.25-.6.34-.24.08-.54.13-.94.14-.04,0-.07,0-.11,0Zm-3.22-5.41c.19,1.18.45,2.15.77,2.89.31.72.69,1.25,1.11,1.58.41.32.88.46,1.44.44.34-.01.61-.05.8-.11.13-.04.24-.1.33-.16l-.03-.95s-.08.04-.13.06c-.22.1-.5.16-.86.17-.43,0-.83-.15-1.17-.5-.32-.32-.58-.81-.8-1.5-.21-.65-.38-1.51-.52-2.54-.13-1.03-.23-2.28-.28-3.71-.05-1.44-.05-2.7.01-3.73.06-1.05.17-1.91.33-2.58.17-.69.4-1.21.7-1.55.31-.37.69-.56,1.13-.58.35-.01.63.02.86.09.05.02.1.04.14.06l-.03-.95c-.09-.06-.21-.11-.34-.15-.2-.05-.46-.07-.8-.06-.55.02-1.01.2-1.4.54-.4.35-.73.91-.99,1.66-.27.77-.46,1.76-.56,2.95-.11,1.2-.13,2.65-.07,4.33.06,1.67.19,3.11.38,4.29h0Z"/>
    </g>
    <path class="cls-181" d="m228.59,276.94l-1.5.19-2.42-18.69c4.26-.43,6.12,2.55,6.58,6.14.4,3.12-.44,5.14-2.31,6.93,1.98,2.26,4.27,4.07,5.83,4.62l-2.49.32c-1.12-.48-2.86-2.36-4.21-4.17l-.09.04.6,4.62Zm1.21-11.89c-.33-2.52-1.48-4.94-3.42-5.17l1.43,11.07c1.65-1.57,2.32-3.3,1.99-5.9Z"/>
    <g class="cls-40">
      <path class="cls-181" d="m227.09,277.39c-.05,0-.11-.02-.15-.05-.05-.04-.09-.1-.1-.17l-2.42-18.68c0-.07.01-.13.05-.19s.1-.09.17-.09c1.09-.11,2.06-.01,2.87.29.81.3,1.5.75,2.05,1.35.54.59.98,1.31,1.29,2.13.31.82.53,1.7.65,2.64.2,1.55.09,2.91-.33,4.03-.39,1.05-1.03,2.02-1.9,2.89.44.49.89.96,1.35,1.4.52.49,1.03.94,1.53,1.33.5.39.99.73,1.45,1.01.45.28.87.49,1.25.62.11.04.18.15.16.26-.01.11-.1.21-.22.22l-2.49.32s-.09,0-.13-.02c-.31-.13-.64-.34-1.02-.64-.36-.28-.73-.62-1.11-1-.37-.37-.76-.79-1.16-1.24-.19-.22-.38-.44-.55-.66l.49,3.76c.02.14-.08.26-.22.28l-1.49.19s-.02,0-.03,0Zm-2.14-18.71l2.36,18.18,1-.13-.57-4.37c0-.07,0-.13.05-.19,0,0,0,0,0,0,.03-.04.07-.08.12-.1.11-.04.23,0,.29.08.32.44.68.89,1.07,1.33.39.44.77.85,1.14,1.22.37.37.73.69,1.07.96.31.24.59.43.84.54l1.55-.2c-.17-.09-.34-.19-.52-.29-.48-.29-.98-.64-1.5-1.05-.51-.41-1.04-.86-1.57-1.36-.53-.5-1.04-1.04-1.54-1.61-.09-.1-.08-.25.01-.34.9-.87,1.55-1.83,1.94-2.88s.49-2.32.3-3.79c-.11-.9-.32-1.74-.62-2.52-.29-.77-.69-1.43-1.19-1.97-.49-.54-1.12-.95-1.85-1.22-.67-.25-1.48-.35-2.39-.28Zm2.86,12.51s-.06,0-.08-.01c-.09-.03-.15-.11-.16-.2l-1.43-11.07c0-.08.02-.15.07-.21.06-.05.13-.08.21-.07.53.07,1.02.28,1.44.61.41.32.77.74,1.07,1.23.29.49.54,1.05.73,1.67.18.61.32,1.25.41,1.9.17,1.32.08,2.47-.26,3.43-.34.96-.95,1.85-1.81,2.66-.05.04-.11.07-.17.07Zm-1.14-11l1.32,10.22c.61-.66,1.06-1.36,1.33-2.11.32-.88.39-1.96.23-3.2-.08-.62-.21-1.24-.39-1.82-.18-.58-.41-1.11-.68-1.56-.27-.44-.59-.81-.95-1.1-.27-.21-.55-.35-.87-.44Z"/>
    </g>
    <path class="cls-181" d="m240.13,275.05l-4.1-18.24,3.76-.85.33,1.47-2.26.51,2.49,11.08,2.22-.5.25,1.12-2.22.5.71,3.16,2.48-.56.32,1.41-3.97.89Z"/>
    <g class="cls-72">
      <path class="cls-181" d="m240.13,275.3c-.11,0-.22-.08-.24-.2l-4.1-18.24c-.03-.13.05-.27.19-.3l3.76-.85c.14-.03.27.06.3.19l.33,1.48c.01.06,0,.13-.03.19-.04.06-.09.1-.16.11l-2.02.45,2.38,10.59,1.97-.44c.14-.03.27.06.3.19l.25,1.12c.01.06,0,.13-.03.19-.04.06-.09.1-.16.11l-1.97.44.6,2.67,2.23-.5c.06-.01.13,0,.19.03s.1.09.11.16l.32,1.41c.03.13-.05.27-.19.3l-3.97.89s-.04,0-.05,0Zm-3.8-18.3l3.99,17.75,3.48-.78-.21-.92-2.23.5c-.14.03-.27-.06-.3-.19l-.71-3.16c-.01-.06,0-.13.03-.19.04-.06.09-.1.16-.11l1.97-.44-.14-.64-1.97.44c-.14.03-.27-.06-.3-.19l-2.49-11.08c-.01-.06,0-.13.03-.19.04-.06.09-.1.16-.11l2.02-.45-.22-.99-3.27.74Z"/>
    </g>
    <path class="cls-181" d="m252.84,266.75l-2.53.81.66,4.71-1.41.46-2.45-19.76,9.4,17.52-1.46.47-2.21-4.21Zm-2.7-.34l2.16-.7-2.95-5.66-.09.03.88,6.32Z"/>
    <g class="cls-119">
      <path class="cls-181" d="m249.56,272.97s-.09-.01-.13-.04c-.06-.04-.1-.11-.11-.18l-2.45-19.76c-.01-.12.06-.23.17-.27.12-.03.24.01.3.12l9.39,17.52c.03.07.04.14.01.21-.03.07-.08.12-.15.14l-1.46.47c-.12.04-.24-.01-.3-.12l-2.11-4.02-2.13.69.63,4.5c.02.12-.06.24-.17.27l-1.41.46s-.05.01-.08.01Zm-2.04-18.71l2.25,18.13.92-.3-.63-4.5c-.02-.12.06-.24.17-.27l2.53-.81c.12-.04.24.01.3.12l2.11,4.02.97-.31-8.62-16.08Zm2.61,12.4s-.09-.01-.13-.04c-.06-.04-.1-.1-.12-.18l-.88-6.32c-.02-.12.06-.23.17-.27l.09-.03c.11-.04.24.01.3.12l2.95,5.65c.03.07.04.14,0,.21s-.08.12-.15.14l-2.16.7s-.05.01-.08.01Zm-.47-5.45l.68,4.88,1.6-.52-2.28-4.36Z"/>
    </g>
    <path class="cls-181" d="m262.3,268.22l-6.6-15.87-1.83.76-.58-1.4,5.01-2.08.58,1.4-1.79.74,6.6,15.87-1.39.58Z"/>
    <g class="cls-52">
      <path class="cls-181" d="m262.3,268.47c-.1,0-.19-.06-.23-.15l-6.5-15.64-1.6.67c-.06.03-.13.03-.19,0-.06-.03-.11-.07-.14-.14l-.58-1.4c-.05-.13,0-.27.14-.33l5.01-2.08c.06-.03.13-.03.19,0,.06.03.11.07.13.14l.58,1.4c.03.06.03.13,0,.19s-.07.11-.14.13l-1.56.65,6.5,15.64c.03.06.03.13,0,.19s-.07.11-.14.13l-1.39.58s-.06.02-.1.02Zm-6.59-16.37s.06,0,.1.02c.06.03.11.07.13.14l6.5,15.64.93-.39-6.5-15.64c-.03-.06-.03-.13,0-.19s.07-.11.14-.13l1.56-.65-.39-.94-4.55,1.89.39.93,1.6-.67s.06-.02.1-.02Z"/>
    </g>
    <path class="cls-181" d="m270.88,264.34l-8.42-16.7,1.37-.69,8.42,16.7-1.37.69Z"/>
    <g class="cls-26">
      <path class="cls-181" d="m270.88,264.59c-.09,0-.18-.05-.22-.14l-8.42-16.69c-.06-.12-.01-.27.11-.34l1.37-.69c.06-.03.13-.04.19-.01.06.02.12.07.15.12l8.42,16.7c.03.06.03.13.01.19-.02.06-.07.12-.12.15l-1.37.69s-.07.03-.11.03Zm-8.08-16.83l8.19,16.25.92-.46-8.19-16.25-.92.46Z"/>
    </g>
    <path class="cls-181" d="m281.07,259.01c-1.75,1.08-4.19-.56-7.72-6.33-3.52-5.75-4.06-8.97-2.31-10.04s4.38.87,7.9,6.62c3.54,5.77,3.89,8.68,2.13,9.76Zm-.78-1.27c1-.61-.04-3.41-2.66-7.69s-4.8-6.74-5.8-6.13.2,3.68,2.82,7.95c2.62,4.28,4.64,6.48,5.64,5.86Z"/>
    <g class="cls-156">
      <path class="cls-181" d="m279.98,259.56c-.13,0-.26,0-.4-.03-.57-.09-1.19-.4-1.86-.92-.64-.51-1.36-1.25-2.12-2.2-.76-.94-1.59-2.15-2.47-3.6-1.77-2.89-2.84-5.2-3.17-6.85-.35-1.74-.03-2.93.95-3.53.97-.59,2.17-.33,3.57.77h0c1.33,1.05,2.91,3.04,4.68,5.93.89,1.45,1.59,2.74,2.08,3.84.5,1.1.83,2.08,1,2.89.17.83.16,1.53-.02,2.08-.19.56-.53,1-1.01,1.29-.37.23-.78.34-1.22.34Zm-7.98-16.95c-.3,0-.58.08-.83.23-.79.49-1.03,1.47-.72,3.01.32,1.6,1.37,3.85,3.11,6.69.88,1.43,1.7,2.62,2.44,3.55.74.92,1.42,1.63,2.04,2.12.6.47,1.14.75,1.62.82.47.07.89,0,1.27-.24.39-.24.65-.57.8-1.03.15-.46.15-1.07,0-1.82-.16-.78-.48-1.71-.96-2.78-.49-1.08-1.18-2.35-2.05-3.79-1.74-2.84-3.28-4.79-4.56-5.8-.82-.64-1.54-.96-2.16-.96Zm7.91,15.48c-.55,0-1.21-.42-2.01-1.28-.98-1.05-2.15-2.67-3.46-4.81-.64-1.04-1.21-2.03-1.69-2.97h0c-.47-.9-.84-1.72-1.1-2.42-.26-.71-.4-1.31-.42-1.79-.02-.54.14-.92.47-1.12.33-.2.73-.17,1.21.1.42.23.89.63,1.4,1.18.5.54,1.06,1.24,1.66,2.08.6.83,1.23,1.8,1.88,2.85,1.31,2.14,2.23,3.91,2.71,5.26.53,1.48.49,2.38-.14,2.76-.16.1-.33.15-.51.15Zm-6.72-9.29c.48.92,1.04,1.91,1.67,2.94,1.29,2.11,2.43,3.7,3.4,4.73.6.64,1.42,1.34,1.9,1.05.48-.29.23-1.34-.07-2.17-.48-1.32-1.38-3.06-2.67-5.17-.64-1.05-1.27-2-1.86-2.83-.58-.82-1.13-1.5-1.62-2.03-.47-.51-.9-.88-1.28-1.09-.31-.17-.54-.2-.71-.11-.16.1-.24.33-.23.68.01.42.14.97.39,1.63.25.68.61,1.48,1.07,2.36h0Z"/>
    </g>
    <path class="cls-181" d="m283.84,243.34l-.08.06,6.78,8.9-1.16.88-11.85-15.56,11.31,7.35.08-.06-7.17-9.41,1.12-.86,11.85,15.56-10.88-6.86Z"/>
    <g class="cls-132">
      <path class="cls-181" d="m289.38,253.43c-.08,0-.15-.03-.2-.1l-11.85-15.56c-.07-.1-.07-.23.02-.32.08-.09.22-.1.32-.04l10.34,6.72-6.46-8.48c-.04-.05-.06-.12-.05-.18,0-.07.04-.13.1-.17l1.12-.86c.11-.08.27-.06.35.05l11.85,15.56c.07.1.07.23-.01.32-.08.09-.21.11-.32.04l-9.94-6.27,6.09,8c.04.05.06.12.05.18,0,.07-.04.13-.1.17l-1.16.88s-.1.05-.15.05Zm-10.78-14.82l10.83,14.22.76-.58-6.62-8.7c-.08-.11-.06-.27.05-.35l.08-.06c.08-.06.2-.07.29-.01l9.71,6.12-10.86-14.26-.73.55,7.02,9.22c.04.05.06.12.05.19,0,.07-.04.12-.1.17l-.08.06c-.08.06-.2.07-.29.01l-10.1-6.56Z"/>
    </g>
    <path class="cls-181" d="m298.42,243.77c.41-.02.73-.12,1.15-.51,1.25-1.15.98-2.61-.39-4.08-.82-.88-1.56-1.27-2.42-1.59-1.29-.48-2.86-.76-3.89-1.07-1.21-.35-2.36-.92-3.42-2.07-1.78-1.92-2.04-4.07-.53-5.47.54-.5.97-.57,1.23-.61l1.04,1.13c-.27-.04-.72.11-1.12.48-.91.85-.76,2.11.53,3.5.83.9,1.6,1.27,2.5,1.58,1.14.38,2.08.49,3.41.87,1.34.39,2.54.85,3.8,2.2,1.96,2.11,2.19,4.45.4,6.11-.54.5-.97.67-1.26.68l-1.04-1.13Z"/>
    <g class="cls-81">
      <path class="cls-181" d="m299.46,245.15c-.07,0-.14-.03-.18-.08l-1.04-1.13c-.07-.07-.08-.18-.05-.27.04-.09.12-.15.22-.15.12,0,.27-.03.45-.09.16-.05.33-.16.51-.33.59-.54.84-1.1.77-1.71-.08-.63-.5-1.36-1.25-2.18-.3-.32-.64-.6-1.01-.82-.38-.23-.78-.42-1.2-.58-.63-.22-1.28-.41-1.93-.56-.66-.15-1.31-.32-1.95-.5-.62-.19-1.23-.44-1.81-.76-.59-.32-1.15-.77-1.67-1.33-.97-1.05-1.51-2.1-1.63-3.13-.11-1.06.25-1.98,1.06-2.74.29-.27.56-.45.8-.53.23-.08.41-.12.56-.14.08,0,.16.02.22.08l1.04,1.13c.07.08.09.2.03.29-.05.09-.16.14-.27.12-.05-.01-.16-.01-.37.07-.18.07-.34.18-.5.32-.42.39-.59.83-.53,1.35.07.54.45,1.2,1.15,1.95.31.33.66.61,1.04.83.4.22.82.41,1.24.56.52.17,1.08.32,1.64.44.58.12,1.17.26,1.75.42.7.2,1.37.46,1.99.76.64.31,1.25.78,1.81,1.39,1.1,1.19,1.7,2.37,1.8,3.5.09,1.16-.34,2.2-1.3,3.08-.29.27-.55.46-.79.57-.24.11-.45.17-.63.18h0Zm-.55-1.21l.64.7c.08-.02.19-.05.34-.12.19-.09.41-.25.66-.48.85-.79,1.22-1.66,1.14-2.67-.09-1.02-.65-2.1-1.67-3.2-.52-.56-1.08-.99-1.67-1.28-.6-.29-1.24-.54-1.91-.73-.57-.16-1.15-.29-1.72-.41-.58-.12-1.16-.27-1.7-.46-.46-.16-.9-.36-1.33-.6-.43-.24-.82-.55-1.17-.92-.78-.85-1.2-1.58-1.28-2.23-.08-.68.15-1.27.69-1.77.2-.18.42-.32.65-.42.03-.01.06-.02.09-.03l-.62-.67c-.1.02-.21.05-.34.1-.17.06-.39.21-.62.43-.71.65-1,1.41-.91,2.32.1.92.6,1.88,1.5,2.84.48.52,1,.93,1.54,1.23.55.3,1.13.54,1.71.72.62.18,1.27.35,1.92.5.66.15,1.33.35,1.99.58.45.17.89.38,1.29.62.41.25.79.55,1.12.91.84.91,1.29,1.71,1.38,2.46.09.77-.22,1.49-.92,2.14-.24.22-.47.37-.7.44-.03,0-.06.02-.09.03Z"/>
    </g>
  </g>
</svg>