<?xml version="1.0" encoding="utf-8"?>
<!-- Generator: Adobe Illustrator 27.3.1, SVG Export Plug-In . SVG Version: 6.00 Build 0)  -->
<svg version="1.1" id="Layer_1" focusable="false" xmlns="http://www.w3.org/2000/svg" xmlns:xlink="http://www.w3.org/1999/xlink"
	 x="0px" y="0px" viewBox="0 0 24 24" style="enable-background:new 0 0 24 24;" xml:space="preserve">
<style type="text/css">
	.st0{fill:#EC2027;}
	.st1{fill-rule:evenodd;clip-rule:evenodd;fill:#EC2027;}
</style>
<path class="st0" d="M10.6,16.9c-0.4,0-0.8-0.3-0.8-0.7V9.8c0-0.4,0.3-0.7,0.8-0.7s0.8,0.3,0.8,0.7v6.3C11.3,16.6,11,16.9,10.6,16.9
	z"/>
<path class="st0" d="M13.4,16.9c-0.4,0-0.8-0.3-0.8-0.7V9.8c0-0.4,0.3-0.7,0.8-0.7s0.8,0.3,0.8,0.7v6.3
	C14.2,16.6,13.9,16.9,13.4,16.9z"/>
<path class="st1" d="M20,7.1c0,0.4-0.3,0.8-0.7,0.8h-0.5c-0.2,0-0.4,0.1-0.4,0.3l-1.6,10.5C16.6,19.4,16,20,15.2,20H8.8
	c-0.8,0-1.5-0.6-1.6-1.4L5.7,8.1c0-0.2-0.2-0.3-0.4-0.3H4.7C4.3,7.8,4,7.5,4,7.1c0-0.4,0.3-0.8,0.7-0.8h14.5C19.7,6.3,20,6.6,20,7.1
	z M16.4,7.8H7.6C7.4,7.8,7.2,8,7.3,8.2l1.2,10.1c0,0.2,0.2,0.4,0.4,0.4h6.2c0.2,0,0.4-0.2,0.4-0.4l1.2-10.1
	C16.8,8,16.6,7.8,16.4,7.8z"/>
<path class="st1" d="M8,3.8C8,3.3,8.3,3,8.7,3h6.6C15.7,3,16,3.3,16,3.8s-0.3,0.8-0.7,0.8H8.7C8.3,4.5,8,4.2,8,3.8z"/>
</svg>
