<?xml version="1.0" encoding="utf-8"?>
<!-- Generator: Adobe Illustrator 27.3.1, SVG Export Plug-In . SVG Version: 6.00 Build 0)  -->
<svg version="1.1" id="Layer_1" focusable="false" xmlns="http://www.w3.org/2000/svg" xmlns:xlink="http://www.w3.org/1999/xlink"
	 x="0px" y="0px" viewBox="0 0 24 24" style="enable-background:new 0 0 24 24;" xml:space="preserve">
<style type="text/css">
	.st0{fill-rule:evenodd;clip-rule:evenodd;fill:#EC2027;}
</style>
<path class="st0" d="M12,5c0.4,0,0.7,0.3,0.7,0.6l0,0.1v5.1c0,0.2,0.2,0.4,0.4,0.4h5.1c0.4,0,0.8,0.3,0.8,0.8c0,0.4-0.3,0.7-0.6,0.7
	l-0.1,0h-5.1c-0.2,0-0.4,0.2-0.4,0.4v5.1c0,0.4-0.3,0.8-0.8,0.8c-0.4,0-0.7-0.3-0.7-0.6l0-0.1v-5.1c0-0.2-0.2-0.4-0.4-0.4H5.8
	C5.3,12.8,5,12.4,5,12c0-0.4,0.3-0.7,0.6-0.7l0.1,0h5.1c0.2,0,0.4-0.2,0.4-0.4V5.8C11.2,5.3,11.6,5,12,5z"/>
</svg>
